<svg width="35" height="35" viewBox="0 0 35 35" fill="none" xmlns="http://www.w3.org/2000/svg">
<g clip-path="url(#clip0_83_1052)">
<path d="M15.4831 16.7311L22.3191 22.12L17.7898 10.9484L15.4831 16.7311ZM17.5 0C7.83234 0 0 7.83234 0 17.5C0 27.1677 7.83234 35 17.5 35C27.1677 35 35 27.1677 35 17.5C35 7.83234 27.1677 0 17.5 0ZM25.9536 25.2361C25.9361 25.9252 25.3673 26.4666 24.6772 26.4491C24.3348 26.4491 24.0734 26.3178 23.7092 26.0214L14.6803 18.7294L11.6495 26.3178H9.02891L16.6797 7.93516C16.8623 7.47359 17.3009 7.17719 17.7964 7.19469C18.2689 7.17719 18.7141 7.46813 18.8792 7.93516L25.8409 24.6947C25.9033 24.8598 25.9547 25.037 25.9547 25.2022C25.9547 25.2131 25.9536 25.2131 25.9536 25.2361Z" fill="#F8F8F0"/>
</g>
<defs>
<clipPath id="clip0_83_1052">
<rect width="35" height="35" fill="white"/>
</clipPath>
</defs>
</svg>
