<svg width="40" height="40" viewBox="0 0 40 40" fill="none" xmlns="http://www.w3.org/2000/svg">
<path d="M11.275 19.2175C11.275 19.71 11.325 20.11 11.42 20.405C11.525 20.6975 11.66 21.0175 11.845 21.365C11.9041 21.4568 11.9361 21.5634 11.9375 21.6725C11.9375 21.805 11.8575 21.94 11.6875 22.0725L10.8475 22.6325C10.7467 22.7053 10.6268 22.747 10.5025 22.7525C10.3675 22.7525 10.235 22.6875 10.1025 22.5675C9.92284 22.3742 9.76211 22.164 9.62253 21.94C9.47465 21.6835 9.33786 21.4207 9.21253 21.1525C8.17253 22.38 6.87003 22.995 5.30003 22.995C4.18253 22.995 3.29003 22.6725 2.64003 22.0325C1.98753 21.3925 1.65503 20.5375 1.65503 19.47C1.65503 18.335 2.05503 17.415 2.86503 16.72C3.67753 16.025 4.75503 15.68 6.12503 15.68C6.57503 15.68 7.04253 15.72 7.53503 15.785C8.02753 15.8525 8.53503 15.96 9.06503 16.08V15.105C9.06503 14.09 8.85253 13.3825 8.44003 12.97C8.01503 12.555 7.29503 12.355 6.27003 12.355C5.80503 12.355 5.32753 12.41 4.83503 12.53C4.34571 12.6465 3.86532 12.7977 3.39753 12.9825C3.2465 13.0509 3.09117 13.1093 2.93253 13.1575C2.86379 13.1802 2.79233 13.1937 2.72003 13.1975C2.53253 13.1975 2.44003 13.0625 2.44003 12.7825V12.1275C2.44003 11.915 2.46503 11.7525 2.53253 11.6625C2.63327 11.5398 2.76183 11.443 2.90753 11.38C3.37003 11.14 3.93003 10.94 4.58253 10.78C5.23253 10.605 5.92503 10.5275 6.65753 10.5275C8.24003 10.5275 9.39753 10.8875 10.1425 11.6075C10.875 12.3275 11.2475 13.4225 11.2475 14.8925V19.2175H11.2725H11.275ZM5.87253 21.245C6.31003 21.245 6.76253 21.165 7.24253 21.005C7.72253 20.845 8.14753 20.55 8.50503 20.15C8.7194 19.9044 8.87425 19.6127 8.95753 19.2975C9.03753 18.975 9.09253 18.59 9.09253 18.135V17.575C8.68874 17.4771 8.27976 17.402 7.86753 17.35C7.453 17.2964 7.03551 17.2688 6.61753 17.2675C5.72503 17.2675 5.07503 17.4425 4.63503 17.8025C4.19503 18.1625 3.98503 18.67 3.98503 19.3375C3.98503 19.9625 4.14253 20.43 4.47503 20.7525C4.79503 21.085 5.26003 21.245 5.87253 21.245ZM16.555 22.6875C16.315 22.6875 16.155 22.6475 16.05 22.5525C15.9425 22.4725 15.85 22.2875 15.77 22.0325L12.645 11.715C12.5842 11.542 12.544 11.3624 12.525 11.18C12.525 10.9675 12.63 10.8475 12.8425 10.8475H14.1475C14.3975 10.8475 14.5725 10.8875 14.665 10.98C14.7725 11.06 14.8525 11.2475 14.9325 11.5L17.1675 20.3375L19.2425 11.5C19.3075 11.235 19.3875 11.06 19.495 10.98C19.6547 10.8822 19.8406 10.836 20.0275 10.8475H21.0925C21.3425 10.8475 21.5175 10.8875 21.6225 10.98C21.73 11.06 21.8225 11.2475 21.8775 11.5L23.9775 20.445L26.2775 11.5C26.3203 11.3065 26.4125 11.1273 26.545 10.98C26.7 10.882 26.882 10.8356 27.065 10.8475H28.3025C28.515 10.8475 28.635 10.955 28.635 11.18C28.635 11.2475 28.62 11.315 28.61 11.395C28.5884 11.5085 28.5566 11.6198 28.515 11.7275L25.3075 22.045C25.23 22.3125 25.135 22.4875 25.03 22.5675C24.8791 22.6641 24.7014 22.7104 24.5225 22.7H23.38C23.1275 22.7 22.955 22.66 22.8475 22.5675C22.74 22.4725 22.6475 22.3 22.595 22.0325L20.5325 13.425L18.4825 22.0225C18.4175 22.29 18.3375 22.4625 18.2325 22.555C18.125 22.65 17.9375 22.69 17.7 22.69H16.555V22.6875ZM33.65 23.0475C32.9596 23.0484 32.2715 22.9679 31.6 22.8075C30.935 22.6475 30.4175 22.4725 30.07 22.2725C29.8575 22.1525 29.7125 22.02 29.6575 21.8975C29.6068 21.7798 29.5805 21.6531 29.58 21.525V20.845C29.58 20.565 29.685 20.43 29.885 20.43C29.9667 20.4302 30.0477 20.4437 30.125 20.47C30.205 20.4975 30.325 20.55 30.4575 20.605C30.9075 20.805 31.4025 20.965 31.92 21.0725C32.4525 21.1775 32.97 21.2325 33.5025 21.2325C34.3425 21.2325 34.9925 21.085 35.445 20.7925C35.6624 20.6609 35.841 20.474 35.9627 20.251C36.0843 20.0279 36.1446 19.7765 36.1375 19.5225C36.142 19.351 36.1125 19.1803 36.0507 19.0203C35.989 18.8602 35.8961 18.714 35.7775 18.59C35.54 18.335 35.0875 18.1075 34.435 17.895L32.505 17.295C31.535 16.9875 30.815 16.5325 30.3775 15.9325C29.9492 15.3781 29.7155 14.6981 29.7125 13.9975C29.7125 13.4375 29.8325 12.9425 30.07 12.515C30.31 12.09 30.63 11.715 31.03 11.42C31.43 11.115 31.88 10.8875 32.4125 10.7275C32.945 10.5675 33.5025 10.5 34.0875 10.5C34.3825 10.5 34.6875 10.5125 34.98 10.5525C35.285 10.5925 35.565 10.6475 35.845 10.7025C36.11 10.7675 36.365 10.8325 36.6025 10.915C36.8425 10.995 37.0275 11.075 37.1625 11.155C37.3195 11.2339 37.4563 11.3476 37.5625 11.4875C37.6481 11.6177 37.6893 11.772 37.68 11.9275V12.555C37.68 12.835 37.575 12.9825 37.375 12.9825C37.1979 12.9623 37.0265 12.9079 36.87 12.8225C36.0661 12.4661 35.1943 12.2887 34.315 12.3025C33.5575 12.3025 32.9575 12.4225 32.545 12.6775C32.1325 12.9275 31.92 13.3175 31.92 13.865C31.92 14.2375 32.0525 14.5575 32.32 14.8125C32.585 15.065 33.0775 15.3175 33.7825 15.545L35.6725 16.145C36.63 16.4525 37.3225 16.88 37.735 17.4275C38.1475 17.975 38.345 18.6025 38.345 19.2975C38.345 19.8725 38.2275 20.39 38 20.845C37.7646 21.3016 37.4338 21.7023 37.03 22.02C36.6175 22.3525 36.125 22.595 35.5525 22.7675C34.9525 22.955 34.3275 23.0475 33.65 23.0475Z" fill="#F8F8F0"/>
<path fill-rule="evenodd" clip-rule="evenodd" d="M36.1626 29.5327C31.7876 32.7752 25.4276 34.4977 19.9601 34.4977C12.2976 34.4977 5.39257 31.6552 0.17757 26.9302C-0.23493 26.5552 0.13757 26.0477 0.62757 26.3427C6.27007 29.6252 13.2276 31.6152 20.4276 31.6152C25.2801 31.6152 30.6151 30.6002 35.5251 28.5177C36.2576 28.1852 36.8826 28.9977 36.1626 29.5327Z" fill="#F8F8F0"/>
<path fill-rule="evenodd" clip-rule="evenodd" d="M37.9852 27.45C37.4277 26.7325 34.2877 27.105 32.8652 27.2775C32.4402 27.3325 32.3727 26.9575 32.7577 26.6775C35.2577 24.915 39.3702 25.4225 39.8477 26.01C40.3277 26.61 39.7152 30.735 37.3727 32.71C37.0152 33.0175 36.6702 32.86 36.8302 32.46C37.3602 31.135 38.5452 28.16 37.9852 27.4525V27.45Z" fill="#F8F8F0"/>
</svg>
