<svg width="40" height="40" viewBox="0 0 40 40" fill="none" xmlns="http://www.w3.org/2000/svg">
<path d="M38.3488 16.7086C37.5825 16.2036 36.6413 15.9024 35.63 15.9024C35.5138 15.9024 35.3988 15.9061 35.285 15.9136L35.3 15.9124C34.7425 15.9136 34.1975 15.9636 33.6675 16.0561L33.725 16.0474C33.4313 14.3511 32.4438 12.9286 31.0725 12.0586L31.0488 12.0449L30.5125 11.7349L30.16 12.2449C29.74 12.8849 29.4113 13.6299 29.215 14.4261L29.205 14.4749C29.0938 14.8799 29.03 15.3449 29.03 15.8249C29.03 16.8636 29.33 17.8311 29.8475 18.6474L29.835 18.6261C29.0387 18.9999 28.1088 19.2361 27.13 19.2811H27.1138H2.4525C1.8075 19.2824 1.285 19.8036 1.2825 20.4474C1.28125 20.5174 1.28125 20.6011 1.28125 20.6849C1.28125 22.8736 1.6775 24.9699 2.4025 26.9061L2.3625 26.7836C3.06 28.8249 4.3775 30.5024 6.0875 31.6349L6.1225 31.6561C8.3025 32.7849 10.8825 33.4461 13.6163 33.4461C13.875 33.4461 14.1313 33.4399 14.3875 33.4286L14.3513 33.4299C14.3738 33.4299 14.4 33.4299 14.4263 33.4299C16.0163 33.4299 17.57 33.2786 19.0763 32.9899L18.9225 33.0149C21.1663 32.5949 23.1663 31.8411 24.9788 30.7986L24.8863 30.8474C26.4575 29.9286 27.8 28.8211 28.9425 27.5324L28.9575 27.5149C30.6138 25.5649 31.9613 23.2886 32.8888 20.8086L32.94 20.6524H33.285C33.3538 20.6549 33.4338 20.6574 33.5138 20.6574C35.0463 20.6574 36.4388 20.0561 37.4675 19.0761L37.465 19.0786C37.9362 18.6311 38.31 18.0874 38.5563 17.4774L38.5675 17.4474L38.72 16.9986L38.3488 16.7086ZM4.7375 18.5611H8.045C8.20375 18.5599 8.3325 18.4311 8.3325 18.2724V15.3286C8.3325 15.1699 8.20375 15.0399 8.045 15.0386H4.7375C4.57875 15.0399 4.45 15.1686 4.45 15.3274V18.2724C4.45 18.4311 4.57875 18.5611 4.7375 18.5611ZM9.2925 18.5611H12.5975C12.7563 18.5611 12.8863 18.4324 12.8863 18.2724V15.3286C12.8863 15.1699 12.7575 15.0399 12.5988 15.0386H9.29125C9.13125 15.0386 9.00125 15.1686 9.00125 15.3286V18.2724C9.0025 18.4324 9.1325 18.5611 9.2925 18.5611ZM13.915 18.5611H17.2225C17.3813 18.5599 17.51 18.4311 17.51 18.2724V15.3286C17.51 15.1699 17.3813 15.0399 17.2225 15.0386H13.915C13.7563 15.0399 13.6275 15.1686 13.6275 15.3274V18.2724C13.6275 18.4311 13.7563 18.5611 13.9163 18.5611H13.915ZM18.485 18.5611H21.7887C21.9487 18.5611 22.0775 18.4324 22.0788 18.2724V15.3286C22.0788 15.1686 21.9487 15.0386 21.7887 15.0386H18.485C18.3263 15.0386 18.1963 15.1674 18.1963 15.3274V18.2724C18.1963 18.4311 18.325 18.5611 18.4837 18.5611C18.4837 18.5611 18.4838 18.5611 18.485 18.5611ZM9.2925 14.3261H12.5975C12.7575 14.3249 12.8863 14.1961 12.8863 14.0361V11.0924C12.8863 10.9336 12.7575 10.8036 12.5975 10.8036H9.2925C9.1325 10.8036 9.00375 10.9324 9.0025 11.0924V14.0361C9.00375 14.1961 9.1325 14.3249 9.2925 14.3261ZM13.915 14.3261H17.2225C17.3813 14.3249 17.51 14.1949 17.51 14.0361V11.0924C17.51 10.9336 17.3813 10.8036 17.2213 10.8036H13.9175C13.7587 10.8036 13.6287 10.9324 13.6287 11.0924V14.0361C13.63 14.1961 13.7575 14.3249 13.9175 14.3261H13.915ZM18.485 14.3261H21.7887C21.9487 14.3249 22.0775 14.1961 22.0788 14.0361V11.0924C22.0775 10.9324 21.9487 10.8036 21.7887 10.8036H18.485C18.3263 10.8036 18.1963 10.9324 18.1963 11.0924V14.0361C18.1963 14.1961 18.325 14.3249 18.485 14.3261ZM18.485 10.0911H21.7887C21.9487 10.0911 22.0788 9.96113 22.0788 9.80113V6.85613C22.0775 6.69613 21.9487 6.56738 21.7887 6.56738H18.485C18.3263 6.56738 18.1963 6.69613 18.1963 6.85613V9.80113C18.1963 9.95988 18.325 10.0899 18.4837 10.0899C18.4837 10.0899 18.4838 10.0899 18.485 10.0899V10.0911ZM23.0938 18.5611H26.3988C26.5588 18.5611 26.6875 18.4324 26.6888 18.2724V15.3286C26.6888 15.1686 26.5588 15.0386 26.3988 15.0386H23.0938C22.9338 15.0386 22.805 15.1674 22.805 15.3274V18.2724C22.805 18.4311 22.9338 18.5611 23.0938 18.5611Z" fill="#F8F8F0"/>
</svg>
