<svg width="40" height="40" viewBox="0 0 40 40" fill="none" xmlns="http://www.w3.org/2000/svg">
<g clip-path="url(#clip0_83_1059)">
<path d="M20.3189 3.96499C13.1576 3.80249 6.80261 8.54124 4.92761 15.4562C4.83636 15.4762 5.01261 15.4237 4.92761 15.4562C-1.53114 19.7075 -1.60864 28.9712 4.51761 33.6925L4.52386 33.68L4.51136 33.7325C6.47136 35.21 8.85386 35.9987 11.3089 35.9912H19.9289L19.9814 36.0362H28.6339C39.7801 36.1275 44.2589 21.7 35.0276 15.4562C34.2339 12.52 32.5989 9.88374 30.3276 7.87124L30.2564 7.94249L30.2626 7.85749C27.5089 5.42874 23.9864 4.04874 20.3214 3.96374L20.3189 3.96499ZM19.7201 10.8787C21.7901 10.8075 23.9189 11.4912 25.5276 12.7925C27.5389 14.4725 28.6851 16.9725 28.6326 19.59V20.4562C34.5176 20.3387 34.5176 29.2262 28.6326 29.1087H19.9801L19.9676 29.1212V29.0562H11.3089C10.6964 29.0562 10.0914 28.9262 9.53136 28.6725C6.77761 27.4287 6.12011 23.8087 8.25511 21.6675C10.3976 19.5325 14.0101 20.19 15.2601 22.9437L20.2801 17.9237C18.6139 15.7487 16.2051 14.2587 13.5164 13.7312C13.5489 13.7187 13.5814 13.6925 13.6076 13.6987C15.1826 11.9675 17.3901 10.9512 19.7276 10.88L19.7201 10.8787Z" fill="#F8F8F0"/>
</g>
<defs>
<clipPath id="clip0_83_1059">
<rect width="40" height="40" fill="white"/>
</clipPath>
</defs>
</svg>
