<svg width="40" height="40" viewBox="0 0 40 40" fill="none" xmlns="http://www.w3.org/2000/svg">
<path fill-rule="evenodd" clip-rule="evenodd" d="M13.4349 37.5C12.5975 37.5 11.785 37.1175 11.25 36.4225L3.11495 25.9925C2.84725 25.6516 2.66007 25.2547 2.56743 24.8313C2.47478 24.4079 2.47906 23.969 2.57995 23.5475L5.49245 10.53C5.67745 9.6675 6.23745 8.9725 7.00495 8.59L18.7924 2.79C19.1674 2.595 19.5849 2.5 20.0049 2.5C20.4249 2.5 20.8425 2.595 21.2175 2.7875L32.9999 8.565C33.7699 8.9475 34.3299 9.645 34.5149 10.5075L37.4274 23.525C37.6124 24.3875 37.4274 25.275 36.8924 25.97L28.7499 36.415C28.2149 37.085 27.3999 37.5 26.5624 37.5H13.4349ZM32.7299 22.9125L32.8074 22.9325C32.9129 22.9466 33.0143 22.9825 33.1053 23.0378C33.1962 23.0931 33.2747 23.1666 33.3358 23.2538C33.3968 23.3409 33.4392 23.4398 33.4601 23.5441C33.4811 23.6485 33.4802 23.756 33.4575 23.86C33.434 23.9645 33.3888 24.0629 33.3249 24.1488C33.261 24.2348 33.1797 24.3063 33.0864 24.3589C32.9931 24.4114 32.8898 24.4438 32.7832 24.4539C32.6765 24.464 32.569 24.4516 32.4674 24.4175H32.4574L32.4499 24.415L32.4424 24.4125L32.3674 24.395L32.2425 24.37C32.0092 24.2949 31.7805 24.2064 31.5574 24.105C31.1269 23.9322 30.6807 23.8016 30.2249 23.715C30.0674 23.7098 29.914 23.7663 29.7974 23.8725C29.6886 23.8518 29.5794 23.8326 29.4699 23.815C28.7285 26.1371 27.1589 28.1054 25.0599 29.345C25.0975 29.45 25.1399 29.5525 25.1874 29.6525C25.1099 29.7891 25.0892 29.9508 25.1299 30.1025C25.3149 30.5275 25.5424 30.9325 25.8074 31.3125C25.9574 31.5075 26.0924 31.7125 26.2174 31.9225L26.2874 32.065L26.3174 32.1275C26.4009 32.2658 26.4384 32.427 26.4247 32.5879C26.4109 32.7489 26.3465 32.9014 26.2408 33.0235C26.135 33.1456 25.9933 33.2311 25.836 33.2678C25.6787 33.3044 25.5138 33.2903 25.3649 33.2275C25.2658 33.1867 25.1763 33.1256 25.1023 33.048C25.0282 32.9705 24.9712 32.8784 24.9349 32.7775C24.9267 32.7608 24.9184 32.7441 24.9099 32.7275L24.8399 32.5825C24.7524 32.3536 24.6781 32.1199 24.6174 31.8825C24.4846 31.4397 24.3088 31.011 24.0924 30.6025C23.9985 30.4754 23.8585 30.3902 23.7024 30.365C23.6772 30.321 23.6522 30.2768 23.6274 30.2325L23.5399 30.0725C21.264 30.9322 18.7516 30.9259 16.4799 30.055L16.3074 30.3675C16.1839 30.3865 16.0689 30.4422 15.9774 30.5275C15.7174 30.9525 15.5174 31.415 15.3849 31.8975C15.3253 32.1349 15.2518 32.3686 15.165 32.5975L15.1024 32.7225L15.07 32.79C15.0333 32.8901 14.9762 32.984 14.9023 33.0609C14.8284 33.1377 14.7393 33.1983 14.6407 33.2388C14.542 33.2793 14.436 33.2988 14.3294 33.2961C14.2228 33.2934 14.118 33.2684 14.0216 33.2229C13.9251 33.1774 13.8393 33.1123 13.7694 33.0318C13.6995 32.9512 13.6472 32.857 13.6158 32.7551C13.5843 32.6532 13.5745 32.5459 13.5868 32.44C13.5992 32.3341 13.6334 32.2319 13.6875 32.14L13.7225 32.065L13.7874 31.935C13.9124 31.7225 14.0475 31.52 14.1974 31.325C14.4675 30.935 14.6974 30.52 14.8899 30.085C14.9099 29.9371 14.8855 29.7866 14.82 29.6525L14.96 29.32C12.8686 28.0902 11.2999 26.1373 10.5499 23.83L10.215 23.8875C10.0856 23.7958 9.9332 23.7421 9.77495 23.7325C9.31923 23.8191 8.87298 23.9498 8.44245 24.1225C8.21745 24.2225 7.98995 24.31 7.75745 24.385L7.63245 24.4125L7.55745 24.43H7.54995L7.54495 24.435H7.53245C7.40569 24.4757 7.27055 24.4828 7.14023 24.4556C7.0099 24.4285 6.88884 24.368 6.78886 24.2801C6.68887 24.1922 6.61339 24.0799 6.56976 23.9541C6.52614 23.8284 6.51587 23.6934 6.53995 23.5625C6.57064 23.4048 6.65017 23.2608 6.76729 23.1509C6.88441 23.0409 7.03315 22.9707 7.19245 22.95L7.20245 22.9475H7.20995L7.22495 22.9425C7.28495 22.9275 7.35995 22.9075 7.41495 22.8975C7.65745 22.865 7.90245 22.845 8.14745 22.84C8.61245 22.8075 9.07245 22.7325 9.51995 22.615C9.65257 22.53 9.76447 22.4164 9.84745 22.2825L10.1674 22.19C9.81972 19.7827 10.3754 17.3319 11.7275 15.31L11.485 15.0925C11.4756 14.9342 11.4219 14.7817 11.33 14.6525C10.9776 14.3503 10.5967 14.0832 10.1925 13.855C9.97386 13.7439 9.76185 13.6204 9.55745 13.485C9.50348 13.4452 9.45095 13.4035 9.39995 13.36L9.38995 13.35C9.21573 13.2259 9.09788 13.0377 9.06226 12.8268C9.02663 12.6159 9.07616 12.3994 9.19995 12.225C9.27351 12.1357 9.36706 12.0649 9.47303 12.0185C9.579 11.972 9.69442 11.9511 9.80995 11.9575C10.0042 11.9657 10.1908 12.0358 10.3425 12.1575L10.3974 12.2C10.4374 12.2325 10.4825 12.265 10.5125 12.2925C10.6899 12.46 10.86 12.64 11.0175 12.825C11.33 13.1675 11.6749 13.48 12.0474 13.755C12.1874 13.83 12.3499 13.845 12.5024 13.8L12.7775 13.995C14.4514 12.2196 16.7251 11.1291 19.1574 10.935L19.1749 10.6125C19.294 10.5082 19.3807 10.372 19.4249 10.22C19.4418 9.75667 19.4134 9.29279 19.34 8.835C19.2911 8.59554 19.2561 8.35348 19.2349 8.11V7.9775V7.915V7.905V7.895C19.2237 7.78803 19.2351 7.67988 19.2685 7.57763C19.3019 7.47537 19.3564 7.3813 19.4286 7.30156C19.5008 7.22182 19.589 7.1582 19.6875 7.11486C19.7859 7.07151 19.8924 7.04941 20 7.05C20.107 7.05022 20.2129 7.07278 20.3108 7.11623C20.4087 7.15969 20.4964 7.22309 20.5684 7.30238C20.6404 7.38167 20.6951 7.4751 20.7289 7.57671C20.7628 7.67832 20.775 7.78588 20.7649 7.8925V8.11C20.7448 8.35344 20.7106 8.59552 20.6625 8.835C20.5884 9.2919 20.5591 9.75492 20.5749 10.2175C20.6051 10.3728 20.6948 10.5101 20.8249 10.6V10.6175L20.8424 10.9425C23.26 11.16 25.5174 12.2475 27.1924 14L27.4824 13.7925C27.6391 13.8196 27.8002 13.8023 27.9474 13.7425C28.3199 13.4675 28.6649 13.155 28.9774 12.81C29.1353 12.6229 29.304 12.4451 29.4824 12.2775L29.6099 12.1775L29.6524 12.1425C29.7888 12.0141 29.9672 11.9398 30.1544 11.9335C30.3416 11.9272 30.5246 11.9893 30.6693 12.1083C30.8139 12.2272 30.9103 12.3948 30.9403 12.5796C30.9704 12.7644 30.932 12.9539 30.8324 13.1125C30.774 13.2024 30.6973 13.279 30.6074 13.3375C30.5874 13.35 30.565 13.3675 30.545 13.3875L30.4375 13.47C30.2331 13.6054 30.0211 13.729 29.8024 13.84C29.3982 14.0691 29.0173 14.3371 28.6649 14.64C28.5622 14.7588 28.5101 14.9132 28.5199 15.07C28.4786 15.107 28.4369 15.1436 28.3949 15.18L28.25 15.3125C29.6049 17.3275 30.1724 19.77 29.8424 22.175L30.15 22.265C30.2274 22.405 30.3424 22.5175 30.4799 22.595C30.93 22.715 31.3899 22.79 31.8549 22.82C32.0974 22.8275 32.3424 22.845 32.5849 22.88L32.7299 22.9125ZM25.5424 15.1625L22.2725 17.475L22.2624 17.47C22.164 17.5426 22.0478 17.5871 21.926 17.5987C21.8043 17.6104 21.6817 17.5887 21.5713 17.5361C21.4609 17.4835 21.3669 17.4018 21.2993 17.2999C21.2317 17.198 21.193 17.0797 21.1875 16.9575L20.9599 12.96C22.6875 13.174 24.2972 13.9461 25.5424 15.1625ZM19.385 19.545H20.615L21.3799 20.4975L21.105 21.6875L20 22.215L18.8925 21.6825L18.6175 20.495L19.385 19.545ZM18.2249 13.1C18.4924 13.04 18.7649 12.9925 19.04 12.96L18.815 16.96L18.795 16.97C18.7913 17.061 18.7691 17.1502 18.7298 17.2323C18.6905 17.3144 18.6349 17.3876 18.5663 17.4475C18.4978 17.5074 18.4177 17.5527 18.3311 17.5806C18.2445 17.6086 18.1531 17.6186 18.0625 17.61C17.9407 17.5996 17.8241 17.5564 17.725 17.485L17.7199 17.4875L14.4299 15.1625C15.4774 14.1375 16.7924 13.4225 18.2249 13.1ZM13.24 16.6575L16.2425 19.335L16.24 19.3525C16.3315 19.4325 16.3996 19.5358 16.4371 19.6515C16.4746 19.7671 16.4801 19.8908 16.4529 20.0093C16.4257 20.1277 16.3669 20.2367 16.2827 20.3244C16.1986 20.4121 16.0922 20.4754 15.9749 20.5075L15.9725 20.52L12.1224 21.6275C11.931 19.8926 12.3243 18.1434 13.24 16.6575ZM17.2599 23.7725L15.7299 27.4575C14.264 26.5214 13.1479 25.1277 12.5549 23.4925L16.5 22.825L16.5075 22.8325C16.6613 22.8027 16.8207 22.8284 16.9574 22.905C17.1027 22.9861 17.2128 23.118 17.2668 23.2753C17.3208 23.4326 17.3148 23.6043 17.25 23.7575L17.2599 23.7725ZM21.775 28.5125C20.3449 28.8375 18.85 28.7625 17.46 28.2925L19.4025 24.7925C19.4601 24.6853 19.5481 24.5958 19.6525 24.5332C19.7569 24.4707 19.8763 24.4376 19.998 24.4373C20.1196 24.4371 20.2391 24.4697 20.3438 24.5318C20.4484 24.5939 20.5343 24.6831 20.5925 24.79H20.6075L22.555 28.295C22.2987 28.3803 22.0384 28.4529 21.775 28.5125ZM24.2849 27.4725L22.7399 23.75L22.7424 23.7425C22.6948 23.6307 22.6784 23.5081 22.6949 23.3878C22.7114 23.2674 22.7601 23.1537 22.836 23.0589C22.9119 22.964 23.0121 22.8915 23.1259 22.849C23.2397 22.8065 23.3629 22.7956 23.4824 22.8175L23.4899 22.8075L27.4725 23.48C26.8837 25.1284 25.762 26.5333 24.2849 27.4725ZM27.8899 21.615L24.0249 20.5025L24.0199 20.4875C23.9322 20.4632 23.8503 20.4215 23.7792 20.3647C23.708 20.308 23.6491 20.2375 23.6058 20.1574C23.5626 20.0773 23.5361 19.9893 23.5278 19.8986C23.5195 19.808 23.5295 19.7166 23.5574 19.63C23.5957 19.5137 23.6648 19.41 23.7575 19.33L23.7499 19.325L26.7374 16.6575C27.6524 18.1425 28.0549 19.8825 27.8874 21.615H27.8899Z" fill="#F8F8F0"/>
</svg>
