<svg width="40" height="40" viewBox="0 0 40 40" fill="none" xmlns="http://www.w3.org/2000/svg">
<path d="M33.099 22.3756H6.86084V20.8959C6.86084 19.9017 7.66679 19.0957 8.66094 19.0957H31.2987C32.293 19.0957 33.099 19.9017 33.099 20.8959V22.3756Z" fill="#DFDEDF"/>
<path d="M31.2708 39.5355H8.68848C7.67898 39.5355 6.8606 38.7171 6.8606 37.7076V22.3755H33.0987V37.7076C33.0987 38.7171 32.2804 39.5355 31.2708 39.5355Z" fill="white"/>
<path d="M32.773 22.0782V20.7512C32.773 19.9678 32.138 19.3327 31.3547 19.3327H8.64531C7.86191 19.3327 7.22693 19.9678 7.22693 20.7512V22.0782H32.773ZM32.773 37.8974V22.6733H7.22693V37.8974C7.22693 38.6808 7.86191 39.3158 8.64531 39.3158H31.3547C32.138 39.3158 32.773 38.6808 32.773 37.8974ZM8.77847 18.7377L8.86682 17.7731L8.49168 18.7455C8.54254 18.7416 8.5934 18.7377 8.64531 18.7377H8.77847ZM31.0658 17.1116L31.1967 18.7377H31.3547C31.4391 18.7377 31.5219 18.7446 31.6036 18.7547L31.0658 17.1116ZM32.867 19.4264C33.1779 19.7809 33.3681 20.2437 33.3681 20.7512V37.8974C33.3681 39.0077 32.4648 39.9109 31.3547 39.9109H8.64531C7.53513 39.9109 6.63184 39.0077 6.63184 37.8974V20.7512C6.63184 20.2131 6.8452 19.7249 7.19027 19.3632L9.19758 14.1604L10.0729 4.59861L11.0605 4.68895L10.2717 13.3043L10.5495 13.4115L10.1725 14.3888L9.77439 18.7377H30.2019L29.0683 4.66514L30.0567 4.58545L30.7253 12.8851L30.7257 12.885L32.867 19.4264ZM8.84139 20.3026C9.08954 20.3026 9.29069 20.5038 9.29069 20.7519C9.29069 21.0001 9.08954 21.2012 8.84139 21.2012C8.59325 21.2012 8.3921 21.0001 8.3921 20.7519C8.3921 20.5038 8.59325 20.3026 8.84139 20.3026ZM10.3775 20.3026C10.6256 20.3026 10.8268 20.5038 10.8268 20.7519C10.8268 21.0001 10.6256 21.2012 10.3775 21.2012C10.1293 21.2012 9.92818 21.0001 9.92818 20.7519C9.92818 20.5038 10.1293 20.3026 10.3775 20.3026ZM11.8652 20.3026C12.1133 20.3026 12.3145 20.5038 12.3145 20.7519C12.3145 21.0001 12.1133 21.2012 11.8652 21.2012C11.617 21.2012 11.4159 21.0001 11.4159 20.7519C11.4159 20.5038 11.617 20.3026 11.8652 20.3026Z" fill="black"/>
<path d="M10.3939 30.0522C10.4711 29.9629 10.5117 29.8455 10.5117 29.6998C10.5117 29.554 10.4711 29.4413 10.3939 29.352C10.3126 29.2627 10.1988 29.2204 10.0526 29.2204H9.3375V30.1837H10.0526C10.1988 30.1837 10.3126 30.1414 10.3939 30.0522ZM10.0526 28.6426C10.3613 28.6426 10.6052 28.7366 10.7879 28.9292C10.9708 29.1217 11.0602 29.3801 11.0602 29.6998C11.0602 30.0239 10.9708 30.2777 10.7921 30.4703C10.6092 30.663 10.3655 30.7616 10.0526 30.7616H9.3375V32.0581H8.78491V28.6426H10.0526ZM13.0337 30.7373V29.7409H13.6288V31.9905H13.0337V31.7877C12.8534 31.968 12.619 32.0581 12.3259 32.0581C12.0554 32.0581 11.8391 31.968 11.6723 31.7922C11.5055 31.6164 11.4243 31.3909 11.4243 31.1115V29.7409H12.0194V30.9852C12.0194 31.143 12.0599 31.2738 12.1456 31.3685C12.2267 31.4631 12.3349 31.5127 12.4747 31.5127C12.8489 31.5127 13.0337 31.2557 13.0337 30.7373ZM15.9503 31.3549C16.0675 31.2331 16.1261 31.0708 16.1261 30.868C16.1261 30.6652 16.0675 30.4983 15.9503 30.3766C15.8285 30.2549 15.6798 30.1918 15.4949 30.1918C15.3282 30.1918 15.1794 30.2549 15.0487 30.3811C14.9179 30.5074 14.8548 30.6696 14.8548 30.868C14.8548 31.0663 14.9179 31.2287 15.0487 31.3503C15.1794 31.4767 15.3282 31.5398 15.4949 31.5398C15.6798 31.5398 15.8285 31.4767 15.9503 31.3549ZM15.5987 29.6733C15.8917 29.6733 16.1531 29.7861 16.3741 30.0115C16.595 30.2414 16.7031 30.5254 16.7031 30.868C16.7031 31.2106 16.595 31.4946 16.3741 31.72C16.1531 31.9455 15.8962 32.0581 15.5987 32.0581C15.3056 32.0581 15.0577 31.9769 14.8548 31.8148V33.0637H14.2598V29.7409H14.8548V29.9213C15.0532 29.7545 15.3011 29.6733 15.5987 29.6733ZM18.8443 31.3549C18.9615 31.2331 19.0201 31.0708 19.0201 30.868C19.0201 30.6652 18.9615 30.4983 18.8443 30.3766C18.7226 30.2549 18.5739 30.1918 18.389 30.1918C18.2222 30.1918 18.0735 30.2549 17.9427 30.3811C17.812 30.5074 17.7488 30.6696 17.7488 30.868C17.7488 31.0663 17.812 31.2287 17.9427 31.3503C18.0735 31.4767 18.2222 31.5398 18.389 31.5398C18.5739 31.5398 18.7226 31.4767 18.8443 31.3549ZM18.4926 29.6733C18.7857 29.6733 19.0472 29.7861 19.2682 30.0115C19.4889 30.2414 19.5971 30.5254 19.5971 30.868C19.5971 31.2106 19.4889 31.4946 19.2682 31.72C19.0472 31.9455 18.7902 32.0581 18.4926 32.0581C18.1996 32.0581 17.9517 31.9769 17.7488 31.8148V33.0637H17.1538V29.7409H17.7488V29.9213C17.9472 29.7545 18.1952 29.6733 18.4926 29.6733ZM20.476 30.6065H21.5625C21.5265 30.4668 21.4588 30.3632 21.3642 30.2954C21.2695 30.2278 21.1569 30.1918 21.0305 30.1918C20.9089 30.1918 20.7917 30.2278 20.688 30.3C20.5798 30.3721 20.5076 30.4757 20.476 30.6065ZM21.0305 29.6733C21.3371 29.6733 21.6031 29.7815 21.824 29.9935C22.0449 30.2098 22.1576 30.4847 22.1712 30.8229V31.0258H20.4581C20.4896 31.1835 20.5572 31.3097 20.661 31.4045C20.7646 31.4991 20.8818 31.5486 21.0215 31.5486C21.2786 31.5486 21.4634 31.4495 21.5806 31.2512L22.1126 31.3639C22.0179 31.5939 21.8736 31.7652 21.6843 31.8824C21.4949 31.9996 21.2741 32.0581 21.0215 32.0581C20.6969 32.0581 20.4219 31.9455 20.2011 31.7246C19.9802 31.5037 19.8674 31.2152 19.8674 30.868C19.8674 30.521 19.9802 30.2324 20.2055 30.0069C20.4264 29.7861 20.7015 29.6733 21.0305 29.6733ZM23.812 31.5037C23.9247 31.5037 24.0509 31.4676 24.1862 31.3955L24.3574 31.8914C24.15 32.0041 23.9562 32.0582 23.7713 32.0582C23.4963 32.0582 23.2799 31.9815 23.1221 31.8327C22.9644 31.6841 22.8878 31.4631 22.8878 31.1611V30.2278H22.4054V29.7409H22.8878V29.0603H23.4829V29.7409H24.2177V30.2278H23.4829V31.1159C23.4829 31.373 23.5911 31.5037 23.812 31.5037ZM25.0605 30.6065H26.147C26.1109 30.4668 26.0432 30.3632 25.9486 30.2954C25.8539 30.2278 25.7413 30.1918 25.6149 30.1918C25.4934 30.1918 25.3761 30.2278 25.2724 30.3C25.1642 30.3721 25.092 30.4757 25.0605 30.6065ZM25.6149 29.6733C25.9216 29.6733 26.1876 29.7815 26.4085 29.9935C26.6294 30.2098 26.7421 30.4847 26.7556 30.8229V31.0258H25.0425C25.0741 31.1835 25.1416 31.3097 25.2454 31.4045C25.349 31.4991 25.4662 31.5486 25.606 31.5486C25.863 31.5486 26.0478 31.4495 26.165 31.2512L26.6969 31.3639C26.6023 31.5939 26.4581 31.7652 26.2687 31.8824C26.0794 31.9996 25.8585 32.0581 25.606 32.0581C25.2814 32.0581 25.0064 31.9455 24.7855 31.7246C24.5646 31.5037 24.4518 31.2152 24.4518 30.868C24.4518 30.521 24.5646 30.2324 24.79 30.0069C25.0109 29.7861 25.286 29.6733 25.6149 29.6733ZM27.7336 30.6065H28.8201C28.7841 30.4668 28.7164 30.3632 28.6218 30.2954C28.527 30.2278 28.4144 30.1918 28.2881 30.1918C28.1665 30.1918 28.0492 30.2278 27.9455 30.3C27.8373 30.3721 27.7652 30.4757 27.7336 30.6065ZM28.2881 29.6733C28.5947 29.6733 28.8607 29.7815 29.0816 29.9935C29.3025 30.2098 29.4152 30.4847 29.4288 30.8229V31.0258H27.7156C27.7472 31.1835 27.8148 31.3097 27.9186 31.4045C28.0222 31.4991 28.1394 31.5486 28.2791 31.5486C28.5361 31.5486 28.721 31.4495 28.8382 31.2512L29.3702 31.3639C29.2754 31.5939 29.1312 31.7652 28.9419 31.8824C28.7525 31.9996 28.5316 32.0581 28.2791 32.0581C27.9545 32.0581 27.6795 31.9455 27.4586 31.7246C27.2377 31.5037 27.1249 31.2152 27.1249 30.868C27.1249 30.521 27.2377 30.2324 27.4631 30.0069C27.684 29.7861 27.9591 29.6733 28.2881 29.6733ZM31.2814 29.7094C31.3491 29.7094 31.4032 29.7139 31.4393 29.7273L31.4077 30.3H31.277C30.7405 30.3 30.4744 30.6201 30.4744 31.2648V31.9905H29.8794V29.7409H30.4744V30.1512C30.6773 29.8581 30.9478 29.7094 31.2814 29.7094Z" fill="black"/>
<path d="M28.6784 13.8524L31.889 12.3024V10.7525L24.4714 7.20975L31.889 3.39033V1.89581L28.7891 0.456543L20.0062 4.82949L11.0757 0.456543L8.19727 2.00652V3.33498L15.1719 7.1544L8.19727 10.6972V12.3024L11.1864 13.8524L20.0431 9.31325L28.6784 13.8524Z" fill="#F8F8F0"/>
<path d="M29.0808 13.2203V12.5527L31.4975 11.3004V12.0503L29.0808 13.2203ZM8.39157 11.2829L10.7268 12.6234V13.1571L8.39157 11.9757V11.2829ZM20.3532 8.46366L28.3866 12.4328V13.231L20.3532 9.11556V8.46366ZM11.421 12.549L19.659 8.46449V9.11535L11.421 13.2833V12.549ZM17.2541 5.87483L8.91763 1.84998L11.0768 0.752639L20.0061 5.38167L28.7859 0.754623L31.0213 1.89958L22.8917 5.99086C22.5667 6.15441 22.5672 6.61864 22.8926 6.78146L30.9383 10.8083L28.8529 11.8889L20.0061 7.35598L11.0029 11.9815L8.94656 10.801L17.2587 6.66919C17.588 6.50554 17.5853 6.03473 17.2541 5.87483ZM8.49539 3.21363V2.4811L16.2704 6.36016L15.4844 6.67421L8.49539 3.21363ZM24.4384 6.71734C24.4277 6.71086 23.6937 6.36454 23.6937 6.36454L31.4975 2.43713V3.1729L24.4384 6.71734ZM25.2195 7.10199L32.0785 3.65802C32.1479 3.62313 32.1918 3.55201 32.1918 3.47431V1.84475C32.1918 1.76757 32.1485 1.69697 32.0799 1.66178L28.8807 0.0231349C28.8221 -0.00683898 28.7526 -0.00694342 28.6939 0.0228216L20.0983 4.3846C20.0403 4.41405 19.9718 4.41436 19.9136 4.38522L11.1665 0.0215683C11.1083 -0.00746561 11.0397 -0.0071523 10.9817 0.0222994L7.80975 1.63421C7.74071 1.6693 7.69727 1.74011 7.69727 1.8175V3.47337C7.69727 3.55159 7.74165 3.62303 7.81183 3.6577L14.6997 7.06073L7.84369 10.4649C7.77507 10.4991 7.731 10.5685 7.72964 10.6453L7.69967 12.2736C7.69821 12.3524 7.74207 12.4251 7.81236 12.4607L11.106 14.1272C11.1642 14.1565 11.2328 14.1566 11.2911 14.1274L19.9133 9.79786C19.9716 9.76851 20.0405 9.76872 20.0987 9.79828L28.6135 14.1277C28.6707 14.1567 28.7383 14.1574 28.7962 14.1295L32.0758 12.5417C32.1467 12.5073 32.1918 12.4355 32.1918 12.3567V10.6554C32.1918 10.577 32.1472 10.5054 32.0768 10.4709L25.2195 7.10199Z" fill="black"/>
</svg>
