<svg width="40" height="40" viewBox="0 0 40 40" fill="none" xmlns="http://www.w3.org/2000/svg">
<path d="M1.25488 19.9999C1.25488 30.3524 9.64738 38.7449 19.9999 38.7449C30.3524 38.7449 38.7449 30.3524 38.7449 19.9999C38.7449 9.64738 30.3524 1.25488 19.9999 1.25488C14.8236 1.25488 10.1374 3.35238 6.74488 6.74488C3.35238 10.1374 1.25488 14.8236 1.25488 19.9999ZM19.9999 16.0324C20.0099 16.0324 20.0224 16.0324 20.0349 16.0324C22.2261 16.0324 24.0024 17.8086 24.0024 19.9999C24.0024 22.1911 22.2261 23.9674 20.0349 23.9674C20.0224 23.9674 20.0111 23.9674 19.9986 23.9674H19.9999V16.0324ZM19.9999 27.3886C24.0799 27.3886 27.3886 24.0811 27.3886 19.9999C27.3886 15.9186 24.0811 12.6111 19.9999 12.6111V10.3461C25.3311 10.3461 29.6536 14.6686 29.6536 19.9999C29.6536 25.3311 25.3311 29.6536 19.9999 29.6536V27.3886ZM19.9999 35.3386V33.0586C27.2124 33.0586 33.0586 27.2124 33.0586 19.9999C33.0586 12.7874 27.2124 6.94113 19.9999 6.94113V4.66113C28.4636 4.67238 35.3199 11.5361 35.3199 19.9999C35.3199 28.4636 28.4624 35.3286 19.9999 35.3386Z" fill="#F8F8F0"/>
</svg>
