<svg width="40" height="40" viewBox="0 0 40 40" fill="none" xmlns="http://www.w3.org/2000/svg">
<path d="M23.5926 12.4186L20.7501 6.97988C20.6051 6.70863 20.3238 6.52613 20.0001 6.52613C19.6763 6.52613 19.3951 6.70738 19.2526 6.97488L19.2501 6.97988L6.76884 29.3474L23.5926 12.4186ZM33.5651 31.5024L30.0501 9.63363C29.9851 9.22738 29.6363 8.91988 29.2163 8.91988C28.9801 8.91988 28.7676 9.01613 28.6138 9.17238L6.43384 31.5036L18.7051 38.4186C19.0626 38.6224 19.4901 38.7436 19.9451 38.7436C20.4001 38.7436 20.8288 38.6236 21.1976 38.4124L21.1851 38.4186L33.5651 31.5024ZM7.33134 25.7361L11.0251 1.97613C11.0888 1.56613 11.4388 1.25488 11.8626 1.25488C12.1851 1.25488 12.4663 1.43488 12.6088 1.70113L12.6113 1.70613L16.5838 9.15863L7.33134 25.7361Z" fill="#F8F8F0"/>
</svg>
