<svg width="40" height="40" viewBox="0 0 40 40" fill="none" xmlns="http://www.w3.org/2000/svg">
<g clip-path="url(#clip0_83_1077)">
<path d="M31.2705 13.2027C31.3508 12.6823 31.4262 12.1839 31.4357 11.635C30.1248 11.4737 28.6204 11.5103 28.0264 12.3594C26.8708 14.0108 29.1277 18.0578 30.0914 19.786C30.339 20.23 30.518 20.5508 30.6003 20.7506C30.6914 20.9718 30.7909 21.1713 30.8937 21.3544C31.5567 19.9438 31.3856 18.5144 31.2189 17.1259C31.1363 16.4385 31.0506 15.7277 31.073 15.044C31.0953 14.3413 31.1845 13.7624 31.2705 13.2027ZM30.1664 12.8814C30.0599 12.9936 29.8349 13.1882 29.528 13.2308C29.4885 13.2362 29.4482 13.2391 29.4082 13.2391C28.9557 13.2391 28.5652 12.8859 28.5328 12.657C28.4956 12.3809 28.9462 12.1708 29.4113 12.106C29.5131 12.0919 29.6143 12.0847 29.7113 12.0847C30.1132 12.0847 30.3794 12.2039 30.4062 12.3956C30.4235 12.5196 30.3296 12.7102 30.1664 12.8814ZM25.5498 2.63359C26.378 2.46203 27.5105 2.30195 28.7786 2.32977C31.9915 2.40086 34.5326 3.60273 36.3319 5.90203C37.7122 7.66555 36.1927 15.6904 31.793 22.6132C31.7498 22.5581 31.7054 22.5023 31.6597 22.4452C31.6415 22.4223 31.6228 22.3989 31.6039 22.3753C32.7408 20.4978 32.5183 18.6405 32.3205 16.9935C32.2392 16.3176 32.1626 15.6791 32.1822 15.0796C32.2024 14.4437 32.2865 13.8988 32.3678 13.3716C32.4676 12.7221 32.5694 12.0501 32.5412 11.2579C32.5623 11.1748 32.5708 11.0767 32.5597 10.9601C32.4882 10.2001 31.6206 7.92656 29.8526 5.86836C28.8857 4.74281 27.4753 3.48328 25.5498 2.63359ZM13.3849 22.8298C13.5111 22.9615 13.6428 23.085 13.779 23.2016C13.2362 23.7827 12.0565 25.068 10.8009 26.5784C9.91249 27.6467 9.29889 27.4425 9.09709 27.375C7.78241 26.9364 6.25694 24.1577 4.91202 19.751C3.74827 15.9384 3.06803 12.1045 3.01436 11.0293C2.84436 7.6293 3.6685 5.25961 5.46405 3.98625C8.38592 1.91391 13.1904 3.15438 15.1208 3.78352C15.093 3.81078 15.0642 3.83641 15.0369 3.86414C11.869 7.06352 11.9441 12.5296 11.952 12.8636C11.9515 12.9924 11.9624 13.1748 11.9773 13.426C12.0317 14.3452 12.1332 16.0563 11.8622 17.9942C11.6105 19.7949 12.1654 21.5573 13.3849 22.8298ZM31.0884 23.5217C30.4607 23.7029 29.3338 24.1207 29.4365 26.2096C29.354 27.257 28.7647 32.1641 28.4656 33.8985C28.0708 36.1895 27.2275 37.0427 24.8578 37.5508C22.4002 38.0776 21.5308 36.8234 20.9573 35.3903C20.5873 34.4648 20.4058 30.2923 20.5344 25.6847C20.5362 25.6236 20.5274 25.5643 20.5104 25.5088C20.4958 25.4014 20.4732 25.2927 20.4417 25.183C20.2501 24.5124 19.7825 23.9519 19.2216 23.7193C19.0461 23.6465 18.7807 23.5369 18.4543 23.5369C18.3337 23.5369 18.2151 23.552 18.0982 23.5823C18.2031 23.1505 18.3848 22.6634 18.5817 22.1355L18.6644 21.9134C18.7574 21.6628 18.8744 21.4035 18.9979 21.1287C19.6655 19.6458 20.5798 17.6143 19.5875 13.0252C19.2158 11.3064 17.9744 10.4671 16.0931 10.662C14.965 10.7788 13.9332 11.2339 13.4184 11.4948C13.3073 11.5511 13.2054 11.6055 13.1105 11.6585C13.2525 9.92914 13.793 6.69781 15.8255 4.645C17.104 3.35352 18.8069 2.7157 20.8839 2.75C24.9709 2.81711 27.5918 4.91453 29.071 6.66234C30.3456 8.16859 31.0357 9.6857 31.3112 10.504C29.2405 10.2934 27.831 10.7023 27.1169 11.7233C25.563 13.9443 27.9668 18.2548 29.122 20.3265C29.3337 20.7063 29.5169 21.0341 29.5742 21.1738C29.9501 22.0854 30.4373 22.6941 30.7933 23.1384C30.9022 23.2747 31.0077 23.407 31.0884 23.5217ZM19.3751 25.4884C19.4205 25.6475 19.4719 25.9494 19.3043 26.1838C18.4599 27.3662 17.2976 27.9659 15.8496 27.9659C15.3734 27.9659 14.8679 27.8996 14.3465 27.7691C14.0415 27.6929 13.7672 27.5605 13.6061 27.4509C13.7405 27.3875 13.9798 27.3016 14.3948 27.2162C16.4034 26.8023 16.7135 26.5106 17.3908 25.6506C17.5462 25.4534 17.7224 25.2299 17.9664 24.9573C18.1506 24.7513 18.3148 24.6466 18.4544 24.6466C18.5522 24.6466 18.6626 24.6888 18.7968 24.7443C19.0408 24.8458 19.2787 25.1515 19.3751 25.4884ZM36.6685 24.7992C36.6769 24.7973 36.6855 24.7954 36.6937 24.7939C36.3861 25.0816 35.8601 25.4673 35.1137 25.814C34.472 26.1118 33.3987 26.3352 32.3787 26.383C31.2522 26.4354 30.6787 26.257 30.5438 26.1467C30.4808 24.8453 30.9654 24.7092 31.4781 24.5652C31.5584 24.5425 31.6373 24.5205 31.7129 24.494C31.7601 24.5321 31.8119 24.5705 31.8686 24.6077C32.774 25.2054 34.389 25.2697 36.6685 24.7992ZM17.5418 21.7476L17.6242 21.527C17.7302 21.2413 17.8545 20.9655 17.9862 20.673C18.6239 19.2559 19.4179 17.4919 18.5029 13.2597C18.3259 12.4422 17.9007 11.9672 17.2027 11.8073C15.6734 11.4569 13.5287 12.6059 13.066 13.0163C13.0703 13.1089 13.0773 13.2264 13.0851 13.3603C13.1419 14.318 13.2476 16.1007 12.9614 18.1479C12.757 19.6098 13.2034 21.0363 14.1861 22.0614C14.9591 22.868 15.9753 23.3143 17.0201 23.3174C17.1402 22.8246 17.3338 22.306 17.5418 21.7476ZM16.1019 13.1985C16.0303 13.1035 15.9136 12.9192 15.9372 12.7527C15.9706 12.5086 16.2644 12.3622 16.723 12.3622C16.8246 12.3622 16.9298 12.3698 17.0361 12.3846C17.5311 12.4534 18.0419 12.6879 17.9927 13.0398C17.9557 13.3063 17.5336 13.7016 17.0266 13.7016C16.9823 13.7016 16.9376 13.6985 16.894 13.6923C16.6008 13.6519 16.3046 13.4672 16.1019 13.1985ZM39.3111 24.0802C39.146 23.3314 38.4679 22.457 37.1002 22.457C36.8258 22.457 36.5283 22.4907 36.1908 22.5606C35.5423 22.6942 34.9637 22.7774 34.4665 22.8084C36.2081 19.8222 37.6094 16.4602 38.4222 13.314C39.1744 10.4017 39.7434 6.51156 38.1836 4.5182C35.8905 1.58789 32.537 0.0390625 28.4855 0.0390625C26.2021 0.0390625 24.3373 0.549219 23.7726 0.721875C22.8821 0.566563 21.9235 0.479531 20.9224 0.463281C20.8556 0.462188 20.7894 0.461719 20.7235 0.461719C18.922 0.461719 17.3076 0.87086 15.924 1.67789C14.6638 1.25594 12.2311 0.572656 9.69725 0.572656C6.84717 0.572656 4.60241 1.41305 3.02569 3.07078C1.27998 4.90609 0.485219 7.64555 0.663734 11.2131C0.738422 12.7091 1.60038 17.1795 2.83444 21.0613C4.741 27.0592 6.84116 29.8524 9.44342 29.8524C10.2582 29.8524 11.0314 29.5673 11.744 29.0045C12.369 29.6855 13.276 29.993 13.7748 30.1178C14.4825 30.2949 15.1802 30.3847 15.8488 30.3847C16.7423 30.3847 17.5838 30.2287 18.3536 29.9205C18.3586 30.0879 18.3632 30.2464 18.3671 30.3895C18.3762 30.7146 18.3851 31.0335 18.3971 31.3317C18.4783 33.3591 18.617 34.9366 19.029 36.049C19.0508 36.1073 19.0798 36.1965 19.1113 36.2929C19.2914 36.845 19.5635 37.6788 20.1895 38.4357C21.0147 39.4334 22.1908 39.9609 23.5899 39.9609C24.0368 39.9609 24.5155 39.907 25.013 39.8002C26.5167 39.4781 28.225 38.9859 29.4676 37.2168C30.6325 35.5581 31.1976 33.0762 31.2999 29.1693L31.345 28.7848L31.5618 28.8026C31.6991 28.8088 31.8412 28.8116 31.9843 28.8116C33.443 28.8116 35.0595 28.4988 36.1033 28.0141C36.9704 27.6113 39.7655 26.1378 39.3111 24.0802ZM35.5813 26.8204C34.6839 27.237 33.2539 27.5004 32.0142 27.5004C31.4196 27.5004 30.8698 27.4393 30.4424 27.3063C30.2401 29.1662 29.8099 32.6343 29.5594 34.0877C29.0905 36.8052 27.8795 38.038 25.0904 38.6361C24.6155 38.7376 24.1838 38.783 23.7918 38.7833C21.119 38.7836 20.2732 36.6679 19.927 35.8026C19.5041 34.7451 19.3572 31.275 19.3869 27.7533C18.4274 28.6217 17.2244 29.0759 15.8496 29.0759C15.2827 29.0759 14.6865 28.9987 14.0773 28.8462C13.9012 28.802 12.3558 28.3873 12.3765 27.3994C12.3951 26.4953 13.6853 26.2293 14.1709 26.1291C15.8783 25.7774 15.9886 25.6376 16.519 24.9641C16.6263 24.8277 16.7523 24.6683 16.906 24.4861C16.9043 24.4659 16.902 24.4461 16.9008 24.4259C16.1352 24.4054 15.3869 24.2013 14.7055 23.8356C14.2447 24.3263 12.9938 25.6766 11.6544 27.288C10.8479 28.2577 10.0728 28.5426 9.44053 28.5426C9.18272 28.5429 8.94873 28.4954 8.74577 28.4275C7.0128 27.8497 5.36561 25.0394 3.85045 20.0752C2.6992 16.3035 1.96983 12.3653 1.90584 11.0848C1.71545 7.27961 2.69741 4.58633 4.82428 3.07938C8.63241 0.381406 14.7858 2.4532 16.1281 2.95617C17.4516 2.05383 19.0494 1.61125 20.9019 1.64039C21.9113 1.65695 22.838 1.7868 23.6883 1.9982C24.0923 1.82094 26.1761 1.19055 28.6397 1.21766C32.2254 1.25578 35.1876 2.63898 37.2058 5.21797C38.5678 6.95852 37.6691 11.1958 37.219 12.9366C36.2838 16.5578 34.5501 20.4387 32.4425 23.6498C32.7614 23.8842 33.733 24.2718 36.4439 23.7121C37.357 23.5237 37.9067 23.6901 38.0774 24.2063C38.4073 25.2038 36.5891 26.3527 35.5813 26.8204Z" fill="#F8F8F0"/>
</g>
<defs>
<clipPath id="clip0_83_1077">
<rect width="40" height="40" fill="white"/>
</clipPath>
</defs>
</svg>
