<svg width="40" height="40" viewBox="0 0 40 40" fill="none" xmlns="http://www.w3.org/2000/svg">
<g clip-path="url(#clip0_83_1098)">
<path d="M36.9999 16.2317H25.1833C24.2383 16.1183 23.5183 15.2867 23.5183 14.3067V1.90667C23.5199 0.85 22.6616 0 21.6133 0H17.4783C16.4199 0 15.5699 0.858333 15.5699 1.90833V14.4383C15.5183 15.3833 14.7383 16.145 13.8016 16.2317H10.7066C9.79658 16.12 9.09325 15.3567 9.03325 14.4367V1.90833C9.03325 0.85 8.17492 0 7.12659 0H2.98992C1.93325 0 1.08325 0.858333 1.08325 1.90833V18.14V38.0917C1.08325 39.15 1.94159 40 2.98992 40H7.12492H17.4766H21.6116H37.0083C38.0666 40 38.9149 39.1417 38.9149 38.0917V18.14C38.9083 17.0817 38.0583 16.2317 36.9999 16.2317ZM31.5566 29.915C31.5566 30.9733 30.6983 31.8233 29.6499 31.8233H25.5149C24.4566 31.8233 23.6083 30.965 23.6083 29.915V26.0133C23.6083 24.955 24.4666 24.105 25.5149 24.105H29.6499C30.7083 24.105 31.5566 24.9633 31.5566 26.0133V29.915Z" fill="#F8F8F0"/>
</g>
<defs>
<clipPath id="clip0_83_1098">
<rect width="40" height="40" fill="white"/>
</clipPath>
</defs>
</svg>
