<svg width="40" height="40" viewBox="0 0 40 40" fill="none" xmlns="http://www.w3.org/2000/svg">
<g clip-path="url(#clip0_83_1073)">
<path d="M39.9914 23.8983C39.9743 24.2798 39.47 24.7069 38.4329 25.2483C36.2971 26.3598 25.2386 30.9155 22.8857 32.1355C22.0443 32.734 20.9943 33.0926 19.8629 33.0926C18.9471 33.0926 18.0871 32.8583 17.3371 32.4469L17.3643 32.4612C15.5014 31.5726 3.73714 26.8183 1.61714 25.8055C0.558571 25.3055 0.0185714 24.8726 0 24.4726V28.5155C0 28.9183 0.557143 29.3483 1.61714 29.8483C3.73714 30.8612 15.5057 35.6155 17.3643 36.504C18.0843 36.8998 18.9429 37.1326 19.8557 37.1326C20.9914 37.1326 22.0429 36.7726 22.9014 36.1598L22.8857 36.1712C25.2386 34.944 36.2971 30.3983 38.4329 29.284C39.5186 28.7183 39.9986 28.284 39.9986 27.8812C39.9986 27.4783 39.9986 23.894 39.9986 23.894L39.9914 23.8983Z" fill="#F8F8F0"/>
<path d="M39.9885 17.3071C39.97 17.6886 39.4671 18.1143 38.4314 18.6557C36.2957 19.7671 25.2371 24.3228 22.8842 25.5428C22.0414 26.1443 20.99 26.5028 19.8542 26.5028C18.9414 26.5028 18.0828 26.27 17.3357 25.8614L17.3628 25.8757C15.5 24.98 3.73568 20.2257 1.61568 19.2128C0.557107 18.7128 0.0171066 18.28 -0.00146484 17.88V21.9228C-0.00146484 22.3257 0.555678 22.7557 1.61568 23.2557C3.73568 24.2686 15.5028 29.0228 17.3628 29.9114C18.0857 30.3086 18.9457 30.5428 19.8614 30.5428C20.9943 30.5428 22.0428 30.1843 22.9014 29.5757L22.8857 29.5871C25.2385 28.36 36.2971 23.8114 38.4328 22.7C39.5185 22.1328 39.9985 21.7 39.9985 21.2943C39.9985 20.8886 39.9985 17.3071 39.9985 17.3071H39.9885Z" fill="#F8F8F0"/>
<path d="M39.9886 10.4698C40.0086 10.0626 39.4772 9.70693 38.4072 9.31265C36.3344 8.55122 25.3329 4.17551 23.2301 3.40408C22.4758 3.05836 21.5958 2.85693 20.6672 2.85693C19.6186 2.85693 18.6301 3.11408 17.7601 3.56836L17.7944 3.55122C15.3215 4.43979 3.61722 9.02979 1.53579 9.84408C0.494359 10.2541 -0.0156407 10.6326 0.00293077 11.0355V15.0784C0.00293077 15.4812 0.560074 15.9112 1.62007 16.4112C3.74007 17.4241 15.5072 22.1798 17.3672 23.0684C18.0872 23.4641 18.9458 23.6955 19.8586 23.6955C20.9944 23.6955 22.0458 23.3355 22.9058 22.7241L22.8901 22.7355C25.2429 21.5084 36.3015 16.9598 38.4372 15.8484C39.5229 15.2812 40.0029 14.8484 40.0029 14.4426C40.0029 14.0369 40.0029 10.4555 40.0029 10.4555H39.9901L39.9886 10.4698ZM14.3215 14.3041L23.5901 12.8812L20.7901 16.9869L14.3215 14.3041ZM34.8229 10.6069L28.7472 13.0069L23.2686 10.8312L29.3344 8.43265L34.8172 10.5998L34.8229 10.6069ZM18.7301 6.62836L17.8329 4.97551L20.6301 6.06836L23.2672 5.20551L22.5544 6.91408L25.2415 7.91408L21.7758 8.27408L21.0001 10.1469L19.7444 8.06551L15.7444 7.70551L18.7315 6.62836H18.7301ZM11.8344 8.95979C14.5715 8.95979 16.7872 9.81979 16.7872 10.8798C16.7872 11.9398 14.5601 12.7998 11.8344 12.7998C9.10865 12.7998 6.8715 11.9384 6.8715 10.8798C6.8715 9.82122 9.09007 8.95979 11.8344 8.95979Z" fill="#F8F8F0"/>
</g>
<defs>
<clipPath id="clip0_83_1073">
<rect width="40" height="40" fill="white"/>
</clipPath>
</defs>
</svg>
