<svg width="40" height="40" viewBox="0 0 40 40" fill="none" xmlns="http://www.w3.org/2000/svg">
<g clip-path="url(#clip0_83_1084)">
<mask id="mask0_83_1084" style="mask-type:luminance" maskUnits="userSpaceOnUse" x="0" y="0" width="177" height="40">
<path d="M0.00610352 0H176.186V39.98H0.00610352V0Z" fill="white"/>
</mask>
<g mask="url(#mask0_83_1084)">
<path fill-rule="evenodd" clip-rule="evenodd" d="M13.358 20.7202C13.179 21.2975 12.7908 21.8104 12.219 22.1383L3.75003 27.0094C2.55387 27.6944 1.03003 27.2883 0.343515 26.1034C-0.347347 24.9119 0.0592981 23.396 1.25444 22.7089L5.98748 19.9915L1.25444 17.267C0.0592981 16.5809 -0.349392 15.0648 0.343515 13.8776C1.03003 12.6897 2.55387 12.2822 3.75003 12.9673L12.219 17.8353C12.8146 18.1773 13.2125 18.7197 13.3797 19.3262C13.4359 19.5212 13.461 19.7162 13.4707 19.9123C13.4773 20.1822 13.4426 20.4557 13.358 20.7202ZM15.656 25.2824C16.9457 25.3747 17.964 26.4487 17.964 27.7555V37.4948C17.964 38.8682 16.8447 39.98 15.4707 39.98C14.09 39.98 12.9751 38.8682 12.9751 37.4948V32.0475L8.22594 34.7733C7.03514 35.4638 5.51233 35.0553 4.82045 33.8694C4.13291 32.6812 4.53955 31.1577 5.73265 30.4716L14.2083 25.6067C14.6638 25.3421 15.1691 25.2408 15.656 25.2824ZM24.3366 14.6979C23.0438 14.603 22.0276 13.5271 22.0276 12.2214V2.48082C22.0276 1.11199 23.1404 0 24.5222 0C25.9026 0 27.0178 1.11199 27.0178 2.48082V7.93149L31.7636 5.20128C32.9567 4.5152 34.4803 4.92239 35.168 6.10853C35.8543 7.30109 35.45 8.81796 34.2558 9.50404L25.7812 14.3733C25.3258 14.6345 24.8215 14.7369 24.3366 14.6979ZM5.73265 9.50404C4.53955 8.81796 4.13291 7.30109 4.82045 6.10853C5.51233 4.92239 7.03514 4.5152 8.22594 5.20128L12.9751 7.93149V2.48082C12.9751 1.11199 14.09 0 15.4707 0C16.8447 0 17.964 1.11199 17.964 2.48082V12.2214C17.964 13.5271 16.9457 14.603 15.656 14.6979C15.1691 14.7369 14.6638 14.6345 14.2083 14.3733L5.73265 9.50404ZM20.9541 24.4449C20.8532 24.5483 20.6589 24.6322 20.5114 24.6322H19.4758C19.3337 24.6322 19.1364 24.5483 19.0334 24.4449L15.5128 20.9434C15.4121 20.8444 15.3306 20.6461 15.3306 20.5067V19.4733C15.3306 19.3306 15.4121 19.1325 15.5128 19.0322L19.0334 15.5297C19.1364 15.4276 19.3337 15.3457 19.4758 15.3457H20.5114C20.6558 15.3457 20.8532 15.4276 20.9541 15.5297L24.4767 19.0322C24.5774 19.1325 24.6587 19.3306 24.6587 19.4733V20.5067C24.6587 20.6461 24.5774 20.8444 24.4767 20.9434L20.9541 24.4449ZM21.6611 19.971C21.6611 19.8294 21.5755 19.6323 21.4745 19.5276L20.4539 18.517C20.3542 18.4169 20.1559 18.3341 20.0138 18.3341H19.9737C19.8316 18.3341 19.6343 18.4169 19.5353 18.517L18.515 19.5276C18.413 19.6323 18.3348 19.8294 18.3348 19.971V20.0113C18.3348 20.1506 18.413 20.3456 18.515 20.448L19.5353 21.4607C19.6353 21.561 19.8316 21.6436 19.9737 21.6436H20.0138C20.1559 21.6436 20.3542 21.561 20.4539 21.4607L21.4745 20.448C21.5755 20.3456 21.6611 20.1506 21.6611 20.0113V19.971ZM34.2558 30.4716C35.45 31.1577 35.8543 32.6812 35.168 33.8694C34.4803 35.0553 32.9554 35.4638 31.7636 34.7733L27.0178 32.0475V37.4948C27.0178 38.8682 25.9026 39.98 24.5222 39.98C23.1404 39.98 22.0276 38.8682 22.0276 37.4948V27.7555C22.0276 26.4487 23.0438 25.3747 24.3366 25.2824C24.8215 25.2408 25.3258 25.3421 25.7812 25.6067L34.2558 30.4716ZM34.0031 19.9915L38.7361 22.7089C39.9312 23.396 40.3402 24.9119 39.6493 26.1034C38.9595 27.2883 37.4336 27.6944 36.2428 27.0094L27.7672 22.1383C27.201 21.8104 26.8095 21.2975 26.6349 20.7202C26.5523 20.4557 26.5132 20.1822 26.5232 19.9123C26.5275 19.7162 26.5567 19.5212 26.6109 19.3262C26.7801 18.7197 27.1783 18.1773 27.7672 17.8353L36.2428 12.9673C37.4336 12.2822 38.9595 12.6897 39.6493 13.8776C40.3402 15.0648 39.9312 16.5809 38.7361 17.267L34.0031 19.9915Z" fill="#F8F8F0"/>
</g>
</g>
<defs>
<clipPath id="clip0_83_1084">
<rect width="40" height="40" fill="white"/>
</clipPath>
</defs>
</svg>
