<svg width="40" height="40" viewBox="0 0 40 40" fill="none" xmlns="http://www.w3.org/2000/svg">
<g clip-path="url(#clip0_83_1080)">
<path d="M39.9149 19.9951C39.9149 28.1183 35.0555 35.1063 28.0877 38.2086L21.4714 31.5417C21.1952 31.2632 21.0402 30.8871 21.0402 30.495V27.6468C21.0402 27.2363 21.3729 26.9038 21.7831 26.9038H28.1712L29.9191 27.6655C30.2348 27.8029 30.6044 27.6766 30.7699 27.374L34.5618 20.4652C34.6822 20.2461 34.7452 20.0002 34.7452 19.7504V18.1251C34.7452 17.9395 34.6691 17.7612 34.5354 17.6329L26.873 9.98887C26.81 9.92755 26.7299 9.88298 26.6427 9.86254L19.183 8.08936C18.9499 8.034 18.7336 7.923 18.5525 7.76573L18.0812 7.35665L15.6886 5.28368C15.606 5.21214 15.4779 5.21584 15.3968 5.28936C14.473 6.12627 13.9722 6.81498 13.7306 7.72826C13.3275 9.1548 13.673 10.4198 14.2416 11.1869C14.2768 11.2351 14.3123 11.2817 14.3492 11.3243L17.2026 14.183C17.342 14.3204 17.418 14.5081 17.418 14.7051L17.42 18.0011C17.42 18.2154 17.1611 18.3227 17.0095 18.1714L12.3589 13.5207C12.2334 13.3953 12.0298 13.395 11.9041 13.5204L9.9898 15.4288C9.86375 15.5545 9.86375 15.7583 9.98952 15.8844L16.5993 22.4942C17.3604 23.2553 17.7882 24.2878 17.7882 25.3643V31.9307C17.7882 32.3707 17.9631 32.7928 18.2743 33.104L24.5647 39.3964C23.3757 39.6749 22.1462 39.8478 20.8849 39.9017L15.9194 34.9362C15.2273 34.2441 14.8383 33.3053 14.8383 32.3264V25.5315C14.8383 25.14 14.6828 24.7647 14.4063 24.4882L7.89385 17.9758C7.76837 17.8503 7.56453 17.85 7.43905 17.9758L5.51145 19.8989C5.3854 20.0246 5.3854 20.2285 5.51145 20.3542L11.1183 25.961C11.2557 26.1004 11.3337 26.2881 11.3337 26.4831V29.7708C11.3337 29.9846 11.0754 30.0919 10.9241 29.9406L3.50634 22.53C3.38994 22.4138 3.19122 22.4959 3.19094 22.6603L3.18185 26.5967C3.18128 26.8437 3.27923 27.0804 3.45382 27.2553L15.6369 39.4401C6.49825 37.397 -0.270242 29.0691 0.0996654 19.2263C0.478658 9.14543 8.52181 0.814984 18.586 0.119739C30.224 -0.684236 39.9149 8.52286 39.9149 19.9948" fill="#F8F8F0"/>
</g>
<defs>
<clipPath id="clip0_83_1080">
<rect width="40" height="39.9716" fill="white"/>
</clipPath>
</defs>
</svg>
