<svg width="271" height="74" viewBox="0 0 271 74" fill="none" xmlns="http://www.w3.org/2000/svg">
    <path d="M0.12 19L5.7 5H7.02L12.6 19H11.34L9.62 14.66H3.1L1.38 19H0.12ZM3.48 13.66H9.24L6.66 7.08C6.51333 6.76 6.41333 6.48 6.36 6.24L6.06 7.08L3.48 13.66ZM15.8388 19L11.8788 9.08H13.1388L16.4588 17.72L19.7788 9.08H21.0388L17.0788 19H15.8388ZM21.6798 14.04C21.6798 12.5467 22.1532 11.3 23.0998 10.3C24.0465 9.3 25.2065 8.8 26.5798 8.8C28.0198 8.8 29.1665 9.26 30.0198 10.18C30.8732 11.0867 31.2998 12.28 31.2998 13.76V14.14H22.8398C22.8798 15.3133 23.2398 16.3 23.9198 17.1C24.6132 17.8867 25.4998 18.28 26.5798 18.28C28.2465 18.28 29.4465 17.48 30.1798 15.88L31.0198 16.38C30.0998 18.3133 28.5998 19.28 26.5198 19.28C25.1732 19.3067 24.0198 18.8133 23.0598 17.8C22.1132 16.7733 21.6532 15.52 21.6798 14.04ZM22.8398 13.14H30.0398C30.0398 12.1133 29.6998 11.3 29.0198 10.7C28.3532 10.1 27.5398 9.8 26.5798 9.8C25.6332 9.8 24.8065 10.12 24.0998 10.76C23.4065 11.3733 22.9865 12.1667 22.8398 13.14ZM33.7075 19V9.08H34.8675V10.92C35.2275 10.2667 35.7208 9.75333 36.3475 9.38C36.9742 8.99333 37.6408 8.8 38.3475 8.8C39.3475 8.8 40.1742 9.08667 40.8275 9.66C41.4942 10.22 41.8275 11.0867 41.8275 12.26V19H40.6675V12.38C40.6675 11.5667 40.4275 10.9333 39.9475 10.48C39.4675 10.0267 38.8408 9.8 38.0675 9.8C37.2275 9.8 36.4808 10.1533 35.8275 10.86C35.1875 11.5533 34.8675 12.3933 34.8675 13.38V19H33.7075ZM44.8598 19V9.08H46.0198V19H44.8598ZM44.6998 7.2V5.6H46.1798V7.2H44.6998ZM48.2423 14.04C48.2423 12.56 48.689 11.32 49.5823 10.32C50.489 9.30667 51.6023 8.8 52.9223 8.8C53.7357 8.8 54.4623 8.99333 55.1023 9.38C55.7557 9.75333 56.2557 10.2867 56.6023 10.98V5H57.7623V19H56.6023V17.06C56.2823 17.7133 55.7957 18.2467 55.1423 18.66C54.5023 19.0733 53.789 19.28 53.0023 19.28C51.6557 19.3067 50.5157 18.8067 49.5823 17.78C48.6623 16.7533 48.2157 15.5067 48.2423 14.04ZM55.7023 17.08C56.3823 16.28 56.7223 15.2667 56.7223 14.04C56.7223 12.8133 56.3823 11.8 55.7023 11C55.0223 10.2 54.149 9.8 53.0823 9.8C52.0157 9.8 51.1423 10.2 50.4623 11C49.7823 11.7867 49.4423 12.8 49.4423 14.04C49.4423 15.28 49.7823 16.3 50.4623 17.1C51.1423 17.8867 52.0157 18.28 53.0823 18.28C54.149 18.28 55.0223 17.88 55.7023 17.08ZM60.1416 16.26C60.1416 15.3933 60.4416 14.6933 61.0416 14.16C61.6416 13.6133 62.4416 13.26 63.4416 13.1L66.9816 12.52V12.04C66.9816 11.3333 66.7549 10.7933 66.3016 10.42C65.8482 10.0333 65.2149 9.84 64.4016 9.84C63.5882 9.84 62.9416 10.02 62.4616 10.38C61.9816 10.7267 61.7416 11.1667 61.7416 11.7C61.7416 11.7667 61.7549 11.8667 61.7816 12L60.8416 12.32C60.7482 12.0933 60.7016 11.84 60.7016 11.56C60.7016 10.8 61.0549 10.1533 61.7616 9.62C62.4816 9.07333 63.3616 8.8 64.4016 8.8C65.5882 8.8 66.5082 9.08 67.1616 9.64C67.8149 10.1867 68.1416 10.9467 68.1416 11.92V16.52C68.1416 17.0933 68.1816 17.5533 68.2616 17.9C68.3416 18.2333 68.5016 18.6 68.7416 19H67.5816C67.1549 18.4667 66.9416 17.7533 66.9416 16.86C66.7149 17.54 66.2616 18.1133 65.5816 18.58C64.9149 19.0467 64.2016 19.28 63.4416 19.28C62.4549 19.28 61.6549 19 61.0416 18.44C60.4416 17.88 60.1416 17.1533 60.1416 16.26ZM66.9816 14.02V13.52L63.6416 14.08C62.9082 14.2 62.3349 14.4533 61.9216 14.84C61.5082 15.2133 61.3016 15.68 61.3016 16.24C61.3016 16.8133 61.5082 17.2867 61.9216 17.66C62.3349 18.02 62.8749 18.2 63.5416 18.2C64.5682 18.2 65.3949 17.78 66.0216 16.94C66.6616 16.0867 66.9816 15.1133 66.9816 14.02ZM76.3348 12C76.3082 9.88 76.9348 8.13333 78.2148 6.76C79.4948 5.37333 81.0615 4.69333 82.9148 4.72C84.7682 4.69333 86.3348 5.37333 87.6148 6.76C88.8948 8.13333 89.5215 9.88 89.4948 12C89.5215 14.12 88.8948 15.8733 87.6148 17.26C86.3348 18.6333 84.7682 19.3067 82.9148 19.28C81.0615 19.3067 79.4948 18.6333 78.2148 17.26C76.9348 15.8733 76.3082 14.12 76.3348 12ZM88.2948 12C88.2948 10.16 87.7882 8.66 86.7748 7.5C85.7615 6.34 84.4748 5.76 82.9148 5.76C81.3548 5.76 80.0682 6.34 79.0548 7.5C78.0415 8.66 77.5348 10.16 77.5348 12C77.5082 13.8267 78.0082 15.3333 79.0348 16.52C80.0748 17.6933 81.3682 18.2667 82.9148 18.24C84.4615 18.2667 85.7482 17.6933 86.7748 16.52C87.8148 15.3333 88.3215 13.8267 88.2948 12ZM82.3748 3.68L83.6948 0.919999H85.3748L83.3748 3.68H82.3748ZM91.5655 16.44L92.5655 15.84C92.8055 16.6133 93.1921 17.2133 93.7255 17.64C94.2588 18.0667 94.9055 18.28 95.6655 18.28C96.4121 18.28 97.0055 18.0933 97.4455 17.72C97.8988 17.3467 98.1255 16.86 98.1255 16.26C98.1255 15.7 97.9121 15.26 97.4855 14.94C97.0588 14.62 96.3788 14.38 95.4455 14.22C94.4055 14.0467 93.5921 13.72 93.0055 13.24C92.4188 12.7467 92.1255 12.1133 92.1255 11.34C92.1255 10.58 92.4388 9.96667 93.0655 9.5C93.7188 9.03333 94.5055 8.8 95.4255 8.8C97.2655 8.8 98.5188 9.59333 99.1855 11.18L98.2455 11.72C97.7388 10.44 96.8055 9.8 95.4455 9.8C94.7921 9.8 94.2521 9.94667 93.8255 10.24C93.4121 10.52 93.2055 10.9 93.2055 11.38C93.2055 11.8867 93.4321 12.2933 93.8855 12.6C94.3521 12.9067 95.0588 13.1467 96.0055 13.32C98.1921 13.7467 99.2855 14.7067 99.2855 16.2C99.2855 17.0267 98.9521 17.7467 98.2855 18.36C97.6321 18.9733 96.7588 19.28 95.6655 19.28C94.6921 19.28 93.8455 19.0267 93.1255 18.52C92.4188 18 91.8988 17.3067 91.5655 16.44ZM100.879 14.04C100.852 12.5867 101.339 11.3467 102.339 10.32C103.352 9.28 104.539 8.77333 105.899 8.8C107.899 8.8 109.306 9.64 110.119 11.32L109.259 11.86C108.512 10.5133 107.406 9.84 105.939 9.84C104.832 9.84 103.912 10.2267 103.179 11C102.446 11.7733 102.079 12.7867 102.079 14.04C102.079 15.2933 102.439 16.3067 103.159 17.08C103.892 17.8533 104.819 18.24 105.939 18.24C106.699 18.24 107.339 18.08 107.859 17.76C108.392 17.44 108.866 16.9533 109.279 16.3L110.079 16.84C109.146 18.4667 107.752 19.28 105.899 19.28C104.459 19.28 103.259 18.7867 102.299 17.8C101.352 16.8 100.879 15.5467 100.879 14.04ZM111.763 16.26C111.763 15.3933 112.063 14.6933 112.663 14.16C113.263 13.6133 114.063 13.26 115.063 13.1L118.603 12.52V12.04C118.603 11.3333 118.376 10.7933 117.923 10.42C117.469 10.0333 116.836 9.84 116.023 9.84C115.209 9.84 114.563 10.02 114.083 10.38C113.603 10.7267 113.363 11.1667 113.363 11.7C113.363 11.7667 113.376 11.8667 113.403 12L112.463 12.32C112.369 12.0933 112.323 11.84 112.323 11.56C112.323 10.8 112.676 10.1533 113.383 9.62C114.103 9.07333 114.983 8.8 116.023 8.8C117.209 8.8 118.129 9.08 118.783 9.64C119.436 10.1867 119.763 10.9467 119.763 11.92V16.52C119.763 17.0933 119.803 17.5533 119.883 17.9C119.963 18.2333 120.123 18.6 120.363 19H119.203C118.776 18.4667 118.563 17.7533 118.563 16.86C118.336 17.54 117.883 18.1133 117.203 18.58C116.536 19.0467 115.823 19.28 115.063 19.28C114.076 19.28 113.276 19 112.663 18.44C112.063 17.88 111.763 17.1533 111.763 16.26ZM118.603 14.02V13.52L115.263 14.08C114.529 14.2 113.956 14.4533 113.543 14.84C113.129 15.2133 112.923 15.68 112.923 16.24C112.923 16.8133 113.129 17.2867 113.543 17.66C113.956 18.02 114.496 18.2 115.163 18.2C116.189 18.2 117.016 17.78 117.643 16.94C118.283 16.0867 118.603 15.1133 118.603 14.02ZM122.614 19V9.08H123.774V10.96C124.014 10.3333 124.394 9.82 124.914 9.42C125.434 9.00667 126.007 8.8 126.634 8.8C126.94 8.8 127.214 8.83333 127.454 8.9L127.254 9.9C127.014 9.83333 126.767 9.8 126.514 9.8C125.794 9.8 125.154 10.18 124.594 10.94C124.047 11.7 123.774 12.58 123.774 13.58V19H122.614ZM135.061 19V5H136.421L141.741 18.08L147.061 5H148.421V19H147.261V7.1L146.541 9.02L142.421 19H141.061L136.941 9.04L136.221 7.1V19H135.061ZM152.32 17.84C151.346 16.88 150.86 15.6133 150.86 14.04C150.86 12.4667 151.346 11.2 152.32 10.24C153.306 9.28 154.513 8.8 155.94 8.8C157.366 8.8 158.566 9.28 159.54 10.24C160.526 11.2 161.02 12.4667 161.02 14.04C161.02 15.6133 160.526 16.88 159.54 17.84C158.566 18.8 157.366 19.28 155.94 19.28C154.513 19.28 153.306 18.8 152.32 17.84ZM158.74 17.08C159.486 16.2667 159.86 15.2533 159.86 14.04C159.86 12.8267 159.486 11.82 158.74 11.02C157.993 10.2067 157.06 9.8 155.94 9.8C154.82 9.8 153.886 10.2067 153.14 11.02C152.393 11.82 152.02 12.8267 152.02 14.04C152.02 15.2533 152.393 16.2667 153.14 17.08C153.886 17.88 154.82 18.28 155.94 18.28C157.06 18.28 157.993 17.88 158.74 17.08ZM163.375 19V9.08H164.535V10.92C164.895 10.2667 165.389 9.75333 166.015 9.38C166.642 8.99333 167.309 8.8 168.015 8.8C169.015 8.8 169.842 9.08667 170.495 9.66C171.162 10.22 171.495 11.0867 171.495 12.26V19H170.335V12.38C170.335 11.5667 170.095 10.9333 169.615 10.48C169.135 10.0267 168.509 9.8 167.735 9.8C166.895 9.8 166.149 10.1533 165.495 10.86C164.855 11.5533 164.535 12.3933 164.535 13.38V19H163.375ZM174.761 16.62V9.96H173.021V9.08H174.761V6.4H175.921V9.08H178.381V9.96H175.921V16.68C175.921 17.7467 176.395 18.28 177.341 18.28C177.568 18.28 177.815 18.24 178.081 18.16L178.181 19.12C177.835 19.2267 177.475 19.28 177.101 19.28C176.395 19.28 175.828 19.0533 175.401 18.6C174.975 18.1333 174.761 17.4733 174.761 16.62ZM179.551 14.04C179.551 12.5467 180.024 11.3 180.971 10.3C181.918 9.3 183.078 8.8 184.451 8.8C185.891 8.8 187.038 9.26 187.891 10.18C188.744 11.0867 189.171 12.28 189.171 13.76V14.14H180.711C180.751 15.3133 181.111 16.3 181.791 17.1C182.484 17.8867 183.371 18.28 184.451 18.28C186.118 18.28 187.318 17.48 188.051 15.88L188.891 16.38C187.971 18.3133 186.471 19.28 184.391 19.28C183.044 19.3067 181.891 18.8133 180.931 17.8C179.984 16.7733 179.524 15.52 179.551 14.04ZM180.711 13.14H187.911C187.911 12.1133 187.571 11.3 186.891 10.7C186.224 10.1 185.411 9.8 184.451 9.8C183.504 9.8 182.678 10.12 181.971 10.76C181.278 11.3733 180.858 12.1667 180.711 13.14ZM191.579 19V9.08H192.739V19H191.579ZM191.419 7.2V5.6H192.899V7.2H191.419ZM195.778 19V9.08H196.938V10.96C197.178 10.3333 197.558 9.82 198.078 9.42C198.598 9.00667 199.171 8.8 199.798 8.8C200.104 8.8 200.378 8.83333 200.618 8.9L200.418 9.9C200.178 9.83333 199.931 9.8 199.678 9.8C198.958 9.8 198.318 10.18 197.758 10.94C197.211 11.7 196.938 12.58 196.938 13.58V19H195.778ZM202.71 17.84C201.737 16.88 201.25 15.6133 201.25 14.04C201.25 12.4667 201.737 11.2 202.71 10.24C203.697 9.28 204.903 8.8 206.33 8.8C207.757 8.8 208.957 9.28 209.93 10.24C210.917 11.2 211.41 12.4667 211.41 14.04C211.41 15.6133 210.917 16.88 209.93 17.84C208.957 18.8 207.757 19.28 206.33 19.28C204.903 19.28 203.697 18.8 202.71 17.84ZM209.13 17.08C209.877 16.2667 210.25 15.2533 210.25 14.04C210.25 12.8267 209.877 11.82 209.13 11.02C208.383 10.2067 207.45 9.8 206.33 9.8C205.21 9.8 204.277 10.2067 203.53 11.02C202.783 11.82 202.41 12.8267 202.41 14.04C202.41 15.2533 202.783 16.2667 203.53 17.08C204.277 17.88 205.21 18.28 206.33 18.28C207.45 18.28 208.383 17.88 209.13 17.08ZM222.473 19V6.04H218.133V5H228.013V6.04H223.673V19H222.473ZM228.472 17.84C227.499 16.88 227.012 15.6133 227.012 14.04C227.012 12.4667 227.499 11.2 228.472 10.24C229.459 9.28 230.665 8.8 232.092 8.8C233.519 8.8 234.719 9.28 235.692 10.24C236.679 11.2 237.172 12.4667 237.172 14.04C237.172 15.6133 236.679 16.88 235.692 17.84C234.719 18.8 233.519 19.28 232.092 19.28C230.665 19.28 229.459 18.8 228.472 17.84ZM234.892 17.08C235.639 16.2667 236.012 15.2533 236.012 14.04C236.012 12.8267 235.639 11.82 234.892 11.02C234.145 10.2067 233.212 9.8 232.092 9.8C230.972 9.8 230.039 10.2067 229.292 11.02C228.545 11.82 228.172 12.8267 228.172 14.04C228.172 15.2533 228.545 16.2667 229.292 17.08C230.039 17.88 230.972 18.28 232.092 18.28C233.212 18.28 234.145 17.88 234.892 17.08ZM239.528 19V9.08H240.688V10.96C240.928 10.3333 241.308 9.82 241.828 9.42C242.348 9.00667 242.921 8.8 243.548 8.8C243.854 8.8 244.128 8.83333 244.368 8.9L244.168 9.9C243.928 9.83333 243.681 9.8 243.428 9.8C242.708 9.8 242.068 10.18 241.508 10.94C240.961 11.7 240.688 12.58 240.688 13.58V19H239.528ZM246.208 19V9.08H247.368V10.96C247.608 10.3333 247.988 9.82 248.508 9.42C249.028 9.00667 249.601 8.8 250.228 8.8C250.534 8.8 250.808 8.83333 251.048 8.9L250.848 9.9C250.608 9.83333 250.361 9.8 250.108 9.8C249.388 9.8 248.748 10.18 248.188 10.94C247.641 11.7 247.368 12.58 247.368 13.58V19H246.208ZM251.68 14.04C251.68 12.5467 252.153 11.3 253.1 10.3C254.047 9.3 255.207 8.8 256.58 8.8C258.02 8.8 259.167 9.26 260.02 10.18C260.873 11.0867 261.3 12.28 261.3 13.76V14.14H252.84C252.88 15.3133 253.24 16.3 253.92 17.1C254.613 17.8867 255.5 18.28 256.58 18.28C258.247 18.28 259.447 17.48 260.18 15.88L261.02 16.38C260.1 18.3133 258.6 19.28 256.52 19.28C255.173 19.3067 254.02 18.8133 253.06 17.8C252.113 16.7733 251.653 15.52 251.68 14.04ZM252.84 13.14H260.04C260.04 12.1133 259.7 11.3 259.02 10.7C258.353 10.1 257.54 9.8 256.58 9.8C255.633 9.8 254.807 10.12 254.1 10.76C253.407 11.3733 252.987 12.1667 252.84 13.14ZM262.679 16.44L263.679 15.84C263.919 16.6133 264.305 17.2133 264.839 17.64C265.372 18.0667 266.019 18.28 266.779 18.28C267.525 18.28 268.119 18.0933 268.559 17.72C269.012 17.3467 269.239 16.86 269.239 16.26C269.239 15.7 269.025 15.26 268.599 14.94C268.172 14.62 267.492 14.38 266.559 14.22C265.519 14.0467 264.705 13.72 264.119 13.24C263.532 12.7467 263.239 12.1133 263.239 11.34C263.239 10.58 263.552 9.96667 264.179 9.5C264.832 9.03333 265.619 8.8 266.539 8.8C268.379 8.8 269.632 9.59333 270.299 11.18L269.359 11.72C268.852 10.44 267.919 9.8 266.559 9.8C265.905 9.8 265.365 9.94667 264.939 10.24C264.525 10.52 264.319 10.9 264.319 11.38C264.319 11.8867 264.545 12.2933 264.999 12.6C265.465 12.9067 266.172 13.1467 267.119 13.32C269.305 13.7467 270.399 14.7067 270.399 16.2C270.399 17.0267 270.065 17.7467 269.399 18.36C268.745 18.9733 267.872 19.28 266.779 19.28C265.805 19.28 264.959 19.0267 264.239 18.52C263.532 18 263.012 17.3067 262.679 16.44ZM1.08 39.82C1.08 38.18 1.36 36.6467 1.92 35.22C2.36 34.1267 2.98 33.2733 3.78 32.66C4.58 32.0333 5.45333 31.72 6.4 31.72C7.58667 31.72 8.54 32.02 9.26 32.62C9.98 33.22 10.34 34 10.34 34.96C10.34 35.3067 10.28 35.6533 10.16 36L9.04 35.74C9.13333 35.5 9.18 35.2333 9.18 34.94C9.18 34.26 8.94667 33.7267 8.48 33.34C8.01333 32.9533 7.32667 32.76 6.42 32.76C5.22 32.76 4.24667 33.36 3.5 34.56C2.75333 35.76 2.34667 37.3333 2.28 39.28C2.64 38.5333 3.19333 37.94 3.94 37.5C4.68667 37.06 5.47333 36.84 6.3 36.84C7.60667 36.84 8.7 37.28 9.58 38.16C10.4733 39.04 10.92 40.1533 10.92 41.5C10.9467 42.8067 10.4933 43.94 9.56 44.9C8.62667 45.8467 7.48 46.3067 6.12 46.28C4.54667 46.28 3.31333 45.7133 2.42 44.58C1.52667 43.4333 1.08 41.8467 1.08 39.82ZM8.68 44.24C9.37333 43.56 9.72 42.6667 9.72 41.56C9.72 40.4533 9.37333 39.5667 8.68 38.9C7.98667 38.22 7.13333 37.88 6.12 37.88C5.10667 37.88 4.24 38.22 3.52 38.9C2.8 39.5667 2.44 40.4533 2.44 41.56C2.44 42.6667 2.8 43.56 3.52 44.24C4.24 44.9067 5.10667 45.24 6.12 45.24C7.13333 45.24 7.98667 44.9067 8.68 44.24ZM19.7141 46V43H12.9141V41.96L19.7141 32H20.9141V41.96H22.5141V43H20.9141V46H19.7141ZM14.1541 41.96H19.7141V33.84L14.1541 41.96ZM29.6905 40.24V39.32H36.6905V40.24H29.6905ZM47.2236 46V33.68C46.6103 34.4267 45.6303 34.8 44.2836 34.8V33.76C45.0703 33.76 45.7036 33.62 46.1836 33.34C46.6769 33.06 47.0769 32.6133 47.3836 32H48.3836V46H47.2236ZM52.1186 39.14C51.3986 38.4733 51.0386 37.5933 51.0386 36.5C51.0386 35.4067 51.3986 34.5267 52.1186 33.86C52.8386 33.1933 53.6653 32.86 54.5986 32.86C55.5319 32.86 56.3586 33.1933 57.0786 33.86C57.7986 34.5267 58.1586 35.4067 58.1586 36.5C58.1586 37.5933 57.7986 38.4733 57.0786 39.14C56.3586 39.8067 55.5319 40.14 54.5986 40.14C53.6653 40.14 52.8386 39.8067 52.1186 39.14ZM56.4586 38.5C56.9519 37.9667 57.1986 37.3 57.1986 36.5C57.1986 35.7 56.9519 35.0333 56.4586 34.5C55.9653 33.9667 55.3453 33.7 54.5986 33.7C53.8519 33.7 53.2319 33.9667 52.7386 34.5C52.2453 35.0333 51.9986 35.7 51.9986 36.5C51.9986 37.3 52.2453 37.9667 52.7386 38.5C53.2319 39.0333 53.8519 39.3 54.5986 39.3C55.3453 39.3 55.9653 39.0333 56.4586 38.5ZM66.428 46V32H74.688V33.04H67.628V38.24H74.128V39.28H67.628V44.96H74.748V46H66.428ZM76.5655 43.44L77.5655 42.84C77.8055 43.6133 78.1921 44.2133 78.7255 44.64C79.2588 45.0667 79.9055 45.28 80.6655 45.28C81.4121 45.28 82.0055 45.0933 82.4455 44.72C82.8988 44.3467 83.1255 43.86 83.1255 43.26C83.1255 42.7 82.9121 42.26 82.4855 41.94C82.0588 41.62 81.3788 41.38 80.4455 41.22C79.4055 41.0467 78.5921 40.72 78.0055 40.24C77.4188 39.7467 77.1255 39.1133 77.1255 38.34C77.1255 37.58 77.4388 36.9667 78.0655 36.5C78.7188 36.0333 79.5055 35.8 80.4255 35.8C82.2655 35.8 83.5188 36.5933 84.1855 38.18L83.2455 38.72C82.7388 37.44 81.8055 36.8 80.4455 36.8C79.7921 36.8 79.2521 36.9467 78.8255 37.24C78.4121 37.52 78.2055 37.9 78.2055 38.38C78.2055 38.8867 78.4321 39.2933 78.8855 39.6C79.3521 39.9067 80.0588 40.1467 81.0055 40.32C83.1921 40.7467 84.2855 41.7067 84.2855 43.2C84.2855 44.0267 83.9521 44.7467 83.2855 45.36C82.6321 45.9733 81.7588 46.28 80.6655 46.28C79.6921 46.28 78.8455 46.0267 78.1255 45.52C77.4188 45 76.8988 44.3067 76.5655 43.44ZM94.2391 50.08V44.2C93.5191 45.5867 92.3191 46.28 90.6391 46.28C89.2924 46.3067 88.1524 45.8067 87.2191 44.78C86.2991 43.7533 85.8524 42.5067 85.8791 41.04C85.8524 39.5733 86.2991 38.3267 87.2191 37.3C88.1524 36.2733 89.2924 35.7733 90.6391 35.8C91.4657 35.8 92.1991 35.9933 92.8391 36.38C93.4924 36.7667 93.9591 37.28 94.2391 37.92V36.08H95.3991V50.08H94.2391ZM93.3391 44.08C94.0191 43.28 94.3591 42.2667 94.3591 41.04C94.3591 39.8133 94.0191 38.8 93.3391 38C92.6591 37.2 91.7857 36.8 90.7191 36.8C89.6524 36.8 88.7791 37.2 88.0991 38C87.4191 38.7867 87.0791 39.8 87.0791 41.04C87.0791 42.28 87.4191 43.3 88.0991 44.1C88.7791 44.8867 89.6524 45.28 90.7191 45.28C91.7857 45.28 92.6591 44.88 93.3391 44.08ZM98.3364 42.72V36.08H99.4964V42.7C99.4964 43.5133 99.7297 44.1467 100.196 44.6C100.663 45.0533 101.283 45.28 102.056 45.28C102.936 45.28 103.69 44.9133 104.316 44.18C104.943 43.4467 105.256 42.5333 105.256 41.44V36.08H106.416V46H105.256V44.18C104.936 44.8067 104.463 45.3133 103.836 45.7C103.223 46.0867 102.563 46.28 101.856 46.28C100.803 46.28 99.9497 45.98 99.2964 45.38C98.6564 44.7667 98.3364 43.88 98.3364 42.72ZM108.77 41.04C108.77 39.5467 109.243 38.3 110.19 37.3C111.136 36.3 112.296 35.8 113.67 35.8C115.11 35.8 116.256 36.26 117.11 37.18C117.963 38.0867 118.39 39.28 118.39 40.76V41.14H109.93C109.97 42.3133 110.33 43.3 111.01 44.1C111.703 44.8867 112.59 45.28 113.67 45.28C115.336 45.28 116.536 44.48 117.27 42.88L118.11 43.38C117.19 45.3133 115.69 46.28 113.61 46.28C112.263 46.3067 111.11 45.8133 110.15 44.8C109.203 43.7733 108.743 42.52 108.77 41.04ZM109.93 40.14H117.13C117.13 39.1133 116.79 38.3 116.11 37.7C115.443 37.1 114.63 36.8 113.67 36.8C112.723 36.8 111.896 37.12 111.19 37.76C110.496 38.3733 110.076 39.1667 109.93 40.14ZM120.797 46V36.08H121.957V37.96C122.197 37.3333 122.577 36.82 123.097 36.42C123.617 36.0067 124.191 35.8 124.817 35.8C125.124 35.8 125.397 35.8333 125.637 35.9L125.437 36.9C125.197 36.8333 124.951 36.8 124.697 36.8C123.977 36.8 123.337 37.18 122.777 37.94C122.231 38.7 121.957 39.58 121.957 40.58V46H120.797ZM126.27 41.04C126.27 39.56 126.716 38.32 127.61 37.32C128.516 36.3067 129.63 35.8 130.95 35.8C131.763 35.8 132.49 35.9933 133.13 36.38C133.783 36.7533 134.283 37.2867 134.63 37.98V32H135.79V46H134.63V44.06C134.31 44.7133 133.823 45.2467 133.17 45.66C132.53 46.0733 131.816 46.28 131.03 46.28C129.683 46.3067 128.543 45.8067 127.61 44.78C126.69 43.7533 126.243 42.5067 126.27 41.04ZM133.73 44.08C134.41 43.28 134.75 42.2667 134.75 41.04C134.75 39.8133 134.41 38.8 133.73 38C133.05 37.2 132.176 36.8 131.11 36.8C130.043 36.8 129.17 37.2 128.49 38C127.81 38.7867 127.47 39.8 127.47 41.04C127.47 42.28 127.81 43.3 128.49 44.1C129.17 44.8867 130.043 45.28 131.11 45.28C132.176 45.28 133.05 44.88 133.73 44.08ZM139.605 44.84C138.631 43.88 138.145 42.6133 138.145 41.04C138.145 39.4667 138.631 38.2 139.605 37.24C140.591 36.28 141.798 35.8 143.225 35.8C144.651 35.8 145.851 36.28 146.825 37.24C147.811 38.2 148.305 39.4667 148.305 41.04C148.305 42.6133 147.811 43.88 146.825 44.84C145.851 45.8 144.651 46.28 143.225 46.28C141.798 46.28 140.591 45.8 139.605 44.84ZM146.025 44.08C146.771 43.2667 147.145 42.2533 147.145 41.04C147.145 39.8267 146.771 38.82 146.025 38.02C145.278 37.2067 144.345 36.8 143.225 36.8C142.105 36.8 141.171 37.2067 140.425 38.02C139.678 38.82 139.305 39.8267 139.305 41.04C139.305 42.2533 139.678 43.2667 140.425 44.08C141.171 44.88 142.105 45.28 143.225 45.28C144.345 45.28 145.278 44.88 146.025 44.08ZM4.04 73V60.68C3.42667 61.4267 2.44667 61.8 1.1 61.8V60.76C1.88667 60.76 2.52 60.62 3 60.34C3.49333 60.06 3.89333 59.6133 4.2 59H5.2V73H4.04ZM9.615 71.26C8.50833 69.9 7.955 68.1467 7.955 66C7.955 63.8533 8.50833 62.1067 9.615 60.76C10.735 59.4 12.175 58.72 13.935 58.72C15.6683 58.6933 17.1017 59.3667 18.235 60.74C19.3683 62.1133 19.9283 63.8667 19.915 66C19.9283 68.1333 19.3683 69.8867 18.235 71.26C17.1017 72.6333 15.6683 73.3067 13.935 73.28C12.175 73.28 10.735 72.6067 9.615 71.26ZM17.395 70.54C18.3017 69.4067 18.755 67.8933 18.755 66C18.755 64.1067 18.3017 62.5933 17.395 61.46C16.5017 60.3267 15.3483 59.76 13.935 59.76C12.5217 59.76 11.3617 60.3267 10.455 61.46C9.56167 62.5933 9.115 64.1067 9.115 66C9.115 67.8933 9.56167 69.4067 10.455 70.54C11.3617 71.6733 12.5217 72.24 13.935 72.24C15.3483 72.24 16.5017 71.6733 17.395 70.54ZM23.7361 71.26C22.6294 69.9 22.0761 68.1467 22.0761 66C22.0761 63.8533 22.6294 62.1067 23.7361 60.76C24.8561 59.4 26.2961 58.72 28.0561 58.72C29.7894 58.6933 31.2228 59.3667 32.3561 60.74C33.4894 62.1133 34.0494 63.8667 34.0361 66C34.0494 68.1333 33.4894 69.8867 32.3561 71.26C31.2228 72.6333 29.7894 73.3067 28.0561 73.28C26.2961 73.28 24.8561 72.6067 23.7361 71.26ZM31.5161 70.54C32.4228 69.4067 32.8761 67.8933 32.8761 66C32.8761 64.1067 32.4228 62.5933 31.5161 61.46C30.6228 60.3267 29.4694 59.76 28.0561 59.76C26.6428 59.76 25.4828 60.3267 24.5761 61.46C23.6828 62.5933 23.2361 64.1067 23.2361 66C23.2361 67.8933 23.6828 69.4067 24.5761 70.54C25.4828 71.6733 26.6428 72.24 28.0561 72.24C29.4694 72.24 30.6228 71.6733 31.5161 70.54ZM37.8572 71.26C36.7505 69.9 36.1972 68.1467 36.1972 66C36.1972 63.8533 36.7505 62.1067 37.8572 60.76C38.9772 59.4 40.4172 58.72 42.1772 58.72C43.9105 58.6933 45.3439 59.3667 46.4772 60.74C47.6105 62.1133 48.1705 63.8667 48.1572 66C48.1705 68.1333 47.6105 69.8867 46.4772 71.26C45.3439 72.6333 43.9105 73.3067 42.1772 73.28C40.4172 73.28 38.9772 72.6067 37.8572 71.26ZM45.6372 70.54C46.5439 69.4067 46.9972 67.8933 46.9972 66C46.9972 64.1067 46.5439 62.5933 45.6372 61.46C44.7439 60.3267 43.5905 59.76 42.1772 59.76C40.7639 59.76 39.6039 60.3267 38.6972 61.46C37.8039 62.5933 37.3572 64.1067 37.3572 66C37.3572 67.8933 37.8039 69.4067 38.6972 70.54C39.6039 71.6733 40.7639 72.24 42.1772 72.24C43.5905 72.24 44.7439 71.6733 45.6372 70.54ZM55.7256 67.24V66.32H62.7256V67.24H55.7256ZM70.3588 73V72.16L75.7788 66.8C76.5521 66.0267 77.0988 65.3267 77.4188 64.7C77.7521 64.0733 77.9188 63.4 77.9188 62.68C77.9188 61.7867 77.6254 61.08 77.0388 60.56C76.4654 60.0267 75.6854 59.76 74.6988 59.76C73.7921 59.76 73.0454 60.0467 72.4588 60.62C71.8721 61.18 71.5788 61.9333 71.5788 62.88C71.5788 63.1867 71.6321 63.4867 71.7388 63.78L70.6588 63.96C70.4988 63.5333 70.4188 63.12 70.4188 62.72C70.4188 61.6267 70.8188 60.6867 71.6188 59.9C72.4321 59.1133 73.4721 58.72 74.7388 58.72C76.0721 58.72 77.1254 59.08 77.8988 59.8C78.6854 60.52 79.0788 61.4533 79.0788 62.6C79.0788 63.4533 78.8921 64.2467 78.5188 64.98C78.1188 65.7533 77.4521 66.6067 76.5188 67.54L72.2588 71.8H79.1788V73H70.3588ZM81.8431 73V72.16L87.2631 66.8C88.0365 66.0267 88.5831 65.3267 88.9031 64.7C89.2365 64.0733 89.4031 63.4 89.4031 62.68C89.4031 61.7867 89.1098 61.08 88.5231 60.56C87.9498 60.0267 87.1698 59.76 86.1831 59.76C85.2765 59.76 84.5298 60.0467 83.9431 60.62C83.3565 61.18 83.0631 61.9333 83.0631 62.88C83.0631 63.1867 83.1165 63.4867 83.2231 63.78L82.1431 63.96C81.9831 63.5333 81.9031 63.12 81.9031 62.72C81.9031 61.6267 82.3031 60.6867 83.1031 59.9C83.9165 59.1133 84.9565 58.72 86.2231 58.72C87.5565 58.72 88.6098 59.08 89.3831 59.8C90.1698 60.52 90.5631 61.4533 90.5631 62.6C90.5631 63.4533 90.3765 64.2467 90.0031 64.98C89.6031 65.7533 88.9365 66.6067 88.0031 67.54L83.7431 71.8H90.6631V73H81.8431ZM93.99 71.26C92.8833 69.9 92.33 68.1467 92.33 66C92.33 63.8533 92.8833 62.1067 93.99 60.76C95.11 59.4 96.55 58.72 98.31 58.72C100.043 58.6933 101.477 59.3667 102.61 60.74C103.743 62.1133 104.303 63.8667 104.29 66C104.303 68.1333 103.743 69.8867 102.61 71.26C101.477 72.6333 100.043 73.3067 98.31 73.28C96.55 73.28 95.11 72.6067 93.99 71.26ZM101.77 70.54C102.677 69.4067 103.13 67.8933 103.13 66C103.13 64.1067 102.677 62.5933 101.77 61.46C100.877 60.3267 99.7233 59.76 98.31 59.76C96.8967 59.76 95.7367 60.3267 94.83 61.46C93.9367 62.5933 93.49 64.1067 93.49 66C93.49 67.8933 93.9367 69.4067 94.83 70.54C95.7367 71.6733 96.8967 72.24 98.31 72.24C99.7233 72.24 100.877 71.6733 101.77 70.54ZM112.658 73V59H113.858V71.96H121.018V73H112.658ZM123.493 73V63.08H124.653V73H123.493ZM123.333 61.2V59.6H124.813V61.2H123.333ZM126.858 70.44L127.858 69.84C128.098 70.6133 128.485 71.2133 129.018 71.64C129.552 72.0667 130.198 72.28 130.958 72.28C131.705 72.28 132.298 72.0933 132.738 71.72C133.192 71.3467 133.418 70.86 133.418 70.26C133.418 69.7 133.205 69.26 132.778 68.94C132.352 68.62 131.672 68.38 130.738 68.22C129.698 68.0467 128.885 67.72 128.298 67.24C127.712 66.7467 127.418 66.1133 127.418 65.34C127.418 64.58 127.732 63.9667 128.358 63.5C129.012 63.0333 129.798 62.8 130.718 62.8C132.558 62.8 133.812 63.5933 134.478 65.18L133.538 65.72C133.032 64.44 132.098 63.8 130.738 63.8C130.085 63.8 129.545 63.9467 129.118 64.24C128.705 64.52 128.498 64.9 128.498 65.38C128.498 65.8867 128.725 66.2933 129.178 66.6C129.645 66.9067 130.352 67.1467 131.298 67.32C133.485 67.7467 134.578 68.7067 134.578 70.2C134.578 71.0267 134.245 71.7467 133.578 72.36C132.925 72.9733 132.052 73.28 130.958 73.28C129.985 73.28 129.138 73.0267 128.418 72.52C127.712 72 127.192 71.3067 126.858 70.44ZM138.129 71.08V73H136.969V59H138.129V64.96C138.529 64.2933 139.063 63.7667 139.729 63.38C140.396 62.9933 141.143 62.8 141.969 62.8C143.249 62.8 144.323 63.3067 145.189 64.32C146.056 65.32 146.489 66.56 146.489 68.04C146.516 69.5067 146.063 70.7533 145.129 71.78C144.209 72.8067 143.076 73.3067 141.729 73.28C140.943 73.28 140.216 73.0667 139.549 72.64C138.883 72.2 138.409 71.68 138.129 71.08ZM144.269 71.1C144.949 70.3 145.289 69.28 145.289 68.04C145.289 66.8 144.943 65.7867 144.249 65C143.569 64.2 142.703 63.8 141.649 63.8C140.596 63.8 139.723 64.2067 139.029 65.02C138.349 65.82 138.009 66.8267 138.009 68.04C138.009 69.2667 138.349 70.28 139.029 71.08C139.709 71.88 140.583 72.28 141.649 72.28C142.716 72.28 143.589 71.8867 144.269 71.1ZM149.624 71.84C148.651 70.88 148.164 69.6133 148.164 68.04C148.164 66.4667 148.651 65.2 149.624 64.24C150.611 63.28 151.818 62.8 153.244 62.8C154.671 62.8 155.871 63.28 156.844 64.24C157.831 65.2 158.324 66.4667 158.324 68.04C158.324 69.6133 157.831 70.88 156.844 71.84C155.871 72.8 154.671 73.28 153.244 73.28C151.818 73.28 150.611 72.8 149.624 71.84ZM156.044 71.08C156.791 70.2667 157.164 69.2533 157.164 68.04C157.164 66.8267 156.791 65.82 156.044 65.02C155.298 64.2067 154.364 63.8 153.244 63.8C152.124 63.8 151.191 64.2067 150.444 65.02C149.698 65.82 149.324 66.8267 149.324 68.04C149.324 69.2533 149.698 70.2667 150.444 71.08C151.191 71.88 152.124 72.28 153.244 72.28C154.364 72.28 155.298 71.88 156.044 71.08ZM160.083 70.26C160.083 69.3933 160.383 68.6933 160.983 68.16C161.583 67.6133 162.383 67.26 163.383 67.1L166.923 66.52V66.04C166.923 65.3333 166.696 64.7933 166.243 64.42C165.79 64.0333 165.156 63.84 164.343 63.84C163.53 63.84 162.883 64.02 162.403 64.38C161.923 64.7267 161.683 65.1667 161.683 65.7C161.683 65.7667 161.696 65.8667 161.723 66L160.783 66.32C160.69 66.0933 160.643 65.84 160.643 65.56C160.643 64.8 160.996 64.1533 161.703 63.62C162.423 63.0733 163.303 62.8 164.343 62.8C165.53 62.8 166.45 63.08 167.103 63.64C167.756 64.1867 168.083 64.9467 168.083 65.92V70.52C168.083 71.0933 168.123 71.5533 168.203 71.9C168.283 72.2333 168.443 72.6 168.683 73H167.523C167.096 72.4667 166.883 71.7533 166.883 70.86C166.656 71.54 166.203 72.1133 165.523 72.58C164.856 73.0467 164.143 73.28 163.383 73.28C162.396 73.28 161.596 73 160.983 72.44C160.383 71.88 160.083 71.1533 160.083 70.26ZM166.923 68.02V67.52L163.583 68.08C162.85 68.2 162.276 68.4533 161.863 68.84C161.45 69.2133 161.243 69.68 161.243 70.24C161.243 70.8133 161.45 71.2867 161.863 71.66C162.276 72.02 162.816 72.2 163.483 72.2C164.51 72.2 165.336 71.78 165.963 70.94C166.603 70.0867 166.923 69.1133 166.923 68.02Z" fill="white"/>
</svg>