<svg width="184" height="84" viewBox="0 0 184 84" fill="none" xmlns="http://www.w3.org/2000/svg">
<path d="M51.96 73.1032C51.96 74.6753 52.6389 76.1045 53.9966 77.3908C55.3543 78.6771 56.0332 79.6061 56.0332 80.1778V80.4993C56.0332 81.4998 55.4258 82 54.211 82H43.0632C41.7769 82 41.0623 81.3211 40.9194 79.9634L40.5979 76.2117C37.0248 80.7852 32.0226 83.0719 25.5912 83.0719C18.7311 83.0719 12.8356 80.6065 7.9049 75.6758C3.04562 70.745 0.615976 64.2422 0.615976 56.1672C0.615976 48.3781 3.00989 41.9824 7.79771 36.9802C12.657 31.978 18.6596 29.4769 25.8056 29.4769C31.3795 29.4769 36.0601 31.2991 39.8475 34.9436V14.7919C39.8475 13.4341 39.4188 12.3265 38.5612 11.469C37.7752 10.6115 36.9534 9.93259 36.0959 9.43236C35.3098 8.86068 34.9168 8.25327 34.9168 7.61014V7.39575C34.9168 6.46677 35.5599 5.75217 36.8462 5.25196L48.2083 1.60749C50.7094 0.749974 51.96 1.39311 51.96 3.53691V73.1032ZM28.4854 78.9987C31.4152 78.9987 34.0235 77.7839 36.3102 75.3542C38.6684 72.9246 39.8475 69.5302 39.8475 65.1712V48.0208C39.8475 44.4478 38.4898 41.1606 35.7743 38.1593C33.0588 35.0865 29.8788 33.5501 26.2344 33.5501C22.2326 33.5501 19.0169 35.1937 16.5873 38.4809C14.1576 41.6966 12.9071 46.1271 12.8356 51.7724C12.6927 59.2757 14.0505 65.6714 16.9089 70.9594C19.8387 76.2475 23.6976 78.9272 28.4854 78.9987ZM73.3117 21.652C70.6677 21.652 68.5239 20.9017 66.8803 19.401C65.2368 17.9004 64.415 15.971 64.415 13.6128C64.415 11.2546 65.2368 9.32518 66.8803 7.82451C68.5239 6.32385 70.6677 5.57352 73.3117 5.57352C75.8843 5.57352 77.9566 6.32385 79.5288 7.82451C81.1723 9.32518 81.9941 11.2546 81.9941 13.6128C81.9941 15.971 81.1723 17.9004 79.5288 19.401C77.9566 20.9017 75.8843 21.652 73.3117 21.652ZM65.3797 82C63.879 82 63.1287 81.464 63.1287 80.3921V79.9634C63.1287 79.3202 63.7718 78.3913 65.0581 77.1764C66.4158 75.9616 67.0947 74.5682 67.0947 72.996V44.9123C67.0947 43.2687 66.4158 41.7323 65.0581 40.3031C63.7718 38.8739 63.1287 37.9449 63.1287 37.5161V37.1946C63.1287 36.6229 63.7718 35.9798 65.0581 35.2652L75.7771 29.9057C76.9919 29.4054 77.9209 29.3697 78.564 29.7985C79.2786 30.1558 79.6359 30.7989 79.6359 31.7279V72.996C79.6359 74.5682 80.3505 75.9616 81.7797 77.1764C83.2804 78.3913 84.0307 79.3202 84.0307 79.9634V80.3921C84.0307 81.464 83.2447 82 81.6726 82H65.3797ZM117.115 3.21535C121.188 3.21535 124.725 4.35871 127.727 6.64543C130.728 8.93215 132.229 11.6476 132.229 14.7919C132.229 15.9352 131.764 17.0071 130.835 18.0076C129.978 18.9365 128.798 19.401 127.298 19.401C124.94 19.401 123.225 18.7936 122.153 17.5788C121.081 16.2925 120.509 14.8991 120.438 13.3984C120.366 11.8263 119.902 10.3971 119.044 9.1108C118.187 7.82452 116.757 7.18138 114.757 7.18138C111.326 7.10991 109.29 9.50382 108.647 14.3631C108.004 19.2224 108.504 24.6176 110.147 30.5488H124.296C124.797 30.5488 125.225 30.7274 125.583 31.0847C125.94 31.442 126.119 31.8708 126.119 32.371V34.0861C126.119 35.2294 125.511 35.8011 124.296 35.8011H110.576V72.996C110.576 74.5682 111.434 75.9974 113.149 77.2836C114.864 78.4985 115.721 79.4274 115.721 80.0706V80.4993C115.721 81.4998 115.114 82 113.899 82H95.7839C94.4977 82 93.8545 81.4998 93.8545 80.4993V80.0706C93.8545 79.4274 94.5334 78.4985 95.8911 77.2836C97.3203 75.9974 98.0349 74.5682 98.0349 72.996V35.8011H89.7813C88.495 35.8011 87.8519 35.2294 87.8519 34.0861V32.371C87.8519 31.8708 88.0305 31.442 88.3878 31.0847C88.8166 30.7274 89.2811 30.5488 89.7813 30.5488H98.0349V22.5095C98.0349 16.7927 99.6785 12.1478 102.966 8.57484C106.253 5.00185 110.969 3.21535 117.115 3.21535ZM156.474 3.21535C160.547 3.21535 164.084 4.35871 167.085 6.64543C170.087 8.93215 171.587 11.6476 171.587 14.7919C171.587 15.9352 171.123 17.0071 170.194 18.0076C169.336 18.9365 168.157 19.401 166.657 19.401C164.298 19.401 162.583 18.7936 161.512 17.5788C160.44 16.2925 159.868 14.8991 159.796 13.3984C159.725 11.8263 159.261 10.3971 158.403 9.1108C157.545 7.82452 156.116 7.18138 154.115 7.18138C150.685 7.10991 148.649 9.50382 148.006 14.3631C147.362 19.2224 147.863 24.6176 149.506 30.5488H163.655C164.156 30.5488 164.584 30.7274 164.942 31.0847C165.299 31.442 165.478 31.8708 165.478 32.371V34.0861C165.478 35.2294 164.87 35.8011 163.655 35.8011H149.935V72.996C149.935 74.5682 150.793 75.9974 152.508 77.2836C154.223 78.4985 155.08 79.4274 155.08 80.0706V80.4993C155.08 81.4998 154.473 82 153.258 82H135.143C133.856 82 133.213 81.4998 133.213 80.4993V80.0706C133.213 79.4274 133.892 78.4985 135.25 77.2836C136.679 75.9974 137.394 74.5682 137.394 72.996V35.8011H129.14C127.854 35.8011 127.211 35.2294 127.211 34.0861V32.371C127.211 31.8708 127.389 31.442 127.747 31.0847C128.175 30.7274 128.64 30.5488 129.14 30.5488H137.394V22.5095C137.394 16.7927 139.037 12.1478 142.325 8.57484C145.612 5.00185 150.328 3.21535 156.474 3.21535ZM174.816 83.0719C172.387 83.0719 170.386 82.4288 168.814 81.1425C167.242 79.7847 166.456 77.891 166.456 75.4614C166.456 72.9603 167.242 71.0666 168.814 69.7803C170.386 68.4226 172.387 67.7437 174.816 67.7437C177.175 67.7437 179.14 68.4226 180.712 69.7803C182.284 71.0666 183.07 72.9603 183.07 75.4614C183.07 77.891 182.284 79.7847 180.712 81.1425C179.14 82.4288 177.175 83.0719 174.816 83.0719Z" fill="#F8F8F0"/>
</svg>
