<svg width="20" height="20" viewBox="0 0 20 20" fill="none" xmlns="http://www.w3.org/2000/svg">
  <g clipPath="url(#clip0_88_711)">
  <path d="M10.1619 8.42503C10.46 8.42505 10.7514 8.51604 10.9995 8.68655C11.2476 8.85705 11.4412 9.09946 11.556 9.38323C11.6708 9.66701 11.7016 9.97948 11.6446 10.2813C11.5876 10.5831 11.4454 10.8608 11.2357 11.0794C11.026 11.298 10.7584 11.4477 10.4664 11.5097C10.1744 11.5717 9.87122 11.5432 9.59491 11.4278C9.31861 11.3124 9.08157 11.1153 8.91365 10.8612C8.74573 10.6071 8.65443 10.3075 8.65124 10C8.65018 9.7943 8.68841 9.59036 8.76375 9.39986C8.83909 9.20936 8.95007 9.03604 9.09035 8.88979C9.23063 8.74353 9.39747 8.62722 9.58133 8.54747C9.76518 8.46773 9.96247 8.42613 10.1619 8.42503ZM6.42158 16.6667C6.93052 16.9834 8.03727 16.5 9.32983 15.25C8.89782 14.7436 8.49069 14.2152 8.10998 13.6667C7.45839 13.5914 6.81118 13.4802 6.17114 13.3334C5.75914 15.1167 5.91263 16.3417 6.42158 16.6667ZM6.99515 11.8834L6.76087 11.4584C6.66955 11.6924 6.59133 11.9317 6.5266 12.175C6.74472 12.225 6.98707 12.2667 7.2375 12.3084L6.99515 11.8834ZM12.2785 11.25L12.9328 10L12.2785 8.75003C12.0361 8.30837 11.7776 7.9167 11.5433 7.52503C11.1071 7.50003 10.6466 7.50003 10.1619 7.50003C9.67721 7.50003 9.21673 7.50003 8.7805 7.50003C8.54622 7.8917 8.28771 8.28337 8.04535 8.72503L7.39099 10L8.04535 11.25C8.28771 11.6917 8.54622 12.0834 8.7805 12.475C9.21673 12.475 9.67721 12.475 10.1619 12.475C10.6466 12.475 11.1071 12.475 11.5433 12.475C11.7776 12.0834 12.0361 11.6917 12.2785 11.25ZM10.1619 5.65003C10.0084 5.83337 9.84686 6.02503 9.68529 6.25003H10.6385C10.477 6.02503 10.3154 5.83337 10.1619 5.65003ZM10.1619 14.35C10.3154 14.1667 10.477 13.975 10.6385 13.75H9.68529C9.84686 13.975 10.0084 14.1667 10.1619 14.35ZM13.8942 3.33337C13.3933 3.0167 12.2785 3.50003 10.994 4.75003C11.426 5.25645 11.8331 5.78489 12.2139 6.33337C12.8649 6.39763 13.5121 6.49778 14.1527 6.63337C14.5647 4.85003 14.4112 3.62503 13.8942 3.30003M13.3287 8.08337L13.563 8.50837C13.6543 8.2743 13.7325 8.03502 13.7972 7.7917C13.5791 7.7417 13.3368 7.70003 13.0863 7.65837L13.3287 8.08337ZM14.5001 2.25003C15.6876 2.95003 15.8169 4.7917 15.3079 6.9417C17.3599 7.5667 18.8382 8.60837 18.8382 10.0084C18.8382 11.4084 17.3599 12.45 15.3079 13.075C15.8088 15.225 15.6795 17.0667 14.5001 17.7667C13.3206 18.4667 11.713 17.6667 10.1619 16.1417C8.61085 17.6667 7.00323 18.4667 5.81569 17.7667C4.62815 17.0667 4.50697 15.2667 5.00784 13.075C2.9559 12.45 1.47754 11.4084 1.47754 10.0084C1.47754 8.60837 2.9559 7.55837 5.00784 6.93337C4.50697 4.78337 4.63623 2.9417 5.81569 2.2417C6.99515 1.5417 8.61085 2.3417 10.1619 3.8667C11.713 2.3417 13.3206 1.5417 14.5001 2.2417M14.2658 10C14.5464 10.6135 14.7945 11.2422 15.009 11.8834C16.7055 11.3584 17.6588 10.6084 17.6588 10C17.6588 9.3917 16.6813 8.6417 15.009 8.1167C14.7945 8.75788 14.5464 9.38658 14.2658 10ZM6.05804 10C5.77748 9.38658 5.52937 8.75788 5.31482 8.1167C3.61834 8.6417 2.66508 9.3917 2.66508 10C2.66508 10.6084 3.64257 11.3584 5.31482 11.8834C5.52937 11.2422 5.77748 10.6135 6.05804 10ZM13.3287 11.8834L13.0863 12.3084C13.3368 12.3084 13.5791 12.225 13.7972 12.175C13.7325 11.9317 13.6543 11.6924 13.563 11.4584L13.3287 11.8834ZM10.9698 15.25C12.2542 16.5 13.3933 16.9834 13.8699 16.6667C14.3466 16.35 14.5405 15.15 14.1285 13.3334C13.4878 13.469 12.8406 13.5691 12.1896 13.6334C11.8098 14.1932 11.4027 14.7328 10.9698 15.25ZM6.99515 8.1167L7.2375 7.6917C6.98707 7.6917 6.74472 7.77503 6.5266 7.82503C6.59133 8.06835 6.66955 8.30763 6.76087 8.5417L6.99515 8.1167ZM9.35407 4.75003C8.04535 3.50003 6.93052 3.0167 6.42158 3.33337C5.91263 3.65003 5.75914 4.85003 6.17114 6.6667C6.81177 6.53111 7.45898 6.43097 8.10998 6.3667C8.49767 5.80628 8.91291 5.26668 9.35407 4.75003Z" fill="#F8F8F0"/>
  </g>
  <defs>
  <clipPath id="clip0_88_711">
  <rect width="19.3884" height="20" fill="white" transform="translate(0.467773)"/>
  </clipPath>
  </defs>
</svg>