<svg width="21" height="20" viewBox="0 0 21 20" fill="none" xmlns="http://www.w3.org/2000/svg">
  <path d="M3.27075 2.5H17.812V17.5H3.27075V2.5ZM11.9228 14.8833C12.16 15.3462 12.5218 15.7285 12.9646 15.9843C13.4075 16.2401 13.9126 16.3584 14.4191 16.325C15.7116 16.325 16.681 15.6333 16.681 14.3583C16.681 13.0833 16.0267 12.6917 14.8634 12.1417L14.5241 11.9917C13.9344 11.7333 13.7162 11.5583 13.7162 11.1583C13.717 11.0729 13.7349 10.9886 13.7689 10.9107C13.803 10.8328 13.8523 10.763 13.9138 10.7058C13.9753 10.6486 14.0477 10.6052 14.1263 10.5784C14.205 10.5516 14.2881 10.5419 14.3706 10.55C14.5597 10.5479 14.7451 10.6049 14.9022 10.7134C15.0594 10.822 15.181 10.9771 15.2512 11.1583L16.3094 10.4333C16.1262 10.0737 15.8451 9.77718 15.5006 9.58026C15.1561 9.38334 14.7633 9.29461 14.3706 9.325C14.1184 9.29954 13.8637 9.32853 13.623 9.41013C13.3822 9.49173 13.1605 9.62414 12.9721 9.79895C12.7836 9.97375 12.6325 10.1871 12.5283 10.4255C12.4242 10.6638 12.3693 10.9219 12.3671 11.1833C12.3671 12.3333 13.0215 12.85 13.9828 13.3083L14.3221 13.4583C14.9523 13.7417 15.3239 13.9167 15.3239 14.4C15.3239 14.8833 14.9603 15.0917 14.3948 15.0917C14.1167 15.0978 13.8426 15.0228 13.604 14.8754C13.3653 14.728 13.1718 14.5141 13.0457 14.2583L11.9309 14.925M11.3492 9.375H7.31V10.625H8.52177V16.6667H9.93551V10.625H11.3492V9.375Z" fill="#F8F8F0"/>
</svg>
