<svg width="40" height="40" viewBox="0 0 40 40" fill="none" xmlns="http://www.w3.org/2000/svg">
<g clip-path="url(#clip0_83_978)">
<path d="M39.7274 31.9394C40.045 32.9238 39.9688 33.9721 39.5452 34.8836C39.2402 35.549 38.804 36.064 38.2703 36.5243C37.6265 37.0712 36.8259 37.5361 35.8602 37.9827C34.7082 38.5114 33.3019 39.0082 32.6581 39.1905C31.0104 39.6508 29.4263 39.9425 27.821 39.9562C25.5253 39.9789 23.5472 39.3956 22.141 37.9052C21.4125 38.0009 20.6754 38.0556 19.9342 38.0556C19.2311 38.0556 18.5365 38.0101 17.8461 37.919C16.4356 39.4002 14.466 39.9789 12.1787 39.9562C10.5734 39.9425 8.98928 39.6508 7.33742 39.1905C6.69783 39.0082 5.2916 38.5114 4.13951 37.9827C3.17378 37.5361 2.37325 37.0712 1.73366 36.5243C1.19574 36.064 0.759467 35.549 0.454502 34.8836C0.0351729 33.9721 -0.0453042 32.9238 0.276604 31.9394C-0.0198904 31.1874 -0.0961319 30.326 0.136828 29.3735C0.242719 28.9406 0.416381 28.5394 0.636634 28.1839C0.590042 27.9971 0.551921 27.8057 0.526507 27.596C0.365553 26.3473 0.767938 25.2079 1.52612 24.3237C1.89886 23.8816 2.30124 23.5762 2.72057 23.3803C2.41137 21.9674 2.25042 20.5136 2.25042 19.0278C2.25042 8.51809 10.1668 0 19.9342 0C23.2889 0 26.4274 1.00266 29.1044 2.75277C29.5872 3.0718 30.0616 3.41362 30.5149 3.77822C30.7394 3.96053 30.9638 4.14739 31.1798 4.34336C31.4001 4.53477 31.6161 4.73531 31.8237 4.9404C32.4506 5.55567 33.0393 6.21652 33.5772 6.92294C33.7594 7.15538 33.933 7.39692 34.1024 7.64303C34.4455 8.1307 34.7632 8.63659 35.0554 9.16069C35.5002 9.94462 35.8898 10.7649 36.2287 11.6172C36.4532 12.187 36.6481 12.7703 36.8217 13.3673C37.0801 14.2606 37.2792 15.1813 37.4147 16.1292C37.457 16.4437 37.4952 16.7627 37.5248 17.0817C37.5842 17.7198 37.618 18.367 37.618 19.0278C37.618 20.4954 37.457 21.9355 37.1563 23.3256C37.6222 23.5216 38.0627 23.8406 38.4736 24.3237C39.2318 25.2079 39.6342 26.3518 39.4732 27.6006C39.4478 27.8057 39.4097 27.9971 39.3631 28.1839C39.5834 28.5394 39.757 28.9406 39.8629 29.3735C40.0958 30.326 40.0196 31.1874 39.7274 31.9394Z" fill="white"/>
<path d="M34.7072 19.1578C34.7072 10.4397 28.1226 3.37222 20.0001 3.37222C11.8776 3.37222 5.293 10.4397 5.293 19.1578C5.293 27.8759 11.8776 34.9433 20.0001 34.9433C28.1226 34.9433 34.7072 27.8759 34.7072 19.1578ZM3.6001 19.1578C3.6001 9.43613 10.9427 1.55518 20.0001 1.55518C29.0575 1.55518 36.4001 9.43613 36.4001 19.1578C36.4001 28.8794 29.0575 36.7604 20.0001 36.7604C10.9427 36.7604 3.6001 28.8794 3.6001 19.1578Z" fill="black"/>
<path d="M20.0002 35.0322C28.174 35.0322 34.8002 27.9248 34.8002 19.1574C34.8002 10.3901 28.174 3.28271 20.0002 3.28271C11.8264 3.28271 5.2002 10.3901 5.2002 19.1574C5.2002 27.9248 11.8264 35.0322 20.0002 35.0322Z" fill="white"/>
<path d="M16.1757 34.9178C17.343 33.0987 17.2603 31.7335 15.6587 30.0325C14.0571 28.3319 13.1249 25.844 13.1249 25.844C13.1249 25.844 12.7766 24.399 11.9834 24.5319C11.1903 24.6649 10.6079 26.8243 12.2693 28.1453C13.9307 29.4659 11.9385 30.3633 11.2993 29.1229C10.6601 27.8825 8.9147 24.6937 8.00958 24.0839C7.10484 23.474 6.46776 23.8157 6.68111 25.0728C6.89446 26.3299 10.6783 29.3767 10.3101 30.036C9.94198 30.695 8.64454 29.2613 8.64454 29.2613C8.64454 29.2613 4.58453 25.3351 3.7006 26.3582C2.81667 27.3813 4.37118 28.2386 6.58652 29.6638C8.8023 31.0885 8.97406 31.4648 8.65974 32.0039C8.34502 32.5429 3.45459 28.1616 2.99524 30.0189C2.5363 31.8763 7.98623 32.4154 7.64988 33.6976C7.31352 34.9804 3.81088 31.2706 3.09448 32.716C2.37767 34.1619 8.0371 35.8607 8.08294 35.8733C9.91102 36.3772 14.5538 37.4449 16.1757 34.9178Z" fill="white"/>
<path d="M7.27934 22.0303C6.59782 22.0303 5.98869 22.3307 5.56394 22.8755C5.30126 23.213 5.0268 23.7569 5.00449 24.5714C4.71866 24.4833 4.44378 24.4341 4.18699 24.4341C3.5345 24.4341 2.94517 24.7024 2.52842 25.1899C1.99296 25.8156 1.75512 26.5845 1.85867 27.3538C1.90793 27.7202 2.02201 28.0487 2.1925 28.3527C1.833 28.6648 1.56822 29.0995 1.44024 29.6222C1.34006 30.0319 1.23734 30.8853 1.77364 31.7644C1.73954 31.8218 1.70755 31.8814 1.67766 31.9424C1.35521 32.5993 1.33458 33.3415 1.61915 34.0327C2.05063 35.0803 3.12281 35.9057 5.20486 36.7917C6.50015 37.3428 7.68515 37.6952 7.69567 37.6983C9.4081 38.1749 10.9568 38.4171 12.2975 38.4171C14.7619 38.4171 16.5261 37.607 17.5415 36.0096C19.1756 33.4373 18.9419 31.0845 16.8275 28.8166C15.6572 27.5617 14.8793 25.7112 14.7172 25.3051C14.3906 24.1025 13.5267 22.7657 12.0909 22.7657H12.0905C11.9696 22.7657 11.8475 22.7761 11.7272 22.7965C11.0983 22.9026 10.5485 23.2912 10.1558 23.8757C9.73186 23.3101 9.32018 22.8602 8.94762 22.6063C8.38602 22.2241 7.8249 22.0303 7.27934 22.0303ZM7.27934 23.8374C7.49403 23.8374 7.75629 23.9353 8.04546 24.1323C8.94338 24.7435 10.676 27.9398 11.3104 29.183C11.523 29.5995 11.8863 29.7758 12.2134 29.7758C12.8625 29.7758 13.3693 29.0832 12.2727 28.2031C10.6239 26.879 11.2023 24.7147 11.9895 24.5814C12.0239 24.5755 12.058 24.5728 12.0909 24.5728C12.8065 24.5728 13.1223 25.8965 13.1223 25.8965C13.1223 25.8965 14.0475 28.3902 15.6371 30.0947C17.2266 31.7996 17.3087 33.168 16.1502 34.9913C15.36 36.2346 13.8475 36.3968 12.2975 36.3968C10.6899 36.3968 9.03906 36.0926 8.11546 35.8355C8.07002 35.8229 2.45602 34.2337 3.16743 32.7845C3.28698 32.5409 3.48399 32.4434 3.73194 32.4434C4.73382 32.4434 6.55614 34.0436 7.33954 34.0436C7.51466 34.0436 7.64516 33.8982 7.69567 33.703C8.04426 32.3561 2.61303 31.9428 3.06893 30.0812C3.14933 29.7518 3.36738 29.6181 3.67385 29.6185C4.99776 29.6185 7.96803 32.1172 8.59066 32.1172C8.63818 32.1172 8.67226 32.1023 8.69082 32.0707C9.00274 31.5304 8.85906 31.0905 6.66042 29.6625C4.46177 28.234 2.89129 27.4374 3.76898 26.412C3.87001 26.2935 4.01314 26.2412 4.18699 26.2412C5.52185 26.2416 8.67562 29.3217 8.67562 29.3217C8.67562 29.3217 9.52682 30.2717 10.0417 30.2717C10.1599 30.2717 10.2606 30.2216 10.3287 30.0978C10.6937 29.4374 6.93879 26.3834 6.72705 25.1235C6.5835 24.2697 6.82766 23.8374 7.27934 23.8374Z" fill="black"/>
<path d="M23.752 34.9178C22.5848 33.0987 22.6674 31.7335 24.269 30.0325C25.8706 28.3319 26.8029 25.844 26.8029 25.844C26.8029 25.844 27.1512 24.399 27.9443 24.5319C28.7375 24.6649 29.3198 26.8243 27.6584 28.1453C25.997 29.4659 27.9892 30.3633 28.6284 29.1229C29.2676 27.8825 31.013 24.6937 31.9182 24.0839C32.8229 23.474 33.46 23.8157 33.2466 25.0728C33.0332 26.3299 29.2494 29.3767 29.6176 30.036C29.9857 30.695 31.2832 29.2613 31.2832 29.2613C31.2832 29.2613 35.3432 25.3351 36.2272 26.3582C37.1111 27.3813 35.5565 28.2386 33.3412 29.6638C31.1254 31.0885 30.9536 31.4648 31.268 32.0039C31.5827 32.5429 36.4732 28.1616 36.9325 30.0189C37.3914 31.8763 31.9415 32.4154 32.2779 33.6976C32.6142 34.9804 36.1168 31.2706 36.8332 32.716C37.55 34.1619 31.8906 35.8607 31.8448 35.8733C30.0167 36.3772 25.374 37.4449 23.752 34.9178Z" fill="white"/>
<path d="M32.6483 22.0303C33.3298 22.0303 33.9389 22.3307 34.3636 22.8755C34.6263 23.213 34.9008 23.7569 34.9231 24.5714C35.2089 24.4833 35.4838 24.4341 35.7406 24.4341C36.3931 24.4341 36.9824 24.7024 37.3991 25.1899C37.9347 25.8156 38.1725 26.5845 38.0689 27.3538C38.0197 27.7202 37.9056 28.0487 37.7351 28.3527C38.0946 28.6648 38.3594 29.0995 38.4874 29.6222C38.5875 30.0319 38.6903 30.8853 38.1539 31.7644C38.188 31.8218 38.22 31.8814 38.2499 31.9424C38.5724 32.5993 38.593 33.3415 38.3084 34.0327C37.877 35.0803 36.8048 35.9057 34.7227 36.7917C33.4275 37.3428 32.2424 37.6952 32.2319 37.6983C30.5195 38.1749 28.9707 38.4171 27.63 38.4171C25.1657 38.4171 23.4015 37.607 22.3862 36.0096C20.752 33.4373 20.9856 31.0845 23.1001 28.8166C24.2703 27.5617 25.0483 25.7112 25.2103 25.3051C25.537 24.1025 26.4008 22.7657 27.8367 22.7657H27.8371C27.9579 22.7657 28.08 22.7761 28.2004 22.7965C28.8293 22.9026 29.3791 23.2912 29.7719 23.8757C30.1958 23.3101 30.6075 22.8602 30.98 22.6063C31.5415 22.2241 32.1027 22.0303 32.6483 22.0303ZM32.6483 23.8374C32.4335 23.8374 32.1713 23.9353 31.8821 24.1323C30.9842 24.7435 29.2515 27.9398 28.6171 29.183C28.4046 29.5995 28.0413 29.7758 27.7142 29.7758C27.0651 29.7758 26.5583 29.0832 27.6548 28.2031C29.3038 26.879 28.7254 24.7147 27.9382 24.5814C27.9036 24.5755 27.8695 24.5728 27.8367 24.5728C27.1211 24.5728 26.8054 25.8965 26.8054 25.8965C26.8054 25.8965 25.8801 28.3902 24.2906 30.0947C22.701 31.7996 22.6189 33.168 23.7774 34.9913C24.5675 36.2346 26.08 36.3968 27.63 36.3968C29.2376 36.3968 30.8885 36.0926 31.8121 35.8355C31.8575 35.8229 37.4716 34.2337 36.7602 32.7845C36.6406 32.5409 36.4436 32.4434 36.1956 32.4434C35.1938 32.4434 33.3715 34.0436 32.588 34.0436C32.4129 34.0436 32.2824 33.8982 32.2319 33.703C31.8833 32.3561 37.3146 31.9428 36.8587 30.0812C36.7783 29.7518 36.5602 29.6181 36.2538 29.6185C34.9299 29.6185 31.9595 32.1172 31.337 32.1172C31.2894 32.1172 31.2553 32.1023 31.2367 32.0707C30.9248 31.5304 31.0685 31.0905 33.2671 29.6625C35.4659 28.234 37.0363 27.4374 36.1586 26.412C36.0576 26.2935 35.9144 26.2412 35.7406 26.2412C34.4058 26.2416 31.2519 29.3217 31.2519 29.3217C31.2519 29.3217 30.4007 30.2717 29.8859 30.2717C29.7676 30.2717 29.6671 30.2216 29.5988 30.0978C29.2339 29.4374 32.9888 26.3834 33.2006 25.1235C33.3441 24.2697 33.0999 23.8374 32.6483 23.8374Z" fill="black"/>
<path d="M25.5422 19.7755C25.5422 17.731 23.0869 20.8471 20.051 20.861C17.0154 20.8472 14.5601 17.7312 14.5601 19.7755C14.5601 21.131 15.1606 23.3356 16.7736 24.6732C17.0945 23.4806 18.8581 22.5253 19.1102 22.6624C19.4692 22.8578 19.449 23.3991 20.051 23.8761C20.6531 23.3991 20.6329 22.858 20.9919 22.6624C21.2441 22.5253 23.0076 23.4806 23.3285 24.6732C24.9414 23.3356 25.5421 21.131 25.5421 19.7757L25.5422 19.7755Z" fill="#0E1116"/>
<path d="M20.9922 22.6621C20.6332 22.8574 20.6534 23.3987 20.0513 23.8757C19.4493 23.3987 19.4694 22.8576 19.1105 22.6621C18.8582 22.5249 17.0948 23.4802 16.7739 24.6728C17.5894 25.3491 18.6639 25.8036 20.0503 25.8146C20.0506 25.8146 20.051 25.8146 20.0514 25.8146C20.0518 25.8146 20.0522 25.8146 20.0526 25.8146C21.439 25.8038 22.5135 25.3491 23.329 24.6728C23.0082 23.4802 21.2446 22.5249 20.9925 22.6621H20.9922Z" fill="#C4C4BF"/>
<path d="M29.84 16.933C30.5911 16.933 31.2 16.2754 31.2 15.4643C31.2 14.6531 30.5911 13.9956 29.84 13.9956C29.0889 13.9956 28.48 14.6531 28.48 15.4643C28.48 16.2754 29.0889 16.933 29.84 16.933Z" fill="black"/>
<path d="M10.2399 16.933C10.991 16.933 11.5999 16.2754 11.5999 15.4643C11.5999 14.6531 10.991 13.9956 10.2399 13.9956C9.48876 13.9956 8.87988 14.6531 8.87988 15.4643C8.87988 16.2754 9.48876 16.933 10.2399 16.933Z" fill="black"/>
<path d="M25.0448 14.8248C25.5837 15.0297 25.7981 16.2229 26.3425 15.9112C27.3734 15.3208 27.7648 13.942 27.2167 12.8316C26.6685 11.7211 25.3884 11.2996 24.3574 11.89C23.3264 12.4805 22.9351 13.8592 23.4832 14.9696C23.742 15.4938 24.5632 14.6416 25.0448 14.8248Z" fill="#0E1116"/>
<path d="M15.0842 14.8248C14.5453 15.0297 14.3309 16.2229 13.7866 15.9112C12.7556 15.3208 12.3643 13.942 12.9124 12.8316C13.4606 11.7211 14.7407 11.2996 15.7716 11.89C16.8026 12.4805 17.194 13.8592 16.6458 14.9696C16.3871 15.4938 15.5659 14.6416 15.0842 14.8248Z" fill="#0E1116"/>
</g>
<defs>
<clipPath id="clip0_83_978">
<rect width="40" height="40" fill="white"/>
</clipPath>
</defs>
</svg>
