<svg width="60" height="14" viewBox="0 0 60 14" fill="none" xmlns="http://www.w3.org/2000/svg">
<g clip-path="url(#clip0_83_1009)">
<path d="M19.1388 9.54063H22.5035V11.1476H17.2187V2.68686H19.1388V9.54063ZM0.513428 0.592773H13.3711V13.286H0.513428V0.592773ZM1.6501 12.1672H12.2313V1.71046H1.6501V12.1672ZM3.90973 2.70373L6.14617 6.62409L3.65773 11.1644H5.26045L6.91907 8.06549L8.68523 11.1644H10.3175L5.54199 2.70268L3.90973 2.70373ZM36.7794 4.87163C36.3699 4.86226 35.9658 4.96666 35.6121 5.1732C35.3018 5.3639 35.0329 5.61488 34.8213 5.9113H34.796C34.5324 5.27126 33.905 4.86952 33.1142 4.86952C32.0597 4.86952 31.5199 5.4463 31.2563 5.83643H31.2183L31.1308 5.00766H29.5745V11.1455H31.4324V7.56991C31.4263 7.4077 31.4517 7.24584 31.5072 7.09331C31.62 6.77698 31.909 6.40266 32.3982 6.40266C33.0013 6.40266 33.2776 6.92987 33.2776 7.70804V11.1476H35.1355V7.56253C35.1346 7.39618 35.1599 7.23073 35.2104 7.07222C35.2673 6.88253 35.3831 6.71586 35.541 6.59627C35.6989 6.47668 35.8907 6.41035 36.0887 6.40688C36.7045 6.40688 36.9934 6.92144 36.9934 7.81348V11.1518H38.8502V7.533C38.8502 5.70041 37.9593 4.87163 36.7794 4.87163ZM51.1849 2.44645H53.0934V11.1423H51.4485L51.361 10.2387H51.3357C50.9466 10.9293 50.2054 11.2804 49.4145 11.2804C47.9584 11.2804 46.7911 10.0383 46.7911 8.12981C46.7785 6.05892 48.0712 4.86636 49.54 4.86636C50.2939 4.86636 50.8834 5.12997 51.1596 5.55701H51.1849V2.44645ZM51.1849 7.6026C51.1828 7.48939 51.1743 7.37639 51.1596 7.26413C51.0468 6.74957 50.6324 6.32252 50.043 6.32252C49.1762 6.32252 48.7249 7.10069 48.7249 8.0676C48.7249 9.10937 49.2395 9.76206 50.0303 9.76206C50.2929 9.76502 50.548 9.67529 50.7509 9.50865C50.9538 9.34201 51.0915 9.10915 51.1396 8.85104C51.1766 8.70749 51.1936 8.55954 51.1902 8.41134L51.1849 7.6026ZM59.4179 7.51403V11.1423H57.773L57.6602 10.5276H57.6222C57.2194 11.0168 56.5889 11.2804 55.8581 11.2804C54.6107 11.2804 53.8674 10.3768 53.8674 9.39723C53.8674 7.80294 55.4901 7.33477 57.483 7.33477V6.96678C57.483 6.64096 57.3069 6.17596 56.3622 6.17596C55.8642 6.18282 55.3732 6.29381 54.9207 6.50178L54.3092 5.41045C54.7373 5.17215 55.5808 4.87058 56.7027 4.87058C58.7557 4.87058 59.4179 6.07579 59.4179 7.5193V7.51403ZM57.5463 8.46301C56.4918 8.46301 55.6367 8.53471 55.6325 9.30655C55.6325 9.79897 56.0848 9.93182 56.5129 9.93182C56.7316 9.93347 56.9452 9.86649 57.1238 9.74032C57.3023 9.61415 57.4368 9.43515 57.5083 9.22852C57.5341 9.12186 57.5469 9.01245 57.5463 8.9027V8.46301ZM46.053 7.9611C46.053 10.1691 44.6654 11.272 43.2778 11.272C42.5713 11.272 41.8902 11.0084 41.4568 10.2819H41.4389L41.3651 11.1339H39.815V2.45173H41.6961V5.73415H41.7204C42.08 5.20694 42.7116 4.86952 43.554 4.86952C45.0039 4.86952 46.0688 6.08528 46.0572 7.96637L46.053 7.9611ZM44.1319 8.03702C44.1319 7.08804 43.7101 6.33096 42.8318 6.33096C42.3235 6.33096 41.8532 6.72004 41.7288 7.27151C41.7039 7.38688 41.6915 7.5046 41.6919 7.62263V8.52627C41.6909 8.64016 41.7032 8.75377 41.7288 8.86474C41.7834 9.11778 41.9222 9.34482 42.1226 9.50876C42.3229 9.6727 42.5729 9.76385 42.8318 9.76733C43.6416 9.7726 44.1361 9.14522 44.1361 8.04229L44.1319 8.03702ZM28.7372 7.50981V11.1381H27.0987L26.9858 10.5234H26.9479C26.544 11.0126 25.9145 11.2762 25.1838 11.2762C23.9354 11.2825 23.1973 10.3821 23.1973 9.4025C23.1973 7.80821 24.8201 7.34004 26.8129 7.34004V6.96678C26.8129 6.64096 26.6368 6.17596 25.6921 6.17596C25.1945 6.18272 24.7038 6.29371 24.2517 6.50178L23.6391 5.41045C24.0682 5.17215 24.9118 4.87058 26.0337 4.87058C28.0824 4.87058 28.7446 6.07579 28.7446 7.5193L28.7372 7.50981ZM26.8656 8.45879C25.8112 8.45879 24.9561 8.53049 24.9519 9.30233C24.9519 9.79475 25.4042 9.92761 25.8323 9.92761C26.051 9.92941 26.2647 9.86249 26.4433 9.7363C26.6219 9.61011 26.7563 9.43102 26.8277 9.2243C26.8535 9.11764 26.8662 9.00823 26.8656 8.89849V8.45879Z" fill="#F8F8F0"/>
</g>
<defs>
<clipPath id="clip0_83_1009">
<rect width="60" height="13.8773" fill="white"/>
</clipPath>
</defs>
</svg>
