<svg width="40" height="40" viewBox="0 0 40 40" fill="none" xmlns="http://www.w3.org/2000/svg">
<path d="M6.25 24.375C6.25 18.625 9.125 12.625 12.5 12.625C14.375 12.625 15.875 13.75 18.25 17.125C16 20.625 14.625 22.75 14.625 22.75C11.625 27.5 10.625 28.5 9 28.5C7.375 28.625 6.25 27.125 6.25 24.375ZM25.875 22.25L23.75 18.75C23.25 17.875 22.625 17 22.125 16.25C24 13.375 25.5 11.875 27.375 11.875C31.125 11.875 34.125 17.5 34.125 24.5C34.125 27.125 33.25 28.625 31.5 28.625C29.75 28.625 29.125 27.5 25.875 22.25ZM20.5 13.75C17.75 10.125 15.375 8.75 12.625 8.75C6.875 8.75 2.5 16.375 2.5 24.375C2.5 29.375 4.875 32.5 8.875 32.5C11.75 32.5 13.75 31.125 17.5 24.625C17.5 24.625 19 21.875 20.125 20C20.5 20.625 20.875 21.25 21.25 22L23 25C26.375 30.75 28.25 32.625 31.625 32.625C35.5 32.625 37.625 29.375 37.625 24.25C37.5 15.75 33 8.75 27.625 8.75C24.75 8.75 22.5 11 20.5 13.75Z" fill="#F8F8F0"/>
</svg>
