<svg width="40" height="40" viewBox="0 0 40 40" fill="none" xmlns="http://www.w3.org/2000/svg">
<path d="M20.0062 0.0649414L8.2949 11.7837C5.18115 14.8637 3.43115 19.0574 3.43115 23.4324C3.43115 27.8074 5.18115 31.9987 8.2949 35.0787C11.3662 38.1837 15.5662 39.9349 19.9412 39.9349C24.3162 39.9349 28.5074 38.1837 31.5812 35.0787C38.2024 28.5937 38.2024 18.1249 31.7249 11.7837L28.8287 14.6749C33.6524 19.4987 33.6524 27.3562 28.8287 32.1812C24.0037 37.0049 16.1474 37.0049 11.3224 32.1812C6.4974 27.3562 6.4974 19.4974 11.3224 14.6749L19.0437 6.95994L20.0137 5.85369L20.0062 0.0649414ZM25.9362 6.54369C24.7199 6.54369 23.7299 7.53369 23.7299 8.74994C23.7299 9.96619 24.7199 10.9499 25.9362 10.9499C27.1549 10.9499 28.1374 9.96619 28.1374 8.74994C28.1374 7.53369 27.1537 6.54369 25.9362 6.54369Z" fill="#F8F8F0"/>
</svg>
