<svg width="60" height="60" viewBox="0 0 60 60" fill="none" xmlns="http://www.w3.org/2000/svg">
<path d="M22.45 14.9C14.83 19.37 14.35 19.7 13.57 20.96C13.03 21.86 13 22.55 13 30.65C13 37.16 13.09 39.47 13.39 39.83C13.96 40.58 27.4 48.2 27.94 48.11C28.39 48.02 28.45 47.18 28.54 39.8C28.6 33.23 28.54 31.46 28.21 30.95C27.97 30.59 25.24 28.91 22.15 27.17C19.06 25.43 16.33 23.72 16.09 23.36C15.55 22.58 15.82 21.59 16.63 21.14C17.11 20.9 18.52 21.14 23.17 22.34C26.44 23.18 29.5 23.87 29.98 23.87C31.3 23.87 44.95 16.1 44.95 15.35C44.95 14.87 43.93 14.51 37.75 12.89C33.79 11.84 30.22 11 29.8 11C29.38 11.03 26.08 12.77 22.45 14.9Z" fill="#F8F8F0"/>
<path d="M41.2599 20.0001L40.2699 20.6301L42.1599 21.7401C43.2099 22.3401 44.0499 23.0301 44.0499 23.2701C44.0499 23.5401 41.6499 25.1 38.2299 27.0501C35.0499 28.85 32.2299 30.6201 32.0199 30.92C31.6599 31.4001 31.5999 33.0801 31.6599 39.74C31.7499 47.18 31.8099 48.02 32.2599 48.11C32.7999 48.2 46.2399 40.58 46.8399 39.83C47.1099 39.47 47.1999 37.1901 47.1999 30.7701C47.1999 24.35 47.1099 22.0701 46.8399 21.7101C46.3599 21.1401 43.2099 19.3701 42.6699 19.3701C42.4299 19.3701 41.7999 19.6701 41.2599 20.0001Z" fill="#F8F8F0"/>
</svg>
