<svg width="40" height="22" viewBox="0 0 40 22" fill="none" xmlns="http://www.w3.org/2000/svg">
<g clip-path="url(#clip0_83_1032)">
<path d="M30.6812 18.3309C35.5664 13.446 36.3783 6.33808 32.4945 2.45462C28.6113 -1.42841 21.5037 -0.616642 16.6188 4.26798C11.7339 9.15274 13.147 18.4852 14.8057 20.1443C16.1462 21.4847 25.7965 23.2155 30.6812 18.3309Z" fill="#6E6E6E"/>
<path d="M10.6363 11.2725C7.80232 8.4385 3.67798 7.9667 1.42426 10.2203C-0.82888 12.4736 -0.357799 16.5985 2.47677 19.432C5.31133 22.2669 10.7265 21.4469 11.6882 20.4843C12.4665 19.7072 13.4712 14.1068 10.6363 11.2725Z" fill="#F8F8F0"/>
<path d="M20.4147 17.1333C19.9141 17.5942 19.4749 17.9343 19.0974 18.1528C18.7199 18.3721 18.3599 18.4815 18.0174 18.4815C17.6233 18.4815 17.3054 18.3288 17.0644 18.0231C16.8229 17.7172 16.7026 17.307 16.7026 16.7909C16.7026 16.0177 16.8702 15.0893 17.2055 14.007C17.5401 12.9238 17.9476 11.9256 18.4261 11.0125L19.8294 10.4929C19.8734 10.4782 19.9069 10.4707 19.9291 10.4707C20.0355 10.4707 20.1235 10.5492 20.191 10.7054C20.2593 10.8623 20.2936 11.0732 20.2936 11.3383C20.2936 12.0896 20.1206 12.817 19.774 13.5205C19.4276 14.2242 18.8864 14.9753 18.1499 15.7745C18.1204 16.1576 18.1056 16.4207 18.1056 16.5645C18.1056 16.8851 18.1645 17.1388 18.2823 17.3268C18.4003 17.515 18.5567 17.6085 18.752 17.6085C18.9512 17.6085 19.1628 17.5372 19.3875 17.3936C19.6118 17.2496 19.9543 16.9516 20.4146 16.4983V17.1333H20.4147ZM18.2991 14.9737C18.7667 14.4537 19.1465 13.8705 19.4372 13.2254C19.728 12.5799 19.8733 12.0247 19.8733 11.5596C19.8733 11.424 19.8532 11.3138 19.813 11.231C19.7725 11.148 19.7205 11.1064 19.6581 11.1064C19.5223 11.1064 19.324 11.4456 19.0642 12.1242C18.8045 12.8027 18.5495 13.7527 18.2991 14.9737Z" fill="#F8F8F0"/>
<path d="M24.5474 17.1332C24.0798 17.594 23.66 17.9341 23.2879 18.1526C22.9158 18.3719 22.5056 18.4814 22.056 18.4814C21.555 18.4814 21.1509 18.3211 20.8429 18.001C20.5356 17.6801 20.3821 17.2588 20.3821 16.7356C20.3821 15.955 20.6525 15.2487 21.1946 14.6171C21.7355 13.9852 22.3361 13.6694 22.9952 13.6694C23.3378 13.6694 23.6119 13.7581 23.8184 13.9348C24.0247 14.1118 24.1278 14.3436 24.1278 14.6309C24.1278 15.3935 23.3176 16.0119 21.6971 16.4871C21.8442 17.205 22.229 17.5644 22.8516 17.5644C23.0948 17.5644 23.3266 17.4991 23.5474 17.3687C23.7688 17.2377 24.1018 16.9472 24.5475 16.4982L24.5474 17.1332ZM21.6525 16.1114C22.5951 15.846 23.0668 15.3564 23.0668 14.6419C23.0668 14.2884 22.9377 14.1117 22.6802 14.1117C22.437 14.1117 22.2053 14.2964 21.9844 14.667C21.7629 15.037 21.6525 15.5181 21.6525 16.1114Z" fill="#F8F8F0"/>
<path d="M30.4476 17.1331C29.8582 17.6929 29.4365 18.058 29.1826 18.2276C28.9285 18.3969 28.6855 18.4815 28.4532 18.4815C27.8712 18.4815 27.597 17.9678 27.6301 16.9401C27.2618 17.4666 26.9219 17.8552 26.6106 18.1061C26.2996 18.3565 25.9784 18.4815 25.6465 18.4815C25.3228 18.4815 25.0476 18.3299 24.8207 18.0259C24.5939 17.722 24.4812 17.3493 24.4812 16.907C24.4812 16.3548 24.6328 15.828 24.9364 15.3268C25.2406 14.8259 25.6301 14.4212 26.105 14.1118C26.58 13.8024 27.0003 13.6475 27.3645 13.6475C27.8251 13.6475 28.1474 13.8593 28.3316 14.2827L29.4607 13.6587H29.7706L29.2829 15.2772C29.0325 16.0914 28.9069 16.6495 28.9069 16.9514C28.9069 17.268 29.0189 17.4263 29.2438 17.4263C29.3869 17.4263 29.5453 17.35 29.7185 17.197C29.8917 17.044 30.1343 16.811 30.4473 16.498V17.1331H30.4476ZM26.4036 17.4373C26.7718 17.4373 27.1189 17.1235 27.4454 16.4956C27.7714 15.8674 27.9343 15.2879 27.9343 14.7577C27.9343 14.5517 27.8878 14.3903 27.7962 14.2745C27.7038 14.1581 27.5804 14.1004 27.4261 14.1004C27.0576 14.1004 26.7082 14.4134 26.3792 15.0396C26.0496 15.6659 25.8845 16.2423 25.8845 16.7685C25.8845 16.9677 25.9335 17.1288 26.031 17.2523C26.1285 17.3757 26.2523 17.4373 26.4036 17.4373Z" fill="#F8F8F0"/>
<path d="M34.5748 17.1332C33.6502 18.0392 32.9374 18.4925 32.4366 18.4925C32.2117 18.4925 32.0219 18.3976 31.8676 18.2085C31.7132 18.0187 31.6355 17.7838 31.6355 17.5036C31.6355 16.9844 31.9139 16.2886 32.4699 15.4155C32.1972 15.5556 31.8992 15.6528 31.5749 15.7082C31.3355 16.1501 30.9596 16.6254 30.4478 17.1331H30.321V16.6365C30.6081 16.3382 30.8679 16.0176 31.0999 15.675C30.7827 15.5349 30.6247 15.3268 30.6247 15.051C30.6247 14.767 30.721 14.4643 30.9149 14.1416C31.1082 13.8197 31.3741 13.6587 31.7132 13.6587C32.0006 13.6587 32.1439 13.8055 32.1439 14.1003C32.1439 14.3324 32.0611 14.6637 31.8951 15.0949C32.5064 15.0284 33.0405 14.561 33.4975 13.6916L34 13.6694L33.4862 15.0836C33.2727 15.6803 33.1346 16.0868 33.0721 16.302C33.0096 16.5172 32.9781 16.7082 32.9781 16.8736C32.9781 17.0285 33.0141 17.1523 33.0857 17.2437C33.1575 17.3365 33.2544 17.3821 33.3759 17.3821C33.5083 17.3821 33.6356 17.3368 33.7571 17.247C33.8785 17.156 34.1511 16.9068 34.5749 16.498V17.1332H34.5748Z" fill="#F8F8F0"/>
<path d="M40.0002 17.1335C39.1495 18.0326 38.4198 18.4818 37.8124 18.4818C37.5656 18.4818 37.3667 18.3953 37.2157 18.222C37.0644 18.0491 36.9889 17.8171 36.9889 17.5262C36.9889 17.1322 37.1512 16.5298 37.4754 15.7199C37.6484 15.2852 37.7352 15.0085 37.7352 14.8911C37.7352 14.7732 37.6888 14.7142 37.5972 14.7142C37.5457 14.7142 37.4772 14.7401 37.3927 14.7913C37.3149 14.8428 37.2248 14.9152 37.1216 15.0071C37.0298 15.0916 36.9263 15.1948 36.8122 15.3159C36.7126 15.4199 36.6057 15.5376 36.4922 15.6697L36.1824 16.0292C36.0463 16.1948 35.9615 16.3694 35.9285 16.5538C35.873 16.8668 35.8363 17.1544 35.8177 17.4162C35.8065 17.6109 35.8011 17.874 35.8011 18.2062L34.5802 18.4929C34.5399 17.9957 34.5193 17.6255 34.5193 17.3827C34.5193 16.7897 34.5884 16.2279 34.7267 15.6977C34.8647 15.1669 35.0864 14.5706 35.3924 13.9074L36.7401 13.6479C36.4567 14.4105 36.2708 15.0106 36.1824 15.4486C36.7864 14.7747 37.2653 14.3083 37.6203 14.0482C37.9747 13.7884 38.2902 13.6592 38.566 13.6592C38.7534 13.6592 38.91 13.7299 39.0348 13.8714C39.1601 14.013 39.2225 14.1909 39.2225 14.4035C39.2225 14.7567 39.0641 15.3387 38.7478 16.1493C38.5303 16.7052 38.4215 17.066 38.4215 17.2326C38.4215 17.4542 38.5119 17.565 38.6928 17.565C38.9621 17.565 39.3983 17.2095 40.0002 16.4987V17.1335Z" fill="#F8F8F0"/>
<path d="M22.4666 10.9985C22.4744 11.0864 22.4963 11.1538 22.5325 11.2007C22.5989 11.2856 22.7141 11.3281 22.8782 11.3281C22.9758 11.3281 23.0618 11.3071 23.136 11.2651C23.2102 11.2222 23.2473 11.1562 23.2473 11.0674C23.2473 11 23.2175 10.9487 23.158 10.9136C23.1199 10.8921 23.0447 10.8672 22.9324 10.8389L22.7229 10.7861C22.5891 10.7529 22.4905 10.7158 22.427 10.6748C22.3137 10.6035 22.2571 10.5049 22.2571 10.3789C22.2571 10.2305 22.3103 10.1104 22.4167 10.0186C22.5242 9.92676 22.6682 9.88086 22.8489 9.88086C23.0852 9.88086 23.2556 9.9502 23.3601 10.0889C23.4255 10.1768 23.4573 10.2715 23.4553 10.373H23.2063C23.2014 10.3135 23.1804 10.2593 23.1433 10.2104C23.0828 10.1411 22.9778 10.1064 22.8284 10.1064C22.7288 10.1064 22.6531 10.1255 22.6013 10.1636C22.5505 10.2017 22.5251 10.252 22.5251 10.3145C22.5251 10.3828 22.5588 10.4375 22.6262 10.4785C22.6653 10.5029 22.7229 10.5244 22.7991 10.543L22.9734 10.5854C23.1628 10.6313 23.2898 10.6758 23.3542 10.7188C23.4568 10.7861 23.5081 10.8921 23.5081 11.0366C23.5081 11.1763 23.4548 11.2969 23.3484 11.3984C23.2429 11.5 23.0818 11.5508 22.865 11.5508C22.6316 11.5508 22.4661 11.498 22.3684 11.3926C22.2717 11.2861 22.22 11.1548 22.2131 10.9985H22.4666ZM24.4148 9.87646C24.5916 9.87646 24.7351 9.91943 24.8455 10.0054C24.9568 10.0913 25.0237 10.2393 25.0461 10.4492H24.7898C24.7742 10.3525 24.7385 10.2725 24.6829 10.209C24.6272 10.1445 24.5378 10.1123 24.4148 10.1123C24.2468 10.1123 24.1267 10.1943 24.0544 10.3584C24.0076 10.4648 23.9841 10.5962 23.9841 10.7524C23.9841 10.9097 24.0173 11.042 24.0837 11.1494C24.1501 11.2568 24.2546 11.3105 24.3972 11.3105C24.5066 11.3105 24.593 11.2773 24.6565 11.2109C24.7209 11.1436 24.7654 11.0518 24.7898 10.9355H25.0461C25.0168 11.1436 24.9436 11.2959 24.8264 11.3926C24.7092 11.4883 24.5593 11.5361 24.3767 11.5361C24.1716 11.5361 24.0081 11.4614 23.886 11.312C23.7639 11.1616 23.7029 10.9741 23.7029 10.7495C23.7029 10.4741 23.7698 10.2598 23.9036 10.1064C24.0374 9.95312 24.2078 9.87646 24.4148 9.87646ZM25.3098 9.9292H25.5779V11.4907H25.3098V9.9292ZM25.3098 9.33887H25.5779V9.6377H25.3098V9.33887ZM25.9719 9.33887H26.2253V10.5884L26.9021 9.92188H27.239L26.6384 10.5093L27.2727 11.4907H26.9358L26.4465 10.6997L26.2253 10.9019V11.4907H25.9719V9.33887ZM27.4778 9.9292H27.7458V11.4907H27.4778V9.9292ZM27.4778 9.33887H27.7458V9.6377H27.4778V9.33887ZM28.1985 9.48389H28.4651V9.92188H28.7156V10.1372H28.4651V11.1611C28.4651 11.2158 28.4836 11.2524 28.5208 11.271C28.5413 11.2817 28.5754 11.2871 28.6233 11.2871C28.636 11.2871 28.6497 11.2871 28.6643 11.2871C28.679 11.2861 28.696 11.2847 28.7156 11.2827V11.4907C28.6853 11.4995 28.6536 11.5059 28.6204 11.5098C28.5881 11.5137 28.553 11.5156 28.5149 11.5156C28.3918 11.5156 28.3083 11.4844 28.2644 11.4219C28.2205 11.3584 28.1985 11.2764 28.1985 11.1758V10.1372H27.9861V9.92188H28.1985V9.48389Z" fill="white"/>
</g>
<defs>
<clipPath id="clip0_83_1032">
<rect width="40" height="21.5721" fill="white"/>
</clipPath>
</defs>
</svg>
