<svg width="50" height="10" viewBox="0 0 50 10" fill="none" xmlns="http://www.w3.org/2000/svg">
<g clip-path="url(#clip0_83_997)">
<path d="M2.00024 7.99067C3.28835 7.99067 4.11567 7.3258 4.11567 6.27487C4.11567 5.45986 3.60252 4.8915 2.69142 4.67702L2.13638 4.53761L2.05546 4.51844C1.59679 4.40615 1.37189 4.2814 1.37189 3.92636C1.37189 3.61537 1.61276 3.44378 2.02118 3.44378C3.31958 3.44378 3.79016 3.92636 3.79016 3.92636V2.88089L3.7734 2.86409C3.67951 2.77488 3.18061 2.36068 2.01071 2.36068C0.774962 2.36068 0 3.00411 0 4.01215C0 4.8126 0.505089 5.36479 1.41605 5.59761L1.98977 5.73868C2.4715 5.85664 2.71237 5.98532 2.71237 6.36066C2.71237 6.70382 2.45055 6.89685 1.98977 6.89685C0.662373 6.89685 0 6.17062 0 6.17062V7.42438L0.0170312 7.44281C0.112818 7.54021 0.629905 7.99067 2.00024 7.99067ZM8.33976 7.9267V6.7609L8.1272 6.76484C8.00371 6.76593 7.82777 6.76587 7.603 6.76177L7.55739 6.7609C6.98873 6.75068 6.79101 6.47604 6.79101 5.83244V3.64234H8.21631V2.46752H6.79101V1.2966H5.45417V2.46752H4.6993V3.64234H5.45417V5.92439C5.45417 7.27288 6.09266 7.9267 7.39958 7.9267H8.33976ZM33.6101 7.9267V6.7609L33.3975 6.76484C33.274 6.76593 33.0981 6.76587 32.8733 6.76177L32.8277 6.7609C32.259 6.75068 32.0613 6.47604 32.0613 5.83244V3.64234H33.4866V2.46752H32.0613V1.2966H30.7245V2.46752H29.9696V3.64234H30.7245V5.92439C30.7245 7.27288 31.363 7.9267 32.6699 7.9267H33.6101ZM13.0825 2.4773V3.27245C12.7305 2.68934 12.0772 2.36068 11.3317 2.36068C9.8512 2.36068 8.82621 3.50569 8.82621 5.14899C8.82621 6.79229 9.84084 7.9267 11.3007 7.9267C12.0565 7.9267 12.7201 7.59804 13.0825 7.01493V7.81008H14.3342V2.4773H13.0825ZM11.5533 6.7942C10.7117 6.7942 10.1507 6.12832 10.1507 5.19838C10.1507 4.27992 10.7225 3.60256 11.5533 3.60256C12.3948 3.60256 13.0098 4.27992 13.0098 5.19838C13.0098 6.12832 12.384 6.7942 11.5533 6.7942ZM18.6784 2.36068C17.8401 2.36068 17.3391 2.88006 16.99 3.4215V0.0306476H15.6531V7.81432H16.95V7.03792C17.2892 7.59979 17.9501 7.89537 18.6784 7.89537C20.0751 7.89537 21.0927 6.77162 21.0927 5.19838C21.0927 3.63535 20.2047 2.36068 18.6784 2.36068ZM18.3891 6.70151C17.5336 6.70151 16.9379 6.03612 16.9379 5.13783C16.9379 4.25064 17.5877 3.61851 18.4216 3.61851C19.2664 3.61851 19.8079 4.23955 19.8079 5.13783C19.8079 6.03612 19.2122 6.70151 18.3891 6.70151ZM22.9235 1.53409C23.3392 1.53409 23.6488 1.22614 23.6488 0.809511C23.6488 0.383822 23.348 0.0849338 22.9235 0.0849338C22.5078 0.0849338 22.207 0.383822 22.207 0.809511C22.207 1.2352 22.5078 1.53409 22.9235 1.53409ZM22.2595 7.89788H23.5963V2.52089H22.2595V7.89788ZM28.3906 1.53409C28.8063 1.53409 29.1159 1.22614 29.1159 0.809511C29.1159 0.383822 28.8152 0.0849338 28.3906 0.0849338C27.9749 0.0849338 27.6742 0.383822 27.6742 0.809511C27.6742 1.2352 27.9749 1.53409 28.3906 1.53409ZM27.7266 7.89788H29.0635V2.52089H27.7266V7.89788ZM24.9775 7.83348H26.3553V0H24.9775V7.83348ZM35.0046 9.92893H36.4838L39.3252 2.49034H37.9399L36.6981 6.11678L35.4522 2.49034H33.9158L35.9758 7.68302L35.0046 9.92893Z" fill="url(#paint0_linear_83_997)"/>
<path d="M45.9777 2.47733V3.27248C45.6257 2.68937 44.9724 2.36071 44.227 2.36071C42.7464 2.36071 41.7214 3.50572 41.7214 5.14902C41.7214 6.79232 42.7361 7.92672 44.1959 7.92672C44.9517 7.92672 45.6153 7.59806 45.9777 7.01496V7.8101H47.2295V2.47733H45.9777ZM44.4485 6.79422C43.6069 6.79422 43.0459 6.12834 43.0459 5.19841C43.0459 4.27995 43.6177 3.60259 44.4485 3.60259C45.29 3.60259 45.905 4.27995 45.905 5.19841C45.905 6.12834 45.2792 6.79422 44.4485 6.79422ZM49.2747 1.53412C49.6904 1.53412 50 1.22617 50 0.809538C50 0.383849 49.6992 0.0849609 49.2747 0.0849609C48.859 0.0849609 48.5582 0.383849 48.5582 0.809538C48.5582 1.23523 48.859 1.53412 49.2747 1.53412ZM48.6107 7.8979H49.9475V2.52092H48.6107V7.8979Z" fill="url(#paint1_linear_83_997)"/>
<path d="M40.1147 7.96713C40.5729 7.96713 40.914 7.62776 40.914 7.16862C40.914 6.6995 40.5826 6.37012 40.1147 6.37012C39.6566 6.37012 39.3252 6.6995 39.3252 7.16862C39.3252 7.63775 39.6566 7.96713 40.1147 7.96713Z" fill="#737373"/>
</g>
<defs>
<linearGradient id="paint0_linear_83_997" x1="1966.26" y1="0" x2="1966.26" y2="992.893" gradientUnits="userSpaceOnUse">
<stop stop-color="#F8F8F0"/>
<stop offset="1" stop-color="#A380FF"/>
</linearGradient>
<linearGradient id="paint1_linear_83_997" x1="455.648" y1="0.0849609" x2="455.648" y2="784.261" gradientUnits="userSpaceOnUse">
<stop stop-color="#F8F8F0"/>
<stop offset="1" stop-color="#A380FF"/>
</linearGradient>
<clipPath id="clip0_83_997">
<rect width="50" height="10" fill="white"/>
</clipPath>
</defs>
</svg>
