<svg width="30" height="30" viewBox="0 0 30 30" fill="none" xmlns="http://www.w3.org/2000/svg">
<path d="M7.5 3.75H3.75V7.5" stroke="#F8F8F0" stroke-width="2" stroke-linecap="round" stroke-linejoin="round"/>
<path d="M15 17.5C16.3807 17.5 17.5 16.3807 17.5 15C17.5 13.6193 16.3807 12.5 15 12.5C13.6193 12.5 12.5 13.6193 12.5 15C12.5 16.3807 13.6193 17.5 15 17.5Z" stroke="#F8F8F0" stroke-width="2" stroke-linecap="round" stroke-linejoin="round"/>
<path d="M26.25 15C23.8893 18.7387 19.6479 22.5 15 22.5C10.3521 22.5 6.1107 18.7387 3.75 15C6.62319 11.4478 9.98954 7.5 15 7.5C20.0105 7.5 23.3769 11.4478 26.25 15Z" stroke="#F8F8F0" stroke-width="2" stroke-linecap="round" stroke-linejoin="round"/>
<path d="M22.5 3.75H26.25V7.5" stroke="#F8F8F0" stroke-width="2" stroke-linecap="round" stroke-linejoin="round"/>
<path d="M7.5 26.25H3.75V22.5" stroke="#F8F8F0" stroke-width="2" stroke-linecap="round" stroke-linejoin="round"/>
<path d="M22.5 26.25H26.25V22.5" stroke="#F8F8F0" stroke-width="2" stroke-linecap="round" stroke-linejoin="round"/>
</svg>
