<svg width="30" height="30" viewBox="0 0 30 30" fill="none" xmlns="http://www.w3.org/2000/svg">
<path d="M8.75 17.5C6.67894 17.5 5 19.1789 5 21.25C5 23.3211 6.67894 25 8.75 25C9.1883 25 9.60903 24.9247 10 24.7866" stroke="#F8F8F0" stroke-width="2" stroke-linecap="round" stroke-linejoin="round"/>
<path d="M5.32985 19.506C3.65532 18.698 2.5 16.984 2.5 15.0002C2.5 13.4856 3.17341 12.1283 4.23717 11.2114" stroke="#F8F8F0" stroke-width="2" stroke-linecap="round" stroke-linejoin="round"/>
<path d="M4.27566 11.1102C3.94363 10.6139 3.75 10.017 3.75 9.375C3.75 7.64911 5.14911 6.25 6.875 6.25C7.57864 6.25 8.22796 6.48255 8.7503 6.875" stroke="#F8F8F0" stroke-width="2" stroke-linecap="round" stroke-linejoin="round"/>
<path d="M9.04711 6.95666C8.85655 6.55269 8.75 6.10129 8.75 5.625C8.75 3.89911 10.1491 2.5 11.875 2.5C13.6009 2.5 15 3.89911 15 5.625V25" stroke="#F8F8F0" stroke-width="2" stroke-linecap="round" stroke-linejoin="round"/>
<path d="M10 25C10 26.3808 11.1193 27.5 12.5 27.5C13.8808 27.5 15 26.3808 15 25" stroke="#F8F8F0" stroke-width="2" stroke-linecap="round" stroke-linejoin="round"/>
<path d="M15 8.75C15 10.8211 16.6789 12.5 18.75 12.5" stroke="#F8F8F0" stroke-width="2" stroke-linecap="round" stroke-linejoin="round"/>
<path d="M25.7627 11.2114C26.8264 12.1283 27.4999 13.4856 27.4999 15.0002C27.4999 15.8791 27.2732 16.705 26.8749 17.4226" stroke="#F8F8F0" stroke-width="2" stroke-linecap="round" stroke-linejoin="round"/>
<path d="M25.7241 11.1102C26.0561 10.6139 26.2498 10.017 26.2498 9.375C26.2498 7.64911 24.8506 6.25 23.1248 6.25C22.4211 6.25 21.7718 6.48255 21.2495 6.875" stroke="#F8F8F0" stroke-width="2" stroke-linecap="round" stroke-linejoin="round"/>
<path d="M15 5.625C15 3.89911 16.3991 2.5 18.125 2.5C19.8509 2.5 21.25 3.89911 21.25 5.625C21.25 6.10129 21.1435 6.55269 20.9529 6.95666" stroke="#F8F8F0" stroke-width="2" stroke-linecap="round" stroke-linejoin="round"/>
<path d="M17.5 27.5C16.1193 27.5 15 26.3808 15 25" stroke="#F8F8F0" stroke-width="2" stroke-linecap="round" stroke-linejoin="round"/>
<path d="M25.625 25.625L27.5 27.5" stroke="#F8F8F0" stroke-width="2" stroke-linecap="round" stroke-linejoin="round"/>
<path d="M20 23.125C20 24.8509 21.3991 26.25 23.125 26.25C23.9895 26.25 24.7719 25.899 25.3376 25.3317C25.9014 24.7665 26.25 23.9865 26.25 23.125C26.25 21.3991 24.8509 20 23.125 20C21.3991 20 20 21.3991 20 23.125Z" stroke="#F8F8F0" stroke-width="2" stroke-linecap="round" stroke-linejoin="round"/>
</svg>
