<svg width="220" height="260" viewBox="0 0 220 260" fill="none" xmlns="http://www.w3.org/2000/svg">
<rect x="180" y="260" width="20" height="20" transform="rotate(-90 180 260)" fill="#BFBFBF"/>
<rect x="180" y="240" width="20" height="20" transform="rotate(-90 180 240)" fill="#AAAAAA"/>
<rect x="180" y="220" width="20" height="20" transform="rotate(-90 180 220)" fill="#A0A0A0"/>
<rect x="180" y="200" width="20" height="20" transform="rotate(-90 180 200)" fill="#AFAFAF"/>
<rect x="180" y="180" width="20" height="20" transform="rotate(-90 180 180)" fill="#9B9B9B"/>
<rect x="180" y="160" width="20" height="20" transform="rotate(-90 180 160)" fill="#919191"/>
<rect x="180" y="140" width="20" height="20" transform="rotate(-90 180 140)" fill="#7A7A7A"/>
<rect x="180" y="120" width="20" height="20" transform="rotate(-90 180 120)" fill="#B8B6B6"/>
<rect x="180" y="100" width="20" height="20" transform="rotate(-90 180 100)" fill="#7A7A7A"/>
<rect x="180" y="80" width="20" height="20" transform="rotate(-90 180 80)" fill="#BBBABA"/>
<rect x="180" y="60" width="20" height="20" transform="rotate(-90 180 60)" fill="#A1A1A1"/>
<rect x="180" y="40" width="20" height="20" transform="rotate(-90 180 40)" fill="#D9D9D9"/>
<rect x="20" y="260" width="20" height="20" transform="rotate(-90 20 260)" fill="#BFBFBF"/>
<rect x="20" y="240" width="20" height="20" transform="rotate(-90 20 240)" fill="#AAAAAA"/>
<rect x="20" y="220" width="20" height="20" transform="rotate(-90 20 220)" fill="#A0A0A0"/>
<rect x="20" y="200" width="20" height="20" transform="rotate(-90 20 200)" fill="#AFAFAF"/>
<rect x="20" y="180" width="20" height="20" transform="rotate(-90 20 180)" fill="#9B9B9B"/>
<rect x="20" y="160" width="20" height="20" transform="rotate(-90 20 160)" fill="#919191"/>
<rect x="20" y="140" width="20" height="20" transform="rotate(-90 20 140)" fill="#7A7A7A"/>
<rect x="20" y="120" width="20" height="20" transform="rotate(-90 20 120)" fill="#B8B6B6"/>
<rect x="20" y="100" width="20" height="20" transform="rotate(-90 20 100)" fill="#7A7A7A"/>
<rect x="20" y="80" width="20" height="20" transform="rotate(-90 20 80)" fill="#BBBABA"/>
<rect x="20" y="60" width="20" height="20" transform="rotate(-90 20 60)" fill="#A1A1A1"/>
<rect x="20" y="40" width="20" height="20" transform="rotate(-90 20 40)" fill="#D9D9D9"/>
<rect x="100" y="260" width="20" height="20" transform="rotate(-90 100 260)" fill="#BFBFBF"/>
<rect x="100" y="240" width="20" height="20" transform="rotate(-90 100 240)" fill="#AAAAAA"/>
<rect x="100" y="220" width="20" height="20" transform="rotate(-90 100 220)" fill="#A0A0A0"/>
<rect x="100" y="200" width="20" height="20" transform="rotate(-90 100 200)" fill="#C6C6C6"/>
<rect x="100" y="180" width="20" height="20" transform="rotate(-90 100 180)" fill="#9B9B9B"/>
<rect x="100" y="160" width="20" height="20" transform="rotate(-90 100 160)" fill="#919191"/>
<rect x="100" y="140" width="20" height="20" transform="rotate(-90 100 140)" fill="#7A7A7A"/>
<rect x="100" y="120" width="20" height="20" transform="rotate(-90 100 120)" fill="#898989"/>
<rect x="100" y="100" width="20" height="20" transform="rotate(-90 100 100)" fill="#7A7A7A"/>
<rect x="100" y="80" width="20" height="20" transform="rotate(-90 100 80)" fill="#BBBABA"/>
<rect x="100" y="60" width="20" height="20" transform="rotate(-90 100 60)" fill="#A1A1A1"/>
<rect x="100" y="40" width="20" height="20" transform="rotate(-90 100 40)" fill="#BCBCBC"/>
<rect width="20" height="20" fill="#CFCFCF"/>
<rect x="20" width="20" height="20" fill="#CDCDCD"/>
<rect x="40" width="20" height="20" fill="#C4C4C4"/>
<rect x="60" width="20" height="20" fill="#AFAFAF"/>
<rect x="80" width="20" height="20" fill="#C4C4C4"/>
<rect x="100" width="20" height="20" fill="#A8A8A8"/>
<rect x="120" width="20" height="20" fill="#959595"/>
<rect x="140" width="20" height="20" fill="#C2C2C2"/>
<rect x="160" width="20" height="20" fill="#C2C2C2"/>
<rect x="180" width="20" height="20" fill="#C2C2C2"/>
<rect x="200" width="20" height="20" fill="#D9D9D9"/>
<rect y="260" width="20" height="20" transform="rotate(-90 0 260)" fill="#CFCFCF"/>
<rect y="240" width="20" height="20" transform="rotate(-90 0 240)" fill="#CDCDCD"/>
<rect y="220" width="20" height="20" transform="rotate(-90 0 220)" fill="#C2C2C2"/>
<rect y="200" width="20" height="20" transform="rotate(-90 0 200)" fill="#C2C2C2"/>
<rect y="180" width="20" height="20" transform="rotate(-90 0 180)" fill="#CFCFCF"/>
<rect y="160" width="20" height="20" transform="rotate(-90 0 160)" fill="#CFCFCD"/>
<rect y="140" width="20" height="20" transform="rotate(-90 0 140)" fill="#C2C2C2"/>
<rect y="120" width="20" height="20" transform="rotate(-90 0 120)" fill="#C2C2C2"/>
<rect y="100" width="20" height="20" transform="rotate(-90 0 100)" fill="#CFCFCF"/>
<rect y="80" width="20" height="20" transform="rotate(-90 0 80)" fill="#E0E0E0"/>
<rect y="60" width="20" height="20" transform="rotate(-90 0 60)" fill="#CFCFCF"/>
<rect y="40" width="20" height="20" transform="rotate(-90 0 40)" fill="#CFCFCF"/>
<rect x="80" y="260" width="20" height="20" transform="rotate(-90 80 260)" fill="#C2C2C2"/>
<rect x="80" y="240" width="20" height="20" transform="rotate(-90 80 240)" fill="#CDCDCD"/>
<rect x="80" y="220" width="20" height="20" transform="rotate(-90 80 220)" fill="#C2C2C2"/>
<rect x="80" y="200" width="20" height="20" transform="rotate(-90 80 200)" fill="#C2C2C2"/>
<rect x="80" y="180" width="20" height="20" transform="rotate(-90 80 180)" fill="#E0E0E0"/>
<rect x="80" y="160" width="20" height="20" transform="rotate(-90 80 160)" fill="#CFCFCF"/>
<path d="M80 140V120H100V140H80Z" fill="#C2C2C2"/>
<rect x="80" y="120" width="20" height="20" transform="rotate(-90 80 120)" fill="#CFCFCF"/>
<rect x="80" y="100" width="20" height="20" transform="rotate(-90 80 100)" fill="#E0E0E0"/>
<path d="M80 80V60H100V80H80Z" fill="#D3D3D3"/>
<rect x="80" y="60" width="20" height="20" transform="rotate(-90 80 60)" fill="#E7E7E7"/>
<rect x="80" y="40" width="20" height="20" transform="rotate(-90 80 40)" fill="#CFCFCF"/>
<rect x="120" y="260" width="20" height="20" transform="rotate(-90 120 260)" fill="#BBBBBB"/>
<rect x="120" y="240" width="20" height="20" transform="rotate(-90 120 240)" fill="#CDCDCD"/>
<rect x="120" y="220" width="20" height="20" transform="rotate(-90 120 220)" fill="#C2C2C2"/>
<rect x="120" y="200" width="20" height="20" transform="rotate(-90 120 200)" fill="#E0E0E0"/>
<rect x="120" y="180" width="20" height="20" transform="rotate(-90 120 180)" fill="#CFCFCF"/>
<rect x="120" y="160" width="20" height="20" transform="rotate(-90 120 160)" fill="#CFCFCF"/>
<path d="M120 140V120H140V140H120Z" fill="#CFCFCF"/>
<rect x="120" y="120" width="20" height="20" transform="rotate(-90 120 120)" fill="#CFCFCF"/>
<rect x="120" y="100" width="20" height="20" transform="rotate(-90 120 100)" fill="#CFCFCF"/>
<rect x="120" y="80" width="20" height="20" transform="rotate(-90 120 80)" fill="#CFCFCF"/>
<rect x="120" y="60" width="20" height="20" transform="rotate(-90 120 60)" fill="#CFCFCF"/>
<rect x="120" y="40" width="20" height="20" transform="rotate(-90 120 40)" fill="#D9D9D9"/>
<rect x="40" y="260" width="20" height="20" transform="rotate(-90 40 260)" fill="#CFCFCF"/>
<rect x="40" y="240" width="20" height="20" transform="rotate(-90 40 240)" fill="#CFCFCF"/>
<rect x="40" y="220" width="20" height="20" transform="rotate(-90 40 220)" fill="#CFCFCD"/>
<rect x="40" y="200" width="20" height="20" transform="rotate(-90 40 200)" fill="#E0E0E0"/>
<rect x="40" y="180" width="20" height="20" transform="rotate(-90 40 180)" fill="#C2C2C2"/>
<rect x="40" y="160" width="20" height="20" transform="rotate(-90 40 160)" fill="#BDBBBB"/>
<path d="M40 140V120H60V140H40Z" fill="#C2C2C2"/>
<rect x="40" y="120" width="20" height="20" transform="rotate(-90 40 120)" fill="#C2C2C2"/>
<rect x="40" y="100" width="20" height="20" transform="rotate(-90 40 100)" fill="#C2C2C2"/>
<rect x="40" y="80" width="20" height="20" transform="rotate(-90 40 80)" fill="#CFCFCF"/>
<rect x="40" y="60" width="20" height="20" transform="rotate(-90 40 60)" fill="#CFCFCF"/>
<rect x="40" y="40" width="20" height="20" transform="rotate(-90 40 40)" fill="#CFCFCF"/>
<rect x="160" y="260" width="20" height="20" transform="rotate(-90 160 260)" fill="#BBBBBB"/>
<rect x="160" y="240" width="20" height="20" transform="rotate(-90 160 240)" fill="#CDCDCD"/>
<rect x="160" y="220" width="20" height="20" transform="rotate(-90 160 220)" fill="#C2C2C2"/>
<rect x="160" y="200" width="20" height="20" transform="rotate(-90 160 200)" fill="#AFAFAF"/>
<rect x="160" y="180" width="20" height="20" transform="rotate(-90 160 180)" fill="#C2C2C2"/>
<rect x="160" y="160" width="20" height="20" transform="rotate(-90 160 160)" fill="#CFCFCF"/>
<path d="M160 140V120H180V140H160Z" fill="#CFCFCF"/>
<rect x="160" y="120" width="20" height="20" transform="rotate(-90 160 120)" fill="#D6D6D6"/>
<rect x="160" y="100" width="20" height="20" transform="rotate(-90 160 100)" fill="#D6D6D6"/>
<rect x="160" y="80" width="20" height="20" transform="rotate(-90 160 80)" fill="#CFCFCF"/>
<rect x="160" y="60" width="20" height="20" transform="rotate(-90 160 60)" fill="#E0E0E0"/>
<rect x="160" y="40" width="20" height="20" transform="rotate(-90 160 40)" fill="#D9D9D9"/>
<rect x="60" y="260" width="20" height="20" transform="rotate(-90 60 260)" fill="#D9D9D9"/>
<rect x="60" y="240" width="20" height="20" transform="rotate(-90 60 240)" fill="#C2C2C2"/>
<rect x="60" y="220" width="20" height="20" transform="rotate(-90 60 220)" fill="#C4C4C4"/>
<rect x="60" y="200" width="20" height="20" transform="rotate(-90 60 200)" fill="#C6C6C6"/>
<rect x="60" y="180" width="20" height="20" transform="rotate(-90 60 180)" fill="#C2C2C2"/>
<rect x="60" y="160" width="20" height="20" transform="rotate(-90 60 160)" fill="#E0E0E0"/>
<rect x="60" y="140" width="20" height="20" transform="rotate(-90 60 140)" fill="#C2C2C2"/>
<rect x="60" y="120" width="20" height="20" transform="rotate(-90 60 120)" fill="#C2C2C2"/>
<rect x="60" y="100" width="20" height="20" transform="rotate(-90 60 100)" fill="#E7E7E7"/>
<rect x="60" y="80" width="20" height="20" transform="rotate(-90 60 80)" fill="#D3D3D3"/>
<rect x="60" y="60" width="20" height="20" transform="rotate(-90 60 60)" fill="#CFCFCF"/>
<rect x="60" y="40" width="20" height="20" transform="rotate(-90 60 40)" fill="#C9C9C9"/>
<rect x="140" y="260" width="20" height="20" transform="rotate(-90 140 260)" fill="#D9D9D9"/>
<rect x="140" y="240" width="20" height="20" transform="rotate(-90 140 240)" fill="#E0E0E0"/>
<rect x="140" y="220" width="20" height="20" transform="rotate(-90 140 220)" fill="#C4C4C4"/>
<rect x="140" y="200" width="20" height="20" transform="rotate(-90 140 200)" fill="#C6C6C6"/>
<rect x="140" y="180" width="20" height="20" transform="rotate(-90 140 180)" fill="#CFCFCF"/>
<rect x="140" y="160" width="20" height="20" transform="rotate(-90 140 160)" fill="#CFCFCF"/>
<rect x="140" y="140" width="20" height="20" transform="rotate(-90 140 140)" fill="#CFCFCF"/>
<rect x="140" y="120" width="20" height="20" transform="rotate(-90 140 120)" fill="#CFCFCF"/>
<rect x="140" y="100" width="20" height="20" transform="rotate(-90 140 100)" fill="#CFCFCF"/>
<rect x="140" y="80" width="20" height="20" transform="rotate(-90 140 80)" fill="#CFCFCF"/>
<rect x="140" y="60" width="20" height="20" transform="rotate(-90 140 60)" fill="#CFCFCF"/>
<rect x="140" y="40" width="20" height="20" transform="rotate(-90 140 40)" fill="#CFCFCF"/>
<rect x="200" y="260" width="20" height="20" transform="rotate(-90 200 260)" fill="#B2B1B1"/>
<rect x="200" y="240" width="20" height="20" transform="rotate(-90 200 240)" fill="#CDCDCD"/>
<rect x="200" y="220" width="20" height="20" transform="rotate(-90 200 220)" fill="#C4C4C4"/>
<rect x="200" y="200" width="20" height="20" transform="rotate(-90 200 200)" fill="#E0E0E0"/>
<rect x="200" y="180" width="20" height="20" transform="rotate(-90 200 180)" fill="#CFCFCF"/>
<rect x="200" y="160" width="20" height="20" transform="rotate(-90 200 160)" fill="#CFCFCF"/>
<rect x="200" y="140" width="20" height="20" transform="rotate(-90 200 140)" fill="#CFCFCF"/>
<rect x="200" y="120" width="20" height="20" transform="rotate(-90 200 120)" fill="#CFCFCF"/>
<rect x="200" y="100" width="20" height="20" transform="rotate(-90 200 100)" fill="#CFCFCF"/>
<rect x="200" y="80" width="20" height="20" transform="rotate(-90 200 80)" fill="#CFCFCF"/>
<rect x="200" y="60" width="20" height="20" transform="rotate(-90 200 60)" fill="#D9D9D9"/>
<rect x="200" y="40" width="20" height="20" transform="rotate(-90 200 40)" fill="#C5C5C5"/>
<rect x="180" y="260" width="20" height="20" transform="rotate(-90 180 260)" fill="#BFBFBF"/>
<rect x="180" y="240" width="20" height="20" transform="rotate(-90 180 240)" fill="#E0E0E0"/>
<rect x="180" y="220" width="20" height="20" transform="rotate(-90 180 220)" fill="#E0E0E0"/>
<rect x="180" y="200" width="20" height="20" transform="rotate(-90 180 200)" fill="#CFCFCF"/>
<rect x="180" y="180" width="20" height="20" transform="rotate(-90 180 180)" fill="#CFCFCF"/>
<rect x="180" y="160" width="20" height="20" transform="rotate(-90 180 160)" fill="#CFCFCF"/>
<rect x="180" y="140" width="20" height="20" transform="rotate(-90 180 140)" fill="#CFCFCF"/>
<rect x="180" y="120" width="20" height="20" transform="rotate(-90 180 120)" fill="#D6D6D6"/>
<rect x="180" y="100" width="20" height="20" transform="rotate(-90 180 100)" fill="#CFCFCF"/>
<rect x="180" y="80" width="20" height="20" transform="rotate(-90 180 80)" fill="#CFCFCF"/>
<rect x="180" y="60" width="20" height="20" transform="rotate(-90 180 60)" fill="#CFCFCF"/>
<rect x="180" y="40" width="20" height="20" transform="rotate(-90 180 40)" fill="#D9D9D9"/>
<rect x="20" y="260" width="20" height="20" transform="rotate(-90 20 260)" fill="#BFBFBF"/>
<rect x="20" y="240" width="20" height="20" transform="rotate(-90 20 240)" fill="#CFCFCF"/>
<rect x="20" y="220" width="20" height="20" transform="rotate(-90 20 220)" fill="#CFCFCD"/>
<rect x="20" y="200" width="20" height="20" transform="rotate(-90 20 200)" fill="#CFCFCF"/>
<rect x="20" y="180" width="20" height="20" transform="rotate(-90 20 180)" fill="#CFCFCF"/>
<rect x="20" y="160" width="20" height="20" transform="rotate(-90 20 160)" fill="#C2C2C2"/>
<rect x="20" y="140" width="20" height="20" transform="rotate(-90 20 140)" fill="#C2C2C2"/>
<rect x="20" y="120" width="20" height="20" transform="rotate(-90 20 120)" fill="#CFCFCF"/>
<rect x="20" y="100" width="20" height="20" transform="rotate(-90 20 100)" fill="#C2C2C2"/>
<rect x="20" y="80" width="20" height="20" transform="rotate(-90 20 80)" fill="#BBBABA"/>
<rect x="20" y="60" width="20" height="20" transform="rotate(-90 20 60)" fill="#CFCFCF"/>
<rect x="20" y="40" width="20" height="20" transform="rotate(-90 20 40)" fill="#CFCFCF"/>
<rect x="100" y="260" width="20" height="20" transform="rotate(-90 100 260)" fill="#BFBFBF"/>
<rect x="100" y="240" width="20" height="20" transform="rotate(-90 100 240)" fill="#C2C2C2"/>
<rect x="100" y="220" width="20" height="20" transform="rotate(-90 100 220)" fill="#C2C2C2"/>
<rect x="100" y="200" width="20" height="20" transform="rotate(-90 100 200)" fill="#C6C6C6"/>
<rect x="100" y="180" width="20" height="20" transform="rotate(-90 100 180)" fill="#C2C2C2"/>
<rect x="100" y="160" width="20" height="20" transform="rotate(-90 100 160)" fill="#C2C2C2"/>
<rect x="100" y="140" width="20" height="20" transform="rotate(-90 100 140)" fill="#CFCFCF"/>
<rect x="100" y="120" width="20" height="20" transform="rotate(-90 100 120)" fill="#C2C2C2"/>
<rect x="100" y="100" width="20" height="20" transform="rotate(-90 100 100)" fill="#C2C2C2"/>
<rect x="100" y="80" width="20" height="20" transform="rotate(-90 100 80)" fill="#E7E7E7"/>
<rect x="100" y="60" width="20" height="20" transform="rotate(-90 100 60)" fill="#CFCFCF"/>
<rect x="100" y="40" width="20" height="20" transform="rotate(-90 100 40)" fill="#BCBCBC"/>
</svg>
