<svg width="30" height="30" viewBox="0 0 30 30" fill="none" xmlns="http://www.w3.org/2000/svg">
<path d="M6.25 15V22.5C6.25 22.5 6.25 26.25 15 26.25C23.75 26.25 23.75 22.5 23.75 22.5V15" stroke="#F8F8F0" stroke-width="2"/>
<path d="M6.25 7.5V15C6.25 15 6.25 18.75 15 18.75C23.75 18.75 23.75 15 23.75 15V7.5" stroke="#F8F8F0" stroke-width="2"/>
<path d="M15 3.75C23.75 3.75 23.75 7.5 23.75 7.5C23.75 7.5 23.75 11.25 15 11.25C6.25 11.25 6.25 7.5 6.25 7.5C6.25 7.5 6.25 3.75 15 3.75Z" stroke="#F8F8F0" stroke-width="2"/>
</svg>
