<svg width="30" height="30" viewBox="0 0 30 30" fill="none" xmlns="http://www.w3.org/2000/svg">
<path d="M7.5 22.5124L7.5125 22.4985" stroke="#F8F8F0" stroke-width="2" stroke-linecap="round" stroke-linejoin="round"/>
<path d="M7.5 7.51242L7.5125 7.49854" stroke="#F8F8F0" stroke-width="2" stroke-linecap="round" stroke-linejoin="round"/>
<path d="M2.5 11.75V3.25C2.5 2.83579 2.83579 2.5 3.25 2.5H26.75C27.1643 2.5 27.5 2.83579 27.5 3.25V11.75C27.5 12.1642 27.1643 12.5 26.75 12.5H3.25C2.83579 12.5 2.5 12.1642 2.5 11.75Z" stroke="#F8F8F0" stroke-width="2"/>
<path d="M2.5 26.75V18.25C2.5 17.8358 2.83579 17.5 3.25 17.5H26.75C27.1643 17.5 27.5 17.8358 27.5 18.25V26.75C27.5 27.1642 27.1643 27.5 26.75 27.5H3.25C2.83579 27.5 2.5 27.1642 2.5 26.75Z" stroke="#F8F8F0" stroke-width="2"/>
</svg>
