<svg width="458" height="253" viewBox="0 0 458 253" fill="none" xmlns="http://www.w3.org/2000/svg">
<path d="M194.889 147.514C194.889 148.837 195.461 150.04 196.603 151.122C197.746 152.204 198.317 152.986 198.317 153.467V153.737C198.317 154.579 197.806 155 196.783 155H187.404C186.321 155 185.72 154.429 185.6 153.286L185.329 150.13C182.323 153.978 178.114 155.902 172.703 155.902C166.931 155.902 161.97 153.828 157.821 149.679C153.733 145.53 151.688 140.059 151.688 133.264C151.688 126.71 153.703 121.329 157.731 117.12C161.82 112.911 166.87 110.807 172.883 110.807C177.573 110.807 181.511 112.34 184.698 115.407V98.4509C184.698 97.3085 184.337 96.3765 183.616 95.655C182.954 94.9335 182.263 94.3623 181.541 93.9414C180.88 93.4603 180.549 92.9493 180.549 92.4081V92.2278C180.549 91.4461 181.09 90.8448 182.173 90.424L191.733 87.3575C193.837 86.636 194.889 87.1771 194.889 88.9809V147.514ZM175.138 152.475C177.603 152.475 179.798 151.453 181.722 149.408C183.706 147.364 184.698 144.508 184.698 140.84V126.41C184.698 123.403 183.556 120.638 181.271 118.112C178.986 115.527 176.31 114.234 173.244 114.234C169.877 114.234 167.171 115.617 165.127 118.383C163.082 121.089 162.03 124.816 161.97 129.566C161.85 135.88 162.992 141.261 165.397 145.71C167.863 150.16 171.109 152.415 175.138 152.475ZM212.855 104.223C210.63 104.223 208.826 103.592 207.444 102.329C206.061 101.066 205.369 99.443 205.369 97.4588C205.369 95.4746 206.061 93.8512 207.444 92.5885C208.826 91.3259 210.63 90.6945 212.855 90.6945C215.019 90.6945 216.763 91.3259 218.086 92.5885C219.469 93.8512 220.16 95.4746 220.16 97.4588C220.16 99.443 219.469 101.066 218.086 102.329C216.763 103.592 215.019 104.223 212.855 104.223ZM206.181 155C204.918 155 204.287 154.549 204.287 153.647V153.286C204.287 152.745 204.828 151.964 205.91 150.941C207.053 149.919 207.624 148.747 207.624 147.424V123.794C207.624 122.411 207.053 121.119 205.91 119.916C204.828 118.714 204.287 117.932 204.287 117.571V117.301C204.287 116.82 204.828 116.278 205.91 115.677L214.929 111.168C215.951 110.747 216.733 110.717 217.274 111.077C217.875 111.378 218.176 111.919 218.176 112.701V147.424C218.176 148.747 218.777 149.919 219.98 150.941C221.243 151.964 221.874 152.745 221.874 153.286V153.647C221.874 154.549 221.213 155 219.89 155H206.181ZM249.711 88.7103C253.138 88.7103 256.114 89.6724 258.64 91.5964C261.165 93.5205 262.428 95.8053 262.428 98.4509C262.428 99.4129 262.037 100.315 261.255 101.157C260.534 101.938 259.542 102.329 258.279 102.329C256.295 102.329 254.852 101.818 253.95 100.796C253.048 99.7135 252.567 98.5411 252.507 97.2784C252.447 95.9556 252.056 94.7531 251.334 93.6708C250.613 92.5885 249.41 92.0474 247.727 92.0474C244.841 91.9872 243.127 94.0015 242.586 98.0901C242.045 102.179 242.466 106.718 243.849 111.709H255.754C256.175 111.709 256.535 111.859 256.836 112.16C257.137 112.46 257.287 112.821 257.287 113.242V114.685C257.287 115.647 256.776 116.128 255.754 116.128H244.209V147.424C244.209 148.747 244.931 149.949 246.374 151.032C247.817 152.054 248.538 152.835 248.538 153.377V153.737C248.538 154.579 248.027 155 247.005 155H231.763C230.681 155 230.14 154.579 230.14 153.737V153.377C230.14 152.835 230.711 152.054 231.853 151.032C233.056 149.949 233.657 148.747 233.657 147.424V116.128H226.712C225.63 116.128 225.089 115.647 225.089 114.685V113.242C225.089 112.821 225.239 112.46 225.54 112.16C225.901 111.859 226.292 111.709 226.712 111.709H233.657V104.945C233.657 100.134 235.04 96.2262 237.806 93.2198C240.572 90.2135 244.54 88.7103 249.711 88.7103ZM282.828 88.7103C286.255 88.7103 289.231 89.6724 291.756 91.5964C294.282 93.5205 295.544 95.8053 295.544 98.4509C295.544 99.4129 295.154 100.315 294.372 101.157C293.65 101.938 292.658 102.329 291.396 102.329C289.411 102.329 287.968 101.818 287.067 100.796C286.165 99.7135 285.684 98.5411 285.623 97.2784C285.563 95.9556 285.173 94.7531 284.451 93.6708C283.729 92.5885 282.527 92.0474 280.843 92.0474C277.957 91.9872 276.244 94.0015 275.703 98.0901C275.161 102.179 275.582 106.718 276.965 111.709H288.87C289.291 111.709 289.652 111.859 289.953 112.16C290.253 112.46 290.404 112.821 290.404 113.242V114.685C290.404 115.647 289.892 116.128 288.87 116.128H277.326V147.424C277.326 148.747 278.048 149.949 279.491 151.032C280.934 152.054 281.655 152.835 281.655 153.377V153.737C281.655 154.579 281.144 155 280.122 155H264.88C263.797 155 263.256 154.579 263.256 153.737V153.377C263.256 152.835 263.828 152.054 264.97 151.032C266.172 149.949 266.774 148.747 266.774 147.424V116.128H259.829C258.747 116.128 258.206 115.647 258.206 114.685V113.242C258.206 112.821 258.356 112.46 258.657 112.16C259.017 111.859 259.408 111.709 259.829 111.709H266.774V104.945C266.774 100.134 268.157 96.2262 270.922 93.2198C273.688 90.2135 277.657 88.7103 282.828 88.7103ZM298.261 155.902C296.217 155.902 294.533 155.361 293.211 154.278C291.888 153.136 291.227 151.543 291.227 149.498C291.227 147.394 291.888 145.801 293.211 144.718C294.533 143.576 296.217 143.005 298.261 143.005C300.246 143.005 301.899 143.576 303.222 144.718C304.545 145.801 305.206 147.394 305.206 149.498C305.206 151.543 304.545 153.136 303.222 154.278C301.899 155.361 300.246 155.902 298.261 155.902Z" fill="#F8F8F0"/>
</svg>
