<svg width="40" height="40" viewBox="0 0 40 40" fill="none" xmlns="http://www.w3.org/2000/svg">
<path d="M9.4224 13.2032H30.5777V30.4424C30.5777 31.4666 29.7474 32.2969 28.7245 32.2969H26.6055V37.5471C26.6055 38.8804 25.5421 39.961 24.2294 39.961C22.9133 39.961 21.8514 38.8804 21.8514 37.5471V32.2969H18.1505V37.5471C18.1505 38.8804 17.085 39.961 15.7723 39.961C14.4599 39.961 13.3944 38.8804 13.3944 37.5471V32.2969H11.2773C10.2542 32.2969 9.42232 31.4666 9.42232 30.4424L9.4224 13.2032ZM5.2767 13.0625C3.95061 13.0625 2.87646 14.1533 2.87646 15.5V25.0263C2.87646 26.3714 3.95061 27.4641 5.2767 27.4641C6.60303 27.4641 7.67693 26.3714 7.67693 25.0263V15.5C7.67693 14.1533 6.60303 13.0625 5.2767 13.0625ZM30.5778 11.466H9.4224C9.6835 8.45206 11.6386 5.85847 14.453 4.35675L12.4416 1.40331C12.1704 1.00503 12.2727 0.461592 12.6718 0.19042C13.0704 -0.0807519 13.6127 0.0223731 13.8853 0.420342L16.0776 3.64159C17.293 3.22128 18.6124 2.97995 20.0001 2.97995C21.3894 2.97995 22.7088 3.22128 23.9242 3.64214L26.1165 0.421514C26.3857 0.0224512 26.9297 -0.0806737 27.3283 0.190498C27.7274 0.46167 27.8297 1.00511 27.5585 1.40339L25.5487 4.35683C28.3631 5.85761 30.3169 8.4512 30.5778 11.466ZM16.7083 7.37073C16.7083 6.7244 16.1849 6.20018 15.5388 6.20018C14.8911 6.20018 14.3677 6.7244 14.3677 7.37073C14.3677 8.01675 14.8928 8.54073 15.5388 8.54073C16.1848 8.54073 16.7083 8.01675 16.7083 7.37073ZM25.7807 7.37073C25.7807 6.7244 25.2555 6.20018 24.6096 6.20018C23.9619 6.20018 23.4401 6.7244 23.4401 7.37073C23.4401 8.01675 23.9619 8.54073 24.6096 8.54073C25.2556 8.54073 25.7807 8.01675 25.7807 7.37073ZM34.7251 13.0591C33.4004 13.0591 32.3232 14.1516 32.3232 15.4983V25.028C32.3232 26.3747 33.4004 27.4675 34.7251 27.4675C36.0515 27.4675 37.1236 26.3748 37.1236 25.028V15.4983C37.1237 14.1516 36.0515 13.0591 34.7251 13.0591Z" fill="#F8F8F0"/>
</svg>
