<svg width="40" height="40" viewBox="0 0 40 40" fill="none" xmlns="http://www.w3.org/2000/svg">
<g clip-path="url(#clip0_83_950)">
<path d="M0 33.4732C0.0716667 34.3565 0.383333 35.2448 1.19667 36.4365C2.16333 37.8515 3.82333 38.6282 5.035 37.3815C5.85167 36.5398 14.6917 21.0882 18.9517 15.2315C19.0686 15.0641 19.2241 14.9273 19.4052 14.8329C19.5863 14.7385 19.7875 14.6892 19.9917 14.6892C20.1959 14.6892 20.3971 14.7385 20.5781 14.8329C20.7592 14.9273 20.9148 15.0641 21.0317 15.2315C25.2917 21.0882 34.1317 36.5398 34.9483 37.3815C36.16 38.6282 37.82 37.8515 38.7867 36.4365C39.7367 35.0448 40 34.0698 40 33.0265C40 32.3165 26.2333 6.6965 24.8467 4.56316C23.5133 2.51316 23.1067 2.0665 20.8517 1.99316H19.1317C16.8767 2.0665 16.47 2.5115 15.135 4.56316C13.7783 6.6515 0.55 31.2632 0 32.9498V33.4732Z" fill="#F8F8F0"/>
</g>
<defs>
<clipPath id="clip0_83_950">
<rect width="40" height="40" fill="white"/>
</clipPath>
</defs>
</svg>
