<svg width="38" height="38" viewBox="0 0 38 38" fill="none" xmlns="http://www.w3.org/2000/svg">
<g clip-path="url(#clip0_83_932)">
<path d="M37.9998 29.431C37.4467 29.6402 36.8362 29.6397 36.2835 29.4297C35.7307 29.2197 35.274 28.8146 34.9994 28.291L29.5369 20.7369L28.7452 19.6808L22.4071 28.3005C22.149 28.8022 21.717 29.1927 21.1919 29.399C20.6668 29.6053 20.0845 29.6133 19.5539 29.4215L27.7208 18.4648L20.1239 8.56741C20.6702 8.37056 21.2676 8.36795 21.8155 8.56002C22.3635 8.75209 22.8285 9.1271 23.1323 9.62191L28.7943 17.2694L34.4879 9.65358C34.748 9.16083 35.1801 8.78083 35.7021 8.58582C36.2241 8.39082 36.7995 8.39441 37.3189 8.59591L34.3708 12.5083L30.3776 17.7064C30.2667 17.8053 30.178 17.9266 30.1172 18.0622C30.0565 18.1978 30.0251 18.3447 30.0251 18.4933C30.0251 18.6419 30.0565 18.7889 30.1172 18.9245C30.178 19.0601 30.2667 19.1813 30.3776 19.2802L37.9839 29.4326L37.9998 29.431ZM0.00294152 18.3287L0.667942 15.0432C2.49511 8.54683 9.94311 5.84408 15.0668 9.86575C18.0672 12.2233 18.8161 15.561 18.6689 19.323H1.76678C1.49286 26.0411 6.34102 30.0976 12.5398 28.025C13.5447 27.6633 14.4441 27.058 15.1576 26.2632C15.8711 25.4685 16.3763 24.5092 16.6279 23.4713C16.9557 22.4168 17.4956 22.2363 18.4868 22.5403C18.3216 23.8266 17.8669 25.0587 17.1569 26.1439C16.4469 27.2291 15.5 28.1391 14.3875 28.8056C12.5499 29.8107 10.4416 30.2091 8.36393 29.9438C6.28627 29.6785 4.34571 28.763 2.81969 27.3283C1.31082 25.63 0.398896 23.4848 0.223025 21.2198C0.223025 20.8477 0.0963582 20.4994 0.0108582 20.1653C0.00315057 19.5537 -0.000543956 18.942 -0.000225147 18.3302L0.00294152 18.3287ZM1.78736 17.8758H17.0729C16.9779 13.0055 13.9046 9.55066 9.80536 9.519C5.24219 9.45566 1.97736 12.8345 1.77627 17.8537L1.78736 17.8758Z" fill="#F8F8F0"/>
</g>
<defs>
<clipPath id="clip0_83_932">
<rect width="38" height="38" fill="white"/>
</clipPath>
</defs>
</svg>
