<svg width="40" height="40" viewBox="0 0 40 40" fill="none" xmlns="http://www.w3.org/2000/svg">
<path d="M1.39882 15.7914V29.0114H4.51132V15.7914H1.39882ZM14.8526 13.4602C18.0438 13.4602 20.0938 16.0102 20.0938 20.0002C20.0938 24.0214 18.0438 26.5714 14.8526 26.5714C11.6301 26.5714 9.59507 24.0214 9.59507 20.0002C9.59507 16.0102 11.6288 13.4602 14.8526 13.4602ZM31.8126 10.7227C27.9013 10.7227 25.1163 12.8814 25.1163 16.0889C25.1163 18.6389 26.6963 20.2352 30.0138 21.0014L32.3451 21.5652C34.6138 22.0814 35.5363 22.8327 35.5363 24.1314C35.5363 25.6339 34.0188 26.6977 31.8601 26.6977C29.6538 26.6977 27.9951 25.6177 27.8238 23.9602H24.6951C24.8201 27.2777 27.5426 29.3114 31.6726 29.3114C36.0376 29.3114 38.7763 27.1677 38.7763 23.7577C38.7763 21.0827 37.2113 19.5652 33.5826 18.7352L31.5013 18.2652C29.2951 17.7327 28.3876 17.0289 28.3876 15.8402C28.3876 14.3377 29.7638 13.3364 31.7988 13.3364C33.8488 13.3364 35.2563 14.3539 35.4126 16.0277H38.4788C38.4001 12.8677 35.7876 10.7239 31.8138 10.7239L31.8126 10.7227ZM14.8526 10.7227C9.59632 10.7227 6.31007 14.3052 6.31007 20.0002C6.31007 25.7427 9.59507 29.3089 14.8526 29.3089C20.0788 29.3089 23.3788 25.7414 23.3788 20.0002C23.3788 14.3052 20.0776 10.7227 14.8513 10.7227H14.8526ZM2.94632 10.6914C2.93757 10.6914 2.92632 10.6914 2.91632 10.6914C1.98257 10.6914 1.22632 11.4477 1.22632 12.3814C1.22632 13.3152 1.98257 14.0714 2.91632 14.0714C2.92757 14.0714 2.93757 14.0714 2.94882 14.0714C2.96257 14.0714 2.97757 14.0727 2.99382 14.0727C3.92757 14.0727 4.68382 13.3164 4.68382 12.3827C4.68382 11.4489 3.92757 10.6927 2.99382 10.6927C2.97757 10.6927 2.96132 10.6927 2.94507 10.6939H2.94757L2.94632 10.6914Z" fill="#F8F8F0"/>
</svg>
