<svg width="40" height="40" viewBox="0 0 40 40" fill="none" xmlns="http://www.w3.org/2000/svg">
<path d="M37.7018 11.5522V28.4361C37.7018 29.5318 37.1123 30.552 36.165 31.1035L21.5362 39.5501C21.0683 39.8215 20.5376 39.9609 19.9957 39.9609C19.4614 39.9609 18.9293 39.8215 18.4614 39.5501L13.5769 36.6602C12.8483 36.2534 13.2039 36.1087 13.4447 36.0252C14.4177 35.6876 14.6145 35.6097 15.6532 35.0203C15.7615 34.9583 15.9044 34.9826 16.0162 35.0471L19.7686 37.2751C19.9046 37.3518 20.0968 37.3518 20.2218 37.2751L34.8518 28.8309C34.988 28.7531 35.0754 28.5979 35.0754 28.4362V11.5522C35.0754 11.3869 34.988 11.2324 34.8483 11.1489L20.2244 2.71217C20.0896 2.63326 19.9096 2.63326 19.7738 2.71217L5.15316 11.1512C5.01113 11.2325 4.92152 11.3918 4.92152 11.5522V28.4361C4.92152 28.5977 5.01105 28.7493 5.1523 28.8259L9.16004 31.1426C11.3342 32.2288 12.6659 30.9485 12.6659 29.6617V12.9929C12.6659 12.7572 12.8552 12.5713 13.0908 12.5713H14.9461C15.178 12.5713 15.3702 12.7571 15.3702 12.9929V29.6618C15.3702 32.5638 13.7893 34.2285 11.038 34.2285C10.193 34.2285 9.52652 34.2285 7.66785 33.3134L3.83207 31.1035C2.88418 30.557 2.29785 29.5319 2.29785 28.4361V11.5522C2.29785 10.4551 2.88418 9.43115 3.83207 8.88545L18.4614 0.431699C19.3872 -0.0918164 20.6183 -0.0918164 21.5362 0.431699L36.165 8.88545C37.1123 9.43342 37.7018 10.4551 37.7018 11.5522ZM25.0914 26.8255C20.7257 26.8255 19.7652 25.728 19.4434 23.5571C19.4061 23.3254 19.2076 23.1528 18.9697 23.1528H16.8364C16.5722 23.1528 16.3602 23.364 16.3602 23.6297C16.3602 26.4078 17.8722 29.7212 25.0914 29.7212C30.3184 29.7212 33.3155 27.6634 33.3155 24.0694C33.3155 20.5051 30.9071 19.5569 25.8382 18.8858C20.7149 18.2078 20.1943 17.8587 20.1943 16.6586C20.1943 15.6694 20.6351 14.3476 24.4299 14.3476C27.8185 14.3476 29.0678 15.078 29.5814 17.3613C29.6267 17.5765 29.8223 17.7336 30.0442 17.7336H32.1855C32.3183 17.7336 32.4445 17.6765 32.5347 17.5818C32.6252 17.4818 32.6732 17.3515 32.6606 17.215C32.3293 13.2793 29.7143 11.4459 24.4298 11.4459C19.726 11.4459 16.9206 13.4314 16.9206 16.7586C16.9206 20.3693 19.7119 21.368 24.2253 21.8134C29.6267 22.3433 30.0459 23.1324 30.0459 24.1953C30.0459 26.039 28.5667 26.8255 25.0914 26.8255Z" fill="#F8F8F0"/>
</svg>
