<svg width="40" height="40" viewBox="0 0 40 40" fill="none" xmlns="http://www.w3.org/2000/svg">
<g clip-path="url(#clip0_83_952)">
<path d="M19.9999 16.8501C20.6149 16.8501 21.2161 17.0321 21.7279 17.3731C22.2397 17.7141 22.6392 18.1989 22.876 18.7665C23.1129 19.334 23.1765 19.959 23.0589 20.5626C22.9413 21.1663 22.6478 21.7216 22.2152 22.1588C21.7827 22.596 21.2305 22.8954 20.6281 23.0194C20.0258 23.1434 19.4002 23.0864 18.8301 22.8556C18.2601 22.6248 17.7711 22.2306 17.4246 21.7224C17.0782 21.2143 16.8898 20.615 16.8833 20.0001C16.8811 19.5886 16.9599 19.1807 17.1154 18.7997C17.2708 18.4187 17.4998 18.0721 17.7892 17.7796C18.0786 17.4871 18.4228 17.2544 18.8021 17.0949C19.1814 16.9355 19.5884 16.8523 19.9999 16.8501ZM12.2833 33.3334C13.3333 33.9667 15.6166 33.0001 18.2833 30.5001C17.392 29.4872 16.552 28.4304 15.7666 27.3334C14.4223 27.1828 13.087 26.9603 11.7666 26.6667C10.9166 30.2334 11.2333 32.6834 12.2833 33.3334ZM13.4666 23.7667L12.9833 22.9167C12.7948 23.3849 12.6335 23.8634 12.4999 24.3501C12.9499 24.4501 13.4499 24.5334 13.9666 24.6167L13.4666 23.7667ZM24.3666 22.5001L25.7166 20.0001L24.3666 17.5001C23.8666 16.6167 23.3333 15.8334 22.8499 15.0501C21.9499 15.0001 20.9999 15.0001 19.9999 15.0001C18.9999 15.0001 18.0499 15.0001 17.1499 15.0001C16.6666 15.7834 16.1333 16.5667 15.6333 17.4501L14.2833 20.0001L15.6333 22.5001C16.1333 23.3834 16.6666 24.1667 17.1499 24.9501C18.0499 24.9501 18.9999 24.9501 19.9999 24.9501C20.9999 24.9501 21.9499 24.9501 22.8499 24.9501C23.3333 24.1667 23.8666 23.3834 24.3666 22.5001ZM19.9999 11.3001C19.6833 11.6667 19.3499 12.0501 19.0166 12.5001H20.9833C20.6499 12.0501 20.3166 11.6667 19.9999 11.3001ZM19.9999 28.7001C20.3166 28.3334 20.6499 27.9501 20.9833 27.5001H19.0166C19.3499 27.9501 19.6833 28.3334 19.9999 28.7001ZM27.6999 6.66673C26.6666 6.0334 24.3666 7.00007 21.7166 9.50007C22.6079 10.5129 23.4478 11.5698 24.2333 12.6667C25.5763 12.7953 26.9116 12.9956 28.2333 13.2667C29.0833 9.70007 28.7666 7.25007 27.6999 6.60007M26.5333 16.1667L27.0166 17.0167C27.205 16.5486 27.3664 16.07 27.4999 15.5834C27.0499 15.4834 26.5499 15.4001 26.0333 15.3167L26.5333 16.1667ZM28.9499 4.50007C31.3999 5.90007 31.6666 9.5834 30.6166 13.8834C34.8499 15.1334 37.8999 17.2167 37.8999 20.0167C37.8999 22.8167 34.8499 24.9001 30.6166 26.1501C31.6499 30.4501 31.3833 34.1334 28.9499 35.5334C26.5166 36.9334 23.1999 35.3334 19.9999 32.2834C16.7999 35.3334 13.4833 36.9334 11.0333 35.5334C8.58325 34.1334 8.33325 30.5334 9.36658 26.1501C5.13325 24.9001 2.08325 22.8167 2.08325 20.0167C2.08325 17.2167 5.13325 15.1167 9.36658 13.8667C8.33325 9.56673 8.59992 5.8834 11.0333 4.4834C13.4666 3.0834 16.7999 4.6834 19.9999 7.7334C23.1999 4.6834 26.5166 3.0834 28.9499 4.4834M28.4666 20.0001C29.0454 21.227 29.5573 22.4844 29.9999 23.7667C33.4999 22.7167 35.4666 21.2167 35.4666 20.0001C35.4666 18.7834 33.4499 17.2834 29.9999 16.2334C29.5573 17.5158 29.0454 18.7732 28.4666 20.0001ZM11.5333 20.0001C10.9544 18.7732 10.4426 17.5158 9.99992 16.2334C6.49992 17.2834 4.53325 18.7834 4.53325 20.0001C4.53325 21.2167 6.54992 22.7167 9.99992 23.7667C10.4426 22.4844 10.9544 21.227 11.5333 20.0001ZM26.5333 23.7667L26.0333 24.6167C26.5499 24.6167 27.0499 24.4501 27.4999 24.3501C27.3664 23.8634 27.205 23.3849 27.0166 22.9167L26.5333 23.7667ZM21.6666 30.5001C24.3166 33.0001 26.6666 33.9667 27.6499 33.3334C28.6333 32.7001 29.0333 30.3001 28.1833 26.6667C26.8616 26.9379 25.5263 27.1382 24.1833 27.2667C23.3996 28.3864 22.5597 29.4656 21.6666 30.5001ZM13.4666 16.2334L13.9666 15.3834C13.4499 15.3834 12.9499 15.5501 12.4999 15.6501C12.6335 16.1367 12.7948 16.6153 12.9833 17.0834L13.4666 16.2334ZM18.3333 9.50007C15.6333 7.00007 13.3333 6.0334 12.2833 6.66673C11.2333 7.30007 10.9166 9.70007 11.7666 13.3334C13.0883 13.0622 14.4235 12.8619 15.7666 12.7334C16.5664 11.6126 17.4231 10.5334 18.3333 9.50007Z" fill="#F8F8F0"/>
</g>
<defs>
<clipPath id="clip0_83_952">
<rect width="40" height="40" fill="white"/>
</clipPath>
</defs>
</svg>
