<svg width="50" height="51" viewBox="0 0 50 51" fill="none" xmlns="http://www.w3.org/2000/svg">
<path d="M6.25 7.0498H43.75V44.6429H6.25V7.0498ZM28.5625 38.085C29.1741 39.245 30.1071 40.2032 31.2492 40.8442C32.3913 41.4852 33.6938 41.7817 35 41.6981C38.3333 41.6981 40.8333 39.9646 40.8333 36.7692C40.8333 33.5738 39.1458 32.5922 36.1458 31.2138L35.2708 30.8379C33.75 30.1904 33.1875 29.7518 33.1875 28.7493C33.1894 28.5352 33.2357 28.3239 33.3234 28.1286C33.4111 27.9334 33.5383 27.7586 33.697 27.6152C33.8557 27.4719 34.0423 27.3632 34.2451 27.296C34.4479 27.2287 34.6624 27.2045 34.875 27.2247C35.3628 27.2194 35.8407 27.3622 36.2461 27.6343C36.6514 27.9064 36.965 28.2952 37.1458 28.7493L39.875 26.9324C39.4025 26.0311 38.6775 25.2879 37.7891 24.7944C36.9007 24.3009 35.8878 24.0785 34.875 24.1546C34.2245 24.0908 33.5679 24.1635 32.947 24.368C32.326 24.5725 31.7544 24.9044 31.2683 25.3425C30.7823 25.7806 30.3926 26.3153 30.1241 26.9126C29.8555 27.51 29.7139 28.1568 29.7083 28.812C29.7083 31.6941 31.3958 32.989 33.875 34.1377L34.75 34.5136C36.375 35.2237 37.3333 35.6623 37.3333 36.8736C37.3333 38.085 36.3958 38.6071 34.9375 38.6071C34.2203 38.6223 33.5134 38.4345 32.8979 38.065C32.2825 37.6956 31.7835 37.1596 31.4583 36.5186L28.5833 38.1894M27.0833 24.28H16.6667V27.4127H19.7917V42.5544H23.4375V27.4127H27.0833V24.28Z" fill="#F8F8F0"/>
</svg>
