<svg width="40" height="40" viewBox="0 0 40 40" fill="none" xmlns="http://www.w3.org/2000/svg">
<path d="M23.8802 2.6167L17.9728 16.4114L10.2107 34.5383L28.2591 26.9141L37.8191 22.8762L23.8802 2.6167Z" stroke="#F8F8F0" stroke-width="3" stroke-linejoin="round"/>
<path d="M26.8901 19.3169L28.2596 26.9143L37.8196 22.8764L26.8901 19.3169Z" stroke="#F8F8F0" stroke-width="3" stroke-linejoin="round"/>
<path d="M23.8801 2.6167L26.8901 19.3172L37.8191 22.8762L23.8801 2.6167Z" stroke="#F8F8F0" stroke-width="3" stroke-linejoin="round"/>
<path d="M26.8902 19.3169L37.8196 22.8764L17.9733 16.4111L10.2107 34.5385L28.2596 26.9143L26.8902 19.3169Z" stroke="#F8F8F0" stroke-width="3" stroke-linejoin="round"/>
<path d="M10.2107 34.5381L17.9728 16.4112L2.01758 11.2139L10.2107 34.5381Z" stroke="#F8F8F0" stroke-width="3" stroke-linejoin="round"/>
<path d="M28.2598 26.9139L30.0103 36.6218L37.8198 22.876L28.2598 26.9139Z" stroke="#F8F8F0" stroke-width="3" stroke-linejoin="round"/>
<path d="M23.8803 2.6167L17.9729 16.4114L26.8903 19.3172L23.8803 2.6167Z" stroke="#F8F8F0" stroke-width="3" stroke-linejoin="round"/>
</svg>
